<?xml version="1.0" encoding="utf-8" standalone="no"?>
<!DOCTYPE svg PUBLIC "-//W3C//DTD SVG 1.1//EN"
  "http://www.w3.org/Graphics/SVG/1.1/DTD/svg11.dtd">
<!-- Created with matplotlib (http://matplotlib.org/) -->
<svg height="345.6pt" version="1.1" viewBox="0 0 460.8 345.6" width="460.8pt" xmlns="http://www.w3.org/2000/svg" xmlns:xlink="http://www.w3.org/1999/xlink">
 <defs>
  <style type="text/css">
*{stroke-linecap:butt;stroke-linejoin:round;}
  </style>
 </defs>
 <g id="figure_1">
  <g id="patch_1">
   <path d="M 0 345.6 
L 460.8 345.6 
L 460.8 0 
L 0 0 
z
" style="fill:#ffffff;"/>
  </g>
  <g id="axes_1">
   <g id="patch_2">
    <path d="M 57.6 307.584 
L 414.72 307.584 
L 414.72 41.472 
L 57.6 41.472 
z
" style="fill:#ffffff;"/>
   </g>
   <g id="matplotlib.axis_1">
    <g id="xtick_1">
     <g id="line2d_1">
      <defs>
       <path d="M 0 0 
L 0 3.5 
" id="mcda1277811" style="stroke:#000000;stroke-width:0.8;"/>
      </defs>
      <g>
       <use style="stroke:#000000;stroke-width:0.8;" x="73.832727" xlink:href="#mcda1277811" y="307.584"/>
      </g>
     </g>
     <g id="text_1">
      <!-- 0 -->
      <defs>
       <path d="M 31.78125 66.40625 
Q 24.171875 66.40625 20.328125 58.90625 
Q 16.5 51.421875 16.5 36.375 
Q 16.5 21.390625 20.328125 13.890625 
Q 24.171875 6.390625 31.78125 6.390625 
Q 39.453125 6.390625 43.28125 13.890625 
Q 47.125 21.390625 47.125 36.375 
Q 47.125 51.421875 43.28125 58.90625 
Q 39.453125 66.40625 31.78125 66.40625 
z
M 31.78125 74.21875 
Q 44.046875 74.21875 50.515625 64.515625 
Q 56.984375 54.828125 56.984375 36.375 
Q 56.984375 17.96875 50.515625 8.265625 
Q 44.046875 -1.421875 31.78125 -1.421875 
Q 19.53125 -1.421875 13.0625 8.265625 
Q 6.59375 17.96875 6.59375 36.375 
Q 6.59375 54.828125 13.0625 64.515625 
Q 19.53125 74.21875 31.78125 74.21875 
z
" id="DejaVuSans-30"/>
      </defs>
      <g transform="translate(70.651477 322.182437)scale(0.1 -0.1)">
       <use xlink:href="#DejaVuSans-30"/>
      </g>
     </g>
    </g>
    <g id="xtick_2">
     <g id="line2d_2">
      <g>
       <use style="stroke:#000000;stroke-width:0.8;" x="145.978182" xlink:href="#mcda1277811" y="307.584"/>
      </g>
     </g>
     <g id="text_2">
      <!-- 100 -->
      <defs>
       <path d="M 12.40625 8.296875 
L 28.515625 8.296875 
L 28.515625 63.921875 
L 10.984375 60.40625 
L 10.984375 69.390625 
L 28.421875 72.90625 
L 38.28125 72.90625 
L 38.28125 8.296875 
L 54.390625 8.296875 
L 54.390625 0 
L 12.40625 0 
z
" id="DejaVuSans-31"/>
      </defs>
      <g transform="translate(136.434432 322.182437)scale(0.1 -0.1)">
       <use xlink:href="#DejaVuSans-31"/>
       <use x="63.623047" xlink:href="#DejaVuSans-30"/>
       <use x="127.246094" xlink:href="#DejaVuSans-30"/>
      </g>
     </g>
    </g>
    <g id="xtick_3">
     <g id="line2d_3">
      <g>
       <use style="stroke:#000000;stroke-width:0.8;" x="218.123636" xlink:href="#mcda1277811" y="307.584"/>
      </g>
     </g>
     <g id="text_3">
      <!-- 200 -->
      <defs>
       <path d="M 19.1875 8.296875 
L 53.609375 8.296875 
L 53.609375 0 
L 7.328125 0 
L 7.328125 8.296875 
Q 12.9375 14.109375 22.625 23.890625 
Q 32.328125 33.6875 34.8125 36.53125 
Q 39.546875 41.84375 41.421875 45.53125 
Q 43.3125 49.21875 43.3125 52.78125 
Q 43.3125 58.59375 39.234375 62.25 
Q 35.15625 65.921875 28.609375 65.921875 
Q 23.96875 65.921875 18.8125 64.3125 
Q 13.671875 62.703125 7.8125 59.421875 
L 7.8125 69.390625 
Q 13.765625 71.78125 18.9375 73 
Q 24.125 74.21875 28.421875 74.21875 
Q 39.75 74.21875 46.484375 68.546875 
Q 53.21875 62.890625 53.21875 53.421875 
Q 53.21875 48.921875 51.53125 44.890625 
Q 49.859375 40.875 45.40625 35.40625 
Q 44.1875 33.984375 37.640625 27.21875 
Q 31.109375 20.453125 19.1875 8.296875 
z
" id="DejaVuSans-32"/>
      </defs>
      <g transform="translate(208.579886 322.182437)scale(0.1 -0.1)">
       <use xlink:href="#DejaVuSans-32"/>
       <use x="63.623047" xlink:href="#DejaVuSans-30"/>
       <use x="127.246094" xlink:href="#DejaVuSans-30"/>
      </g>
     </g>
    </g>
    <g id="xtick_4">
     <g id="line2d_4">
      <g>
       <use style="stroke:#000000;stroke-width:0.8;" x="290.269091" xlink:href="#mcda1277811" y="307.584"/>
      </g>
     </g>
     <g id="text_4">
      <!-- 300 -->
      <defs>
       <path d="M 40.578125 39.3125 
Q 47.65625 37.796875 51.625 33 
Q 55.609375 28.21875 55.609375 21.1875 
Q 55.609375 10.40625 48.1875 4.484375 
Q 40.765625 -1.421875 27.09375 -1.421875 
Q 22.515625 -1.421875 17.65625 -0.515625 
Q 12.796875 0.390625 7.625 2.203125 
L 7.625 11.71875 
Q 11.71875 9.328125 16.59375 8.109375 
Q 21.484375 6.890625 26.8125 6.890625 
Q 36.078125 6.890625 40.9375 10.546875 
Q 45.796875 14.203125 45.796875 21.1875 
Q 45.796875 27.640625 41.28125 31.265625 
Q 36.765625 34.90625 28.71875 34.90625 
L 20.21875 34.90625 
L 20.21875 43.015625 
L 29.109375 43.015625 
Q 36.375 43.015625 40.234375 45.921875 
Q 44.09375 48.828125 44.09375 54.296875 
Q 44.09375 59.90625 40.109375 62.90625 
Q 36.140625 65.921875 28.71875 65.921875 
Q 24.65625 65.921875 20.015625 65.03125 
Q 15.375 64.15625 9.8125 62.3125 
L 9.8125 71.09375 
Q 15.4375 72.65625 20.34375 73.4375 
Q 25.25 74.21875 29.59375 74.21875 
Q 40.828125 74.21875 47.359375 69.109375 
Q 53.90625 64.015625 53.90625 55.328125 
Q 53.90625 49.265625 50.4375 45.09375 
Q 46.96875 40.921875 40.578125 39.3125 
z
" id="DejaVuSans-33"/>
      </defs>
      <g transform="translate(280.725341 322.182437)scale(0.1 -0.1)">
       <use xlink:href="#DejaVuSans-33"/>
       <use x="63.623047" xlink:href="#DejaVuSans-30"/>
       <use x="127.246094" xlink:href="#DejaVuSans-30"/>
      </g>
     </g>
    </g>
    <g id="xtick_5">
     <g id="line2d_5">
      <g>
       <use style="stroke:#000000;stroke-width:0.8;" x="362.414545" xlink:href="#mcda1277811" y="307.584"/>
      </g>
     </g>
     <g id="text_5">
      <!-- 400 -->
      <defs>
       <path d="M 37.796875 64.3125 
L 12.890625 25.390625 
L 37.796875 25.390625 
z
M 35.203125 72.90625 
L 47.609375 72.90625 
L 47.609375 25.390625 
L 58.015625 25.390625 
L 58.015625 17.1875 
L 47.609375 17.1875 
L 47.609375 0 
L 37.796875 0 
L 37.796875 17.1875 
L 4.890625 17.1875 
L 4.890625 26.703125 
z
" id="DejaVuSans-34"/>
      </defs>
      <g transform="translate(352.870795 322.182437)scale(0.1 -0.1)">
       <use xlink:href="#DejaVuSans-34"/>
       <use x="63.623047" xlink:href="#DejaVuSans-30"/>
       <use x="127.246094" xlink:href="#DejaVuSans-30"/>
      </g>
     </g>
    </g>
    <g id="text_6">
     <!-- Run -->
     <defs>
      <path d="M 44.390625 34.1875 
Q 47.5625 33.109375 50.5625 29.59375 
Q 53.5625 26.078125 56.59375 19.921875 
L 66.609375 0 
L 56 0 
L 46.6875 18.703125 
Q 43.0625 26.03125 39.671875 28.421875 
Q 36.28125 30.8125 30.421875 30.8125 
L 19.671875 30.8125 
L 19.671875 0 
L 9.8125 0 
L 9.8125 72.90625 
L 32.078125 72.90625 
Q 44.578125 72.90625 50.734375 67.671875 
Q 56.890625 62.453125 56.890625 51.90625 
Q 56.890625 45.015625 53.6875 40.46875 
Q 50.484375 35.9375 44.390625 34.1875 
z
M 19.671875 64.796875 
L 19.671875 38.921875 
L 32.078125 38.921875 
Q 39.203125 38.921875 42.84375 42.21875 
Q 46.484375 45.515625 46.484375 51.90625 
Q 46.484375 58.296875 42.84375 61.546875 
Q 39.203125 64.796875 32.078125 64.796875 
z
" id="DejaVuSans-52"/>
      <path d="M 8.5 21.578125 
L 8.5 54.6875 
L 17.484375 54.6875 
L 17.484375 21.921875 
Q 17.484375 14.15625 20.5 10.265625 
Q 23.53125 6.390625 29.59375 6.390625 
Q 36.859375 6.390625 41.078125 11.03125 
Q 45.3125 15.671875 45.3125 23.6875 
L 45.3125 54.6875 
L 54.296875 54.6875 
L 54.296875 0 
L 45.3125 0 
L 45.3125 8.40625 
Q 42.046875 3.421875 37.71875 1 
Q 33.40625 -1.421875 27.6875 -1.421875 
Q 18.265625 -1.421875 13.375 4.4375 
Q 8.5 10.296875 8.5 21.578125 
z
M 31.109375 56 
z
" id="DejaVuSans-75"/>
      <path d="M 54.890625 33.015625 
L 54.890625 0 
L 45.90625 0 
L 45.90625 32.71875 
Q 45.90625 40.484375 42.875 44.328125 
Q 39.84375 48.1875 33.796875 48.1875 
Q 26.515625 48.1875 22.3125 43.546875 
Q 18.109375 38.921875 18.109375 30.90625 
L 18.109375 0 
L 9.078125 0 
L 9.078125 54.6875 
L 18.109375 54.6875 
L 18.109375 46.1875 
Q 21.34375 51.125 25.703125 53.5625 
Q 30.078125 56 35.796875 56 
Q 45.21875 56 50.046875 50.171875 
Q 54.890625 44.34375 54.890625 33.015625 
z
" id="DejaVuSans-6e"/>
     </defs>
     <g transform="translate(226.351406 335.860562)scale(0.1 -0.1)">
      <use xlink:href="#DejaVuSans-52"/>
      <use x="69.419922" xlink:href="#DejaVuSans-75"/>
      <use x="132.798828" xlink:href="#DejaVuSans-6e"/>
     </g>
    </g>
   </g>
   <g id="matplotlib.axis_2">
    <g id="ytick_1">
     <g id="line2d_6">
      <defs>
       <path d="M 0 0 
L -3.5 0 
" id="m6af633982f" style="stroke:#000000;stroke-width:0.8;"/>
      </defs>
      <g>
       <use style="stroke:#000000;stroke-width:0.8;" x="57.6" xlink:href="#m6af633982f" y="303.478919"/>
      </g>
     </g>
     <g id="text_7">
      <!-- 0.0 -->
      <defs>
       <path d="M 10.6875 12.40625 
L 21 12.40625 
L 21 0 
L 10.6875 0 
z
" id="DejaVuSans-2e"/>
      </defs>
      <g transform="translate(34.696875 307.278138)scale(0.1 -0.1)">
       <use xlink:href="#DejaVuSans-30"/>
       <use x="63.623047" xlink:href="#DejaVuSans-2e"/>
       <use x="95.410156" xlink:href="#DejaVuSans-30"/>
      </g>
     </g>
    </g>
    <g id="ytick_2">
     <g id="line2d_7">
      <g>
       <use style="stroke:#000000;stroke-width:0.8;" x="57.6" xlink:href="#m6af633982f" y="260.94813"/>
      </g>
     </g>
     <g id="text_8">
      <!-- 0.5 -->
      <defs>
       <path d="M 10.796875 72.90625 
L 49.515625 72.90625 
L 49.515625 64.59375 
L 19.828125 64.59375 
L 19.828125 46.734375 
Q 21.96875 47.46875 24.109375 47.828125 
Q 26.265625 48.1875 28.421875 48.1875 
Q 40.625 48.1875 47.75 41.5 
Q 54.890625 34.8125 54.890625 23.390625 
Q 54.890625 11.625 47.5625 5.09375 
Q 40.234375 -1.421875 26.90625 -1.421875 
Q 22.3125 -1.421875 17.546875 -0.640625 
Q 12.796875 0.140625 7.71875 1.703125 
L 7.71875 11.625 
Q 12.109375 9.234375 16.796875 8.0625 
Q 21.484375 6.890625 26.703125 6.890625 
Q 35.15625 6.890625 40.078125 11.328125 
Q 45.015625 15.765625 45.015625 23.390625 
Q 45.015625 31 40.078125 35.4375 
Q 35.15625 39.890625 26.703125 39.890625 
Q 22.75 39.890625 18.8125 39.015625 
Q 14.890625 38.140625 10.796875 36.28125 
z
" id="DejaVuSans-35"/>
      </defs>
      <g transform="translate(34.696875 264.747348)scale(0.1 -0.1)">
       <use xlink:href="#DejaVuSans-30"/>
       <use x="63.623047" xlink:href="#DejaVuSans-2e"/>
       <use x="95.410156" xlink:href="#DejaVuSans-35"/>
      </g>
     </g>
    </g>
    <g id="ytick_3">
     <g id="line2d_8">
      <g>
       <use style="stroke:#000000;stroke-width:0.8;" x="57.6" xlink:href="#m6af633982f" y="218.41734"/>
      </g>
     </g>
     <g id="text_9">
      <!-- 1.0 -->
      <g transform="translate(34.696875 222.216559)scale(0.1 -0.1)">
       <use xlink:href="#DejaVuSans-31"/>
       <use x="63.623047" xlink:href="#DejaVuSans-2e"/>
       <use x="95.410156" xlink:href="#DejaVuSans-30"/>
      </g>
     </g>
    </g>
    <g id="ytick_4">
     <g id="line2d_9">
      <g>
       <use style="stroke:#000000;stroke-width:0.8;" x="57.6" xlink:href="#m6af633982f" y="175.886551"/>
      </g>
     </g>
     <g id="text_10">
      <!-- 1.5 -->
      <g transform="translate(34.696875 179.685769)scale(0.1 -0.1)">
       <use xlink:href="#DejaVuSans-31"/>
       <use x="63.623047" xlink:href="#DejaVuSans-2e"/>
       <use x="95.410156" xlink:href="#DejaVuSans-35"/>
      </g>
     </g>
    </g>
    <g id="ytick_5">
     <g id="line2d_10">
      <g>
       <use style="stroke:#000000;stroke-width:0.8;" x="57.6" xlink:href="#m6af633982f" y="133.355761"/>
      </g>
     </g>
     <g id="text_11">
      <!-- 2.0 -->
      <g transform="translate(34.696875 137.15498)scale(0.1 -0.1)">
       <use xlink:href="#DejaVuSans-32"/>
       <use x="63.623047" xlink:href="#DejaVuSans-2e"/>
       <use x="95.410156" xlink:href="#DejaVuSans-30"/>
      </g>
     </g>
    </g>
    <g id="ytick_6">
     <g id="line2d_11">
      <g>
       <use style="stroke:#000000;stroke-width:0.8;" x="57.6" xlink:href="#m6af633982f" y="90.824972"/>
      </g>
     </g>
     <g id="text_12">
      <!-- 2.5 -->
      <g transform="translate(34.696875 94.62419)scale(0.1 -0.1)">
       <use xlink:href="#DejaVuSans-32"/>
       <use x="63.623047" xlink:href="#DejaVuSans-2e"/>
       <use x="95.410156" xlink:href="#DejaVuSans-35"/>
      </g>
     </g>
    </g>
    <g id="ytick_7">
     <g id="line2d_12">
      <g>
       <use style="stroke:#000000;stroke-width:0.8;" x="57.6" xlink:href="#m6af633982f" y="48.294182"/>
      </g>
     </g>
     <g id="text_13">
      <!-- 3.0 -->
      <g transform="translate(34.696875 52.093401)scale(0.1 -0.1)">
       <use xlink:href="#DejaVuSans-33"/>
       <use x="63.623047" xlink:href="#DejaVuSans-2e"/>
       <use x="95.410156" xlink:href="#DejaVuSans-30"/>
      </g>
     </g>
    </g>
    <g id="text_14">
     <!-- Surface Roughness ($\mu m$) -->
     <defs>
      <path d="M 53.515625 70.515625 
L 53.515625 60.890625 
Q 47.90625 63.578125 42.921875 64.890625 
Q 37.9375 66.21875 33.296875 66.21875 
Q 25.25 66.21875 20.875 63.09375 
Q 16.5 59.96875 16.5 54.203125 
Q 16.5 49.359375 19.40625 46.890625 
Q 22.3125 44.4375 30.421875 42.921875 
L 36.375 41.703125 
Q 47.40625 39.59375 52.65625 34.296875 
Q 57.90625 29 57.90625 20.125 
Q 57.90625 9.515625 50.796875 4.046875 
Q 43.703125 -1.421875 29.984375 -1.421875 
Q 24.8125 -1.421875 18.96875 -0.25 
Q 13.140625 0.921875 6.890625 3.21875 
L 6.890625 13.375 
Q 12.890625 10.015625 18.65625 8.296875 
Q 24.421875 6.59375 29.984375 6.59375 
Q 38.421875 6.59375 43.015625 9.90625 
Q 47.609375 13.234375 47.609375 19.390625 
Q 47.609375 24.75 44.3125 27.78125 
Q 41.015625 30.8125 33.5 32.328125 
L 27.484375 33.5 
Q 16.453125 35.6875 11.515625 40.375 
Q 6.59375 45.0625 6.59375 53.421875 
Q 6.59375 63.09375 13.40625 68.65625 
Q 20.21875 74.21875 32.171875 74.21875 
Q 37.3125 74.21875 42.625 73.28125 
Q 47.953125 72.359375 53.515625 70.515625 
z
" id="DejaVuSans-53"/>
      <path d="M 41.109375 46.296875 
Q 39.59375 47.171875 37.8125 47.578125 
Q 36.03125 48 33.890625 48 
Q 26.265625 48 22.1875 43.046875 
Q 18.109375 38.09375 18.109375 28.8125 
L 18.109375 0 
L 9.078125 0 
L 9.078125 54.6875 
L 18.109375 54.6875 
L 18.109375 46.1875 
Q 20.953125 51.171875 25.484375 53.578125 
Q 30.03125 56 36.53125 56 
Q 37.453125 56 38.578125 55.875 
Q 39.703125 55.765625 41.0625 55.515625 
z
" id="DejaVuSans-72"/>
      <path d="M 37.109375 75.984375 
L 37.109375 68.5 
L 28.515625 68.5 
Q 23.6875 68.5 21.796875 66.546875 
Q 19.921875 64.59375 19.921875 59.515625 
L 19.921875 54.6875 
L 34.71875 54.6875 
L 34.71875 47.703125 
L 19.921875 47.703125 
L 19.921875 0 
L 10.890625 0 
L 10.890625 47.703125 
L 2.296875 47.703125 
L 2.296875 54.6875 
L 10.890625 54.6875 
L 10.890625 58.5 
Q 10.890625 67.625 15.140625 71.796875 
Q 19.390625 75.984375 28.609375 75.984375 
z
" id="DejaVuSans-66"/>
      <path d="M 34.28125 27.484375 
Q 23.390625 27.484375 19.1875 25 
Q 14.984375 22.515625 14.984375 16.5 
Q 14.984375 11.71875 18.140625 8.90625 
Q 21.296875 6.109375 26.703125 6.109375 
Q 34.1875 6.109375 38.703125 11.40625 
Q 43.21875 16.703125 43.21875 25.484375 
L 43.21875 27.484375 
z
M 52.203125 31.203125 
L 52.203125 0 
L 43.21875 0 
L 43.21875 8.296875 
Q 40.140625 3.328125 35.546875 0.953125 
Q 30.953125 -1.421875 24.3125 -1.421875 
Q 15.921875 -1.421875 10.953125 3.296875 
Q 6 8.015625 6 15.921875 
Q 6 25.140625 12.171875 29.828125 
Q 18.359375 34.515625 30.609375 34.515625 
L 43.21875 34.515625 
L 43.21875 35.40625 
Q 43.21875 41.609375 39.140625 45 
Q 35.0625 48.390625 27.6875 48.390625 
Q 23 48.390625 18.546875 47.265625 
Q 14.109375 46.140625 10.015625 43.890625 
L 10.015625 52.203125 
Q 14.9375 54.109375 19.578125 55.046875 
Q 24.21875 56 28.609375 56 
Q 40.484375 56 46.34375 49.84375 
Q 52.203125 43.703125 52.203125 31.203125 
z
" id="DejaVuSans-61"/>
      <path d="M 48.78125 52.59375 
L 48.78125 44.1875 
Q 44.96875 46.296875 41.140625 47.34375 
Q 37.3125 48.390625 33.40625 48.390625 
Q 24.65625 48.390625 19.8125 42.84375 
Q 14.984375 37.3125 14.984375 27.296875 
Q 14.984375 17.28125 19.8125 11.734375 
Q 24.65625 6.203125 33.40625 6.203125 
Q 37.3125 6.203125 41.140625 7.25 
Q 44.96875 8.296875 48.78125 10.40625 
L 48.78125 2.09375 
Q 45.015625 0.34375 40.984375 -0.53125 
Q 36.96875 -1.421875 32.421875 -1.421875 
Q 20.0625 -1.421875 12.78125 6.34375 
Q 5.515625 14.109375 5.515625 27.296875 
Q 5.515625 40.671875 12.859375 48.328125 
Q 20.21875 56 33.015625 56 
Q 37.15625 56 41.109375 55.140625 
Q 45.0625 54.296875 48.78125 52.59375 
z
" id="DejaVuSans-63"/>
      <path d="M 56.203125 29.59375 
L 56.203125 25.203125 
L 14.890625 25.203125 
Q 15.484375 15.921875 20.484375 11.0625 
Q 25.484375 6.203125 34.421875 6.203125 
Q 39.59375 6.203125 44.453125 7.46875 
Q 49.3125 8.734375 54.109375 11.28125 
L 54.109375 2.78125 
Q 49.265625 0.734375 44.1875 -0.34375 
Q 39.109375 -1.421875 33.890625 -1.421875 
Q 20.796875 -1.421875 13.15625 6.1875 
Q 5.515625 13.8125 5.515625 26.8125 
Q 5.515625 40.234375 12.765625 48.109375 
Q 20.015625 56 32.328125 56 
Q 43.359375 56 49.78125 48.890625 
Q 56.203125 41.796875 56.203125 29.59375 
z
M 47.21875 32.234375 
Q 47.125 39.59375 43.09375 43.984375 
Q 39.0625 48.390625 32.421875 48.390625 
Q 24.90625 48.390625 20.390625 44.140625 
Q 15.875 39.890625 15.1875 32.171875 
z
" id="DejaVuSans-65"/>
      <path id="DejaVuSans-20"/>
      <path d="M 30.609375 48.390625 
Q 23.390625 48.390625 19.1875 42.75 
Q 14.984375 37.109375 14.984375 27.296875 
Q 14.984375 17.484375 19.15625 11.84375 
Q 23.34375 6.203125 30.609375 6.203125 
Q 37.796875 6.203125 41.984375 11.859375 
Q 46.1875 17.53125 46.1875 27.296875 
Q 46.1875 37.015625 41.984375 42.703125 
Q 37.796875 48.390625 30.609375 48.390625 
z
M 30.609375 56 
Q 42.328125 56 49.015625 48.375 
Q 55.71875 40.765625 55.71875 27.296875 
Q 55.71875 13.875 49.015625 6.21875 
Q 42.328125 -1.421875 30.609375 -1.421875 
Q 18.84375 -1.421875 12.171875 6.21875 
Q 5.515625 13.875 5.515625 27.296875 
Q 5.515625 40.765625 12.171875 48.375 
Q 18.84375 56 30.609375 56 
z
" id="DejaVuSans-6f"/>
      <path d="M 45.40625 27.984375 
Q 45.40625 37.75 41.375 43.109375 
Q 37.359375 48.484375 30.078125 48.484375 
Q 22.859375 48.484375 18.828125 43.109375 
Q 14.796875 37.75 14.796875 27.984375 
Q 14.796875 18.265625 18.828125 12.890625 
Q 22.859375 7.515625 30.078125 7.515625 
Q 37.359375 7.515625 41.375 12.890625 
Q 45.40625 18.265625 45.40625 27.984375 
z
M 54.390625 6.78125 
Q 54.390625 -7.171875 48.1875 -13.984375 
Q 42 -20.796875 29.203125 -20.796875 
Q 24.46875 -20.796875 20.265625 -20.09375 
Q 16.0625 -19.390625 12.109375 -17.921875 
L 12.109375 -9.1875 
Q 16.0625 -11.328125 19.921875 -12.34375 
Q 23.78125 -13.375 27.78125 -13.375 
Q 36.625 -13.375 41.015625 -8.765625 
Q 45.40625 -4.15625 45.40625 5.171875 
L 45.40625 9.625 
Q 42.625 4.78125 38.28125 2.390625 
Q 33.9375 0 27.875 0 
Q 17.828125 0 11.671875 7.65625 
Q 5.515625 15.328125 5.515625 27.984375 
Q 5.515625 40.671875 11.671875 48.328125 
Q 17.828125 56 27.875 56 
Q 33.9375 56 38.28125 53.609375 
Q 42.625 51.21875 45.40625 46.390625 
L 45.40625 54.6875 
L 54.390625 54.6875 
z
" id="DejaVuSans-67"/>
      <path d="M 54.890625 33.015625 
L 54.890625 0 
L 45.90625 0 
L 45.90625 32.71875 
Q 45.90625 40.484375 42.875 44.328125 
Q 39.84375 48.1875 33.796875 48.1875 
Q 26.515625 48.1875 22.3125 43.546875 
Q 18.109375 38.921875 18.109375 30.90625 
L 18.109375 0 
L 9.078125 0 
L 9.078125 75.984375 
L 18.109375 75.984375 
L 18.109375 46.1875 
Q 21.34375 51.125 25.703125 53.5625 
Q 30.078125 56 35.796875 56 
Q 45.21875 56 50.046875 50.171875 
Q 54.890625 44.34375 54.890625 33.015625 
z
" id="DejaVuSans-68"/>
      <path d="M 44.28125 53.078125 
L 44.28125 44.578125 
Q 40.484375 46.53125 36.375 47.5 
Q 32.28125 48.484375 27.875 48.484375 
Q 21.1875 48.484375 17.84375 46.4375 
Q 14.5 44.390625 14.5 40.28125 
Q 14.5 37.15625 16.890625 35.375 
Q 19.28125 33.59375 26.515625 31.984375 
L 29.59375 31.296875 
Q 39.15625 29.25 43.1875 25.515625 
Q 47.21875 21.78125 47.21875 15.09375 
Q 47.21875 7.46875 41.1875 3.015625 
Q 35.15625 -1.421875 24.609375 -1.421875 
Q 20.21875 -1.421875 15.453125 -0.5625 
Q 10.6875 0.296875 5.421875 2 
L 5.421875 11.28125 
Q 10.40625 8.6875 15.234375 7.390625 
Q 20.0625 6.109375 24.8125 6.109375 
Q 31.15625 6.109375 34.5625 8.28125 
Q 37.984375 10.453125 37.984375 14.40625 
Q 37.984375 18.0625 35.515625 20.015625 
Q 33.0625 21.96875 24.703125 23.78125 
L 21.578125 24.515625 
Q 13.234375 26.265625 9.515625 29.90625 
Q 5.8125 33.546875 5.8125 39.890625 
Q 5.8125 47.609375 11.28125 51.796875 
Q 16.75 56 26.8125 56 
Q 31.78125 56 36.171875 55.265625 
Q 40.578125 54.546875 44.28125 53.078125 
z
" id="DejaVuSans-73"/>
      <path d="M 31 75.875 
Q 24.46875 64.65625 21.28125 53.65625 
Q 18.109375 42.671875 18.109375 31.390625 
Q 18.109375 20.125 21.3125 9.0625 
Q 24.515625 -2 31 -13.1875 
L 23.1875 -13.1875 
Q 15.875 -1.703125 12.234375 9.375 
Q 8.59375 20.453125 8.59375 31.390625 
Q 8.59375 42.28125 12.203125 53.3125 
Q 15.828125 64.359375 23.1875 75.875 
z
" id="DejaVuSans-28"/>
      <path d="M -1.3125 -20.796875 
L 13.375 54.6875 
L 22.40625 54.6875 
L 15.765625 20.65625 
Q 15.578125 19.625 15.421875 18.359375 
Q 15.28125 17.09375 15.28125 15.828125 
Q 15.28125 11.28125 18.140625 8.828125 
Q 21 6.390625 26.3125 6.390625 
Q 33.546875 6.390625 37.984375 10.484375 
Q 42.4375 14.59375 44 22.796875 
L 50.203125 54.6875 
L 59.1875 54.6875 
L 51.03125 12.640625 
Q 50.828125 11.71875 50.75 11.03125 
Q 50.6875 10.359375 50.6875 9.8125 
Q 50.6875 8.296875 51.296875 7.59375 
Q 51.90625 6.890625 53.21875 6.890625 
Q 53.71875 6.890625 54.5625 7.125 
Q 55.421875 7.375 56.984375 8.015625 
L 55.609375 0.78125 
Q 53.46875 -0.296875 51.515625 -0.859375 
Q 49.5625 -1.421875 47.703125 -1.421875 
Q 44.484375 -1.421875 42.65625 0.625 
Q 40.828125 2.6875 40.828125 6.296875 
Q 38.09375 2.390625 34.296875 0.484375 
Q 30.515625 -1.421875 25.390625 -1.421875 
Q 20.84375 -1.421875 17.453125 0.671875 
Q 14.0625 2.78125 12.984375 6.203125 
L 7.71875 -20.796875 
z
" id="DejaVuSans-Oblique-3bc"/>
      <path d="M 89.796875 33.015625 
L 83.40625 0 
L 74.421875 0 
L 80.71875 32.71875 
Q 81.109375 34.8125 81.296875 36.328125 
Q 81.5 37.84375 81.5 38.921875 
Q 81.5 43.3125 79.046875 45.75 
Q 76.609375 48.1875 72.21875 48.1875 
Q 65.671875 48.1875 60.546875 43.28125 
Q 55.421875 38.375 53.90625 30.515625 
L 47.90625 0 
L 38.921875 0 
L 45.3125 32.71875 
Q 45.703125 34.515625 45.890625 36.046875 
Q 46.09375 37.59375 46.09375 38.8125 
Q 46.09375 43.265625 43.65625 45.71875 
Q 41.21875 48.1875 36.921875 48.1875 
Q 30.28125 48.1875 25.140625 43.28125 
Q 20.015625 38.375 18.5 30.515625 
L 12.5 0 
L 3.515625 0 
L 14.203125 54.6875 
L 23.1875 54.6875 
L 21.484375 46.1875 
Q 25.140625 50.984375 30.046875 53.484375 
Q 34.96875 56 40.578125 56 
Q 46.53125 56 50.359375 52.875 
Q 54.203125 49.75 54.984375 44.1875 
Q 59.078125 49.953125 64.46875 52.96875 
Q 69.875 56 75.875 56 
Q 82.90625 56 86.734375 51.953125 
Q 90.578125 47.90625 90.578125 40.484375 
Q 90.578125 38.875 90.375 36.9375 
Q 90.1875 35.015625 89.796875 33.015625 
z
" id="DejaVuSans-Oblique-6d"/>
      <path d="M 8.015625 75.875 
L 15.828125 75.875 
Q 23.140625 64.359375 26.78125 53.3125 
Q 30.421875 42.28125 30.421875 31.390625 
Q 30.421875 20.453125 26.78125 9.375 
Q 23.140625 -1.703125 15.828125 -13.1875 
L 8.015625 -13.1875 
Q 14.5 -2 17.703125 9.0625 
Q 20.90625 20.125 20.90625 31.390625 
Q 20.90625 42.671875 17.703125 53.65625 
Q 14.5 64.65625 8.015625 75.875 
z
" id="DejaVuSans-29"/>
     </defs>
     <g transform="translate(28.596875 236.228)rotate(-90)scale(0.1 -0.1)">
      <use transform="translate(0 0.015625)" xlink:href="#DejaVuSans-53"/>
      <use transform="translate(63.476562 0.015625)" xlink:href="#DejaVuSans-75"/>
      <use transform="translate(126.855469 0.015625)" xlink:href="#DejaVuSans-72"/>
      <use transform="translate(167.96875 0.015625)" xlink:href="#DejaVuSans-66"/>
      <use transform="translate(203.173828 0.015625)" xlink:href="#DejaVuSans-61"/>
      <use transform="translate(264.453125 0.015625)" xlink:href="#DejaVuSans-63"/>
      <use transform="translate(319.433594 0.015625)" xlink:href="#DejaVuSans-65"/>
      <use transform="translate(380.957031 0.015625)" xlink:href="#DejaVuSans-20"/>
      <use transform="translate(412.744141 0.015625)" xlink:href="#DejaVuSans-52"/>
      <use transform="translate(482.226562 0.015625)" xlink:href="#DejaVuSans-6f"/>
      <use transform="translate(543.408203 0.015625)" xlink:href="#DejaVuSans-75"/>
      <use transform="translate(606.787109 0.015625)" xlink:href="#DejaVuSans-67"/>
      <use transform="translate(670.263672 0.015625)" xlink:href="#DejaVuSans-68"/>
      <use transform="translate(733.642578 0.015625)" xlink:href="#DejaVuSans-6e"/>
      <use transform="translate(797.021484 0.015625)" xlink:href="#DejaVuSans-65"/>
      <use transform="translate(858.544922 0.015625)" xlink:href="#DejaVuSans-73"/>
      <use transform="translate(910.644531 0.015625)" xlink:href="#DejaVuSans-73"/>
      <use transform="translate(962.744141 0.015625)" xlink:href="#DejaVuSans-20"/>
      <use transform="translate(994.53125 0.015625)" xlink:href="#DejaVuSans-28"/>
      <use transform="translate(1033.544922 0.015625)" xlink:href="#DejaVuSans-Oblique-3bc"/>
      <use transform="translate(1097.167969 0.015625)" xlink:href="#DejaVuSans-Oblique-6d"/>
      <use transform="translate(1194.580078 0.015625)" xlink:href="#DejaVuSans-29"/>
     </g>
    </g>
   </g>
   <g id="line2d_13">
    <path clip-path="url(#pd23fc778c8)" d="M 73.832727 291.88219 
L 74.554182 288.536435 
L 75.275636 289.131866 
L 75.997091 201.405024 
L 76.718545 209.712705 
L 77.44 156.520864 
L 78.161455 234.238794 
L 78.882909 190.006773 
L 79.604364 203.87181 
L 80.325818 197.690669 
L 81.047273 172.342318 
L 81.768727 165.367269 
L 82.490182 214.30603 
L 83.211636 226.441482 
L 83.933091 228.738145 
L 84.654545 241.865982 
L 85.376 261.401791 
L 86.097455 199.7605 
L 86.818909 225.61922 
L 87.540364 232.339085 
L 88.261818 236.648872 
L 88.983273 226.328067 
L 89.704727 230.893038 
L 90.426182 218.077094 
L 91.147636 198.739761 
L 91.869091 217.481663 
L 92.590545 181.330492 
L 93.312 284.538541 
L 94.033455 221.196018 
L 94.754909 224.768605 
L 95.476364 265.484747 
L 96.197818 270.276549 
L 96.919273 265.484747 
L 97.640727 270.560088 
L 98.362182 212.576445 
L 99.083636 244.899845 
L 99.805091 53.568 
L 100.526545 101.117423 
L 101.248 82.687414 
L 101.969455 134.716746 
L 102.690909 119.207185 
L 103.412364 122.269402 
L 104.133818 163.977929 
L 104.855273 87.87617 
L 105.576727 93.09328 
L 106.298182 140.217395 
L 107.019636 112.912628 
L 107.741091 108.999796 
L 108.462545 260.295991 
L 109.184 195.705898 
L 109.905455 173.051165 
L 110.626909 177.871321 
L 111.348364 221.082603 
L 112.069818 214.986523 
L 112.791273 256.184681 
L 113.512727 232.821101 
L 114.234182 257.120358 
L 114.955636 253.632834 
L 115.677091 253.746249 
L 116.398545 210.903567 
L 117.12 238.293396 
L 117.841455 255.872789 
L 118.562909 241.327259 
L 119.284364 205.374565 
L 120.005818 278.555876 
L 120.727273 235.117763 
L 121.448727 246.26083 
L 122.170182 214.702984 
L 122.891636 164.318176 
L 124.334545 247.706877 
L 125.056 265.768286 
L 125.777455 238.208334 
L 126.498909 237.187595 
L 127.220364 200.129101 
L 127.941818 244.928199 
L 128.663273 236.166856 
L 129.384727 229.305222 
L 130.106182 237.357718 
L 130.827636 263.925285 
L 131.549091 178.721937 
L 132.270545 203.985225 
L 132.992 244.247706 
L 133.713455 236.93241 
L 134.434909 210.534967 
L 135.156364 194.17479 
L 135.877818 193.210759 
L 136.599273 173.873427 
L 137.320727 250.343786 
L 138.042182 223.124081 
L 138.763636 242.518121 
L 139.485091 241.327259 
L 140.206545 183.5988 
L 140.928 190.375373 
L 141.649455 203.077902 
L 142.370909 218.445694 
L 143.092364 185.696986 
L 143.813818 193.862898 
L 144.535273 229.560407 
L 145.256727 224.938728 
L 145.978182 164.034637 
L 146.699636 197.520545 
L 147.421091 219.835033 
L 148.142545 259.842329 
L 148.864 183.570447 
L 149.585455 170.102363 
L 150.306909 181.869215 
L 151.028364 233.047932 
L 151.749818 193.324174 
L 152.471273 172.881041 
L 153.192727 209.797767 
L 153.914182 163.580975 
L 154.635636 220.969187 
L 155.357091 207.075796 
L 156.078545 198.399515 
L 156.8 129.017621 
L 157.521455 135.482301 
L 158.242909 174.270381 
L 158.964364 205.998349 
L 159.685818 190.460434 
L 160.407273 129.329513 
L 161.850182 248.273954 
L 162.571636 146.200059 
L 163.293091 214.788046 
L 164.014545 150.226308 
L 164.736 182.606415 
L 165.457455 192.728743 
L 166.178909 210.138013 
L 166.900364 169.109978 
L 167.621818 174.41215 
L 168.343273 164.941961 
L 169.064727 157.144649 
L 169.786182 163.83616 
L 170.507636 158.760819 
L 171.229091 150.991862 
L 171.950545 138.204271 
L 172.672 196.15956 
L 173.393455 155.159879 
L 174.114909 193.579359 
L 174.836364 166.898377 
L 175.557818 176.538689 
L 176.279273 165.423976 
L 177.000727 165.679161 
L 177.722182 192.615328 
L 179.165091 157.484896 
L 179.886545 184.080816 
L 180.608 189.156157 
L 181.329455 171.803595 
L 182.050909 209.911182 
L 182.772364 107.553749 
L 183.493818 136.503039 
L 184.936727 176.510335 
L 185.658182 155.75531 
L 186.379636 83.793214 
L 187.101091 70.155008 
L 187.822545 98.877468 
L 188.544 109.169919 
L 189.265455 99.983268 
L 190.708364 188.787557 
L 191.429818 163.070606 
L 192.151273 163.694391 
L 192.872727 173.277995 
L 193.594182 159.327897 
L 194.315636 218.190509 
L 195.037091 179.515845 
L 195.758545 89.662463 
L 196.48 166.558131 
L 197.201455 269.085687 
L 197.922909 230.042422 
L 198.644364 254.766988 
L 199.365818 256.439866 
L 200.087273 249.379755 
L 200.808727 226.072882 
L 201.530182 259.984098 
L 202.251636 279.236369 
L 203.694545 289.216928 
L 204.416 285.672695 
L 205.137455 242.574828 
L 205.858909 264.265531 
L 206.580364 258.679821 
L 207.301818 262.195699 
L 208.023273 264.889316 
L 208.744727 266.703963 
L 209.466182 257.006943 
L 210.187636 261.31673 
L 210.909091 283.43274 
L 211.630545 208.209951 
L 212.352 166.870023 
L 213.073455 183.882339 
L 213.794909 169.138332 
L 214.516364 157.428188 
L 215.237818 239.569319 
L 215.959273 233.33147 
L 216.680727 248.075477 
L 217.402182 200.299224 
L 218.123636 258.141097 
L 218.845091 258.396282 
L 219.566545 231.743654 
L 220.288 234.182086 
L 221.009455 204.637364 
L 221.730909 197.719022 
L 222.452364 194.231498 
L 223.173818 176.708812 
L 223.895273 240.67512 
L 224.616727 261.033191 
L 225.338182 212.264552 
L 226.059636 250.854155 
L 227.502545 232.736039 
L 228.224 252.810572 
L 228.945455 164.828545 
L 229.666909 259.70056 
L 230.388364 262.479238 
L 231.109818 246.969677 
L 231.831273 216.829524 
L 232.552727 243.056844 
L 233.274182 218.587463 
L 233.995636 214.646277 
L 234.717091 234.607394 
L 235.438545 248.869385 
L 236.16 165.08373 
L 236.881455 215.355123 
L 237.602909 249.663293 
L 238.324364 245.098322 
L 239.045818 203.616625 
L 239.767273 229.220161 
L 240.488727 227.802468 
L 241.210182 231.233285 
L 241.931636 208.748674 
L 242.653091 200.384285 
L 243.374545 203.815102 
L 244.096 239.172365 
L 244.817455 221.196018 
L 245.538909 238.54858 
L 246.260364 168.202655 
L 246.981818 200.554408 
L 248.424727 233.33147 
L 249.146182 223.039019 
L 249.867636 178.495106 
L 251.310545 178.38169 
L 252.753455 240.873597 
L 254.196364 239.370842 
L 254.917818 252.328556 
L 256.360727 205.941642 
L 257.082182 217.878617 
L 257.803636 211.782537 
L 258.525091 231.630239 
L 259.246545 192.133312 
L 259.968 219.494787 
L 260.689455 257.120358 
L 261.410909 223.152435 
L 262.132364 217.510017 
L 262.853818 194.968698 
L 263.575273 234.635748 
L 264.296727 185.838755 
L 265.018182 224.995435 
L 265.739636 205.913288 
L 266.461091 265.087793 
L 267.182545 180.87683 
L 267.904 149.971123 
L 268.625455 225.61922 
L 269.346909 123.460264 
L 270.068364 189.836649 
L 270.789818 225.222266 
L 271.511273 220.940834 
L 272.232727 257.71579 
L 272.954182 241.78092 
L 273.675636 255.901142 
L 274.397091 209.854474 
L 275.118545 245.495276 
L 275.84 245.52363 
L 276.561455 152.664739 
L 277.282909 217.453309 
L 278.004364 221.763095 
L 278.725818 255.050527 
L 279.447273 223.691158 
L 280.168727 229.532053 
L 280.890182 243.368737 
L 281.611636 239.229073 
L 282.333091 272.147904 
L 283.054545 205.884934 
L 283.776 193.749482 
L 284.497455 255.901142 
L 285.218909 248.302308 
L 285.940364 248.047123 
L 286.661818 265.910055 
L 287.383273 172.512441 
L 288.104727 255.135588 
L 288.826182 257.94262 
L 289.547636 225.675928 
L 290.269091 262.706069 
L 290.990545 266.221947 
L 291.712 240.476643 
L 292.433455 256.269743 
L 293.154909 258.623113 
L 293.876364 276.797937 
L 294.597818 264.350593 
L 295.319273 223.152435 
L 296.040727 261.940515 
L 296.762182 263.783515 
L 297.483636 271.325642 
L 298.205091 269.567703 
L 298.926545 213.625538 
L 299.648 263.6701 
L 300.369455 270.333257 
L 301.090909 272.686627 
L 301.812364 264.974378 
L 302.533818 269.114041 
L 303.255273 278.385753 
L 303.976727 246.204122 
L 304.698182 256.950235 
L 305.419636 183.939047 
L 306.141091 247.394985 
L 306.862545 277.421722 
L 307.584 216.574339 
L 308.305455 277.393368 
L 309.026909 224.258235 
L 309.748364 278.640938 
L 310.469818 262.42253 
L 311.191273 273.905843 
L 311.912727 281.901632 
L 312.634182 144.95249 
L 313.355636 262.592653 
L 314.077091 218.133801 
L 314.798545 271.779304 
L 315.52 242.206228 
L 316.241455 175.177704 
L 316.962909 274.047613 
L 317.684364 187.483279 
L 318.405818 273.679012 
L 319.127273 279.434846 
L 319.848727 273.111935 
L 320.570182 164.601714 
L 321.291636 264.152116 
L 322.734545 245.835522 
L 323.456 185.016493 
L 324.177455 234.380563 
L 324.898909 265.172855 
L 325.620364 261.345084 
L 326.341818 269.284164 
L 327.063273 267.044209 
L 327.784727 200.923009 
L 328.506182 205.601395 
L 329.227636 234.94764 
L 329.949091 257.375543 
L 330.670545 205.941642 
L 331.392 228.256129 
L 332.113455 182.691477 
L 332.834909 255.645958 
L 333.556364 247.905354 
L 334.277818 156.26568 
L 334.999273 242.943429 
L 335.720727 151.78577 
L 336.442182 219.126187 
L 337.163636 261.600268 
L 337.885091 242.971782 
L 338.606545 246.544369 
L 339.328 215.383477 
L 340.049455 197.350422 
L 340.770909 260.324345 
L 341.492364 169.56364 
L 342.213818 235.854964 
L 342.935273 259.161836 
L 343.656727 229.673822 
L 344.378182 237.017472 
L 345.099636 239.767796 
L 345.821091 203.418148 
L 346.542545 191.339404 
L 347.264 187.908587 
L 347.985455 209.684351 
L 348.706909 101.3159 
L 349.428364 150.283015 
L 350.149818 101.911331 
L 350.871273 127.968528 
L 351.592727 180.139629 
L 352.314182 89.12374 
L 353.035636 161.511144 
L 353.757091 193.097343 
L 354.478545 135.62407 
L 355.2 191.452819 
L 355.921455 137.070117 
L 356.642909 238.973888 
L 357.364364 150.424785 
L 358.085818 121.220309 
L 358.807273 242.971782 
L 359.528727 88.046293 
L 360.250182 131.399345 
L 360.971636 195.620837 
L 361.693091 116.371799 
L 362.414545 221.479557 
L 363.136 242.830013 
L 363.857455 229.191807 
L 364.578909 122.354464 
L 365.300364 147.986353 
L 366.021818 199.533669 
L 366.743273 123.658741 
L 367.464727 210.988629 
L 368.186182 192.615328 
L 368.907636 227.121975 
L 369.629091 240.419935 
L 370.350545 175.943258 
L 371.072 239.030596 
L 371.793455 220.175279 
L 372.514909 155.925433 
L 373.236364 251.25111 
L 373.957818 202.936133 
L 374.679273 233.019578 
L 376.122182 179.430783 
L 376.843636 243.000136 
L 377.565091 154.054079 
L 378.286545 173.136226 
L 379.008 264.832608 
L 379.729455 201.461732 
L 380.450909 235.628133 
L 381.172364 246.572723 
L 381.893818 280.115339 
L 382.615273 230.552792 
L 383.336727 219.069479 
L 384.058182 233.84184 
L 384.779636 84.530415 
L 385.501091 154.621156 
L 386.222545 170.839564 
L 386.944 121.560555 
L 387.665455 233.444886 
L 388.386909 97.318005 
L 389.108364 189.666526 
L 389.829818 228.511314 
L 390.551273 127.146266 
L 391.272727 232.509208 
L 391.994182 159.327897 
L 392.715636 245.211737 
L 393.437091 131.115806 
L 394.158545 217.850263 
L 394.88 240.334874 
L 395.601455 135.056993 
L 396.322909 142.145458 
L 397.044364 232.906162 
L 397.765818 179.657614 
L 398.487273 246.969677 
L 398.487273 246.969677 
" style="fill:none;stroke:#1f77b4;stroke-linecap:square;stroke-width:1.5;"/>
   </g>
   <g id="line2d_14">
    <path clip-path="url(#pd23fc778c8)" d="M 73.832727 295.488 
L 74.554182 295.328756 
L 75.275636 294.644119 
L 75.997091 203.262601 
L 76.718545 210.098489 
L 77.44 155.227941 
L 78.161455 230.668514 
L 78.882909 189.395374 
L 79.604364 203.390853 
L 80.325818 198.923325 
L 81.047273 174.853961 
L 81.768727 163.151682 
L 82.490182 214.676271 
L 83.211636 225.728683 
L 83.933091 231.224431 
L 84.654545 234.261263 
L 86.097455 234.245206 
L 87.540364 234.243807 
L 88.261818 236.686144 
L 88.983273 217.663391 
L 89.704727 222.412693 
L 90.426182 221.229142 
L 91.147636 221.528175 
L 91.869091 220.112009 
L 92.590545 222.475354 
L 93.312 219.555088 
L 94.033455 218.273016 
L 94.754909 220.785289 
L 95.476364 263.250228 
L 96.197818 267.703989 
L 96.919273 254.993348 
L 97.640727 265.454429 
L 98.362182 208.371655 
L 99.083636 244.920249 
L 99.805091 54.139339 
L 100.526545 101.09084 
L 101.248 77.80549 
L 101.969455 132.81588 
L 102.690909 117.227458 
L 103.412364 116.507549 
L 104.133818 164.809513 
L 104.855273 83.183187 
L 105.576727 95.370001 
L 106.298182 142.108093 
L 107.019636 107.174512 
L 107.741091 110.702406 
L 108.462545 219.688507 
L 109.184 220.615959 
L 109.905455 218.510477 
L 110.626909 219.313773 
L 111.348364 221.225624 
L 112.791273 219.299744 
L 113.512727 223.584456 
L 114.234182 248.650098 
L 114.955636 257.982015 
L 115.677091 251.770967 
L 116.398545 212.148833 
L 117.12 223.172514 
L 117.841455 260.923023 
L 118.562909 251.579288 
L 119.284364 206.181346 
L 120.005818 271.774247 
L 120.727273 241.022089 
L 121.448727 246.293973 
L 122.170182 223.629266 
L 122.891636 166.713363 
L 123.613091 204.718267 
L 124.334545 250.354806 
L 125.056 267.692011 
L 125.777455 238.843999 
L 126.498909 235.869691 
L 127.220364 200.115236 
L 127.941818 240.74177 
L 128.663273 240.043779 
L 129.384727 227.241809 
L 130.106182 237.461473 
L 130.827636 268.730421 
L 131.549091 175.534769 
L 132.270545 228.821149 
L 132.992 231.85027 
L 133.713455 236.657407 
L 134.434909 215.293622 
L 135.156364 189.69972 
L 135.877818 215.540879 
L 136.599273 172.873025 
L 137.320727 249.65823 
L 138.042182 243.028506 
L 138.763636 240.576242 
L 139.485091 239.0677 
L 140.206545 187.014025 
L 140.928 188.635067 
L 141.649455 196.542706 
L 142.370909 229.701951 
L 143.092364 194.375091 
L 143.813818 189.239987 
L 144.535273 227.017996 
L 145.256727 222.67803 
L 145.978182 164.38525 
L 146.699636 194.528511 
L 147.421091 214.699978 
L 148.142545 262.665548 
L 148.864 176.828264 
L 149.585455 167.090413 
L 150.306909 176.037233 
L 151.028364 235.269086 
L 151.749818 196.943403 
L 152.471273 171.406884 
L 153.192727 205.408151 
L 153.914182 170.202379 
L 154.635636 219.307507 
L 155.357091 203.811314 
L 156.078545 192.05221 
L 156.8 126.518129 
L 157.521455 131.578865 
L 158.242909 182.354534 
L 158.964364 202.835042 
L 159.685818 189.717384 
L 160.407273 126.547536 
L 161.850182 251.209193 
L 162.571636 149.033092 
L 163.293091 216.361733 
L 164.014545 147.947956 
L 164.736 178.718081 
L 166.178909 205.885589 
L 166.900364 166.223817 
L 167.621818 178.780118 
L 168.343273 163.900916 
L 169.064727 155.831806 
L 169.786182 162.928437 
L 171.229091 152.869874 
L 171.950545 129.49588 
L 172.672 201.200534 
L 173.393455 154.837627 
L 174.114909 188.165681 
L 174.836364 168.265533 
L 175.557818 173.849926 
L 176.279273 164.12258 
L 177.000727 167.009292 
L 177.722182 194.184396 
L 178.443636 170.130789 
L 179.165091 159.123698 
L 179.886545 182.555451 
L 180.608 190.647782 
L 181.329455 170.807805 
L 182.050909 211.818528 
L 182.772364 103.2241 
L 184.215273 156.836734 
L 184.936727 173.772232 
L 185.658182 157.294439 
L 186.379636 78.929909 
L 187.101091 65.664793 
L 187.822545 97.232419 
L 188.544 101.378535 
L 189.265455 107.176581 
L 189.986909 152.882509 
L 190.708364 188.433299 
L 191.429818 166.78043 
L 192.151273 161.569234 
L 192.872727 173.093695 
L 193.594182 162.618717 
L 194.315636 219.57258 
L 195.037091 178.504935 
L 195.758545 87.796642 
L 196.48 168.440389 
L 197.201455 269.30671 
L 197.922909 222.993378 
L 198.644364 232.080405 
L 199.365818 257.562005 
L 200.087273 253.506739 
L 200.808727 224.901021 
L 202.251636 277.625161 
L 202.973091 277.482418 
L 203.694545 290.036784 
L 204.416 290.333085 
L 205.137455 239.106522 
L 205.858909 262.751012 
L 206.580364 234.864926 
L 207.301818 265.239739 
L 208.023273 260.36242 
L 208.744727 271.625727 
L 209.466182 256.785662 
L 210.187636 263.92044 
L 210.909091 288.79828 
L 211.630545 219.64638 
L 212.352 168.192848 
L 213.073455 185.341857 
L 213.794909 168.127424 
L 214.516364 157.602009 
L 215.237818 238.579205 
L 215.959273 232.22004 
L 216.680727 253.741939 
L 217.402182 207.392585 
L 218.123636 264.914178 
L 218.845091 263.373352 
L 219.566545 226.463113 
L 220.288 234.517144 
L 221.009455 205.785475 
L 221.730909 201.707379 
L 222.452364 184.05112 
L 223.173818 175.726235 
L 223.895273 241.014626 
L 224.616727 263.199391 
L 225.338182 215.735316 
L 226.059636 252.451501 
L 226.781091 229.703422 
L 227.502545 230.364229 
L 228.224 258.626618 
L 228.945455 162.280544 
L 229.666909 266.361479 
L 230.388364 266.049943 
L 231.109818 253.381944 
L 231.831273 214.586825 
L 232.552727 239.858849 
L 233.274182 221.144863 
L 233.995636 223.441876 
L 234.717091 227.303293 
L 235.438545 246.077821 
L 236.16 165.256327 
L 236.881455 220.450031 
L 237.602909 244.031345 
L 238.324364 242.704088 
L 239.045818 198.523317 
L 239.767273 226.632656 
L 240.488727 212.376226 
L 241.210182 218.663314 
L 241.931636 204.187036 
L 242.653091 207.318399 
L 243.374545 215.909422 
L 244.096 236.16665 
L 244.817455 220.335777 
L 245.538909 232.804456 
L 246.260364 173.103125 
L 246.981818 207.724015 
L 247.703273 211.270495 
L 248.424727 240.853641 
L 249.146182 220.526827 
L 249.867636 182.4823 
L 250.589091 203.347747 
L 251.310545 177.396193 
L 252.032 216.772428 
L 252.753455 247.879773 
L 253.474909 228.542691 
L 254.196364 234.987499 
L 254.917818 251.826829 
L 256.360727 211.023725 
L 257.082182 218.438791 
L 257.803636 232.342046 
L 258.525091 229.514222 
L 259.246545 223.296958 
L 259.968 222.781399 
L 260.689455 259.75638 
L 261.410909 229.876732 
L 262.132364 213.93163 
L 262.853818 186.116705 
L 263.575273 224.608539 
L 264.296727 185.600532 
L 265.018182 224.309785 
L 265.739636 201.708382 
L 266.461091 271.052942 
L 267.182545 178.09209 
L 267.904 197.683714 
L 268.625455 226.651653 
L 269.346909 120.283308 
L 270.068364 201.259165 
L 270.789818 224.119521 
L 271.511273 215.439103 
L 272.232727 252.038808 
L 272.954182 229.90807 
L 273.675636 237.573537 
L 274.397091 206.492993 
L 275.118545 237.935104 
L 275.84 246.502206 
L 276.561455 161.344549 
L 277.282909 217.561513 
L 278.004364 220.839194 
L 278.725818 258.934817 
L 279.447273 222.907816 
L 280.168727 228.566003 
L 280.890182 241.148288 
L 281.611636 244.509229 
L 282.333091 274.556506 
L 283.054545 200.733865 
L 283.776 197.261479 
L 284.497455 255.700044 
L 285.940364 240.125093 
L 286.661818 236.495246 
L 287.383273 175.444157 
L 288.104727 251.660896 
L 288.826182 262.058187 
L 289.547636 224.650448 
L 290.269091 262.940779 
L 290.990545 264.104144 
L 291.712 239.61765 
L 292.433455 258.260883 
L 293.154909 261.142617 
L 293.876364 275.973146 
L 294.597818 270.937491 
L 295.319273 229.501349 
L 296.040727 265.596827 
L 296.762182 262.402604 
L 297.483636 269.545918 
L 298.205091 271.803933 
L 298.926545 208.672796 
L 299.648 272.186831 
L 300.369455 246.66716 
L 301.090909 270.915568 
L 301.812364 259.507688 
L 302.533818 274.409338 
L 303.976727 240.561022 
L 304.698182 259.466139 
L 305.419636 175.286559 
L 306.141091 253.315927 
L 306.862545 275.207556 
L 307.584 219.857964 
L 308.305455 279.065759 
L 309.026909 265.05489 
L 309.748364 279.98846 
L 310.469818 265.912243 
L 311.191273 275.790621 
L 311.912727 276.931682 
L 312.634182 143.891215 
L 313.355636 258.512739 
L 314.077091 255.07128 
L 314.798545 260.687391 
L 315.52 248.236503 
L 316.241455 172.570424 
L 316.962909 278.887488 
L 317.684364 186.738396 
L 318.405818 272.857571 
L 319.127273 274.504883 
L 319.848727 268.738275 
L 320.570182 165.375089 
L 321.291636 266.383224 
L 322.734545 247.535313 
L 323.456 183.376639 
L 324.177455 230.246015 
L 324.898909 260.735197 
L 325.620364 264.393586 
L 326.341818 267.447857 
L 327.063273 267.003983 
L 327.784727 198.177518 
L 328.506182 243.597444 
L 329.227636 238.466416 
L 329.949091 262.023947 
L 330.670545 209.178312 
L 331.392 225.688843 
L 332.113455 179.885757 
L 332.834909 225.845741 
L 333.556364 253.437396 
L 334.277818 191.829857 
L 334.999273 256.772343 
L 335.720727 121.023598 
L 336.442182 218.645092 
L 337.163636 259.85295 
L 337.885091 255.939584 
L 338.606545 268.076175 
L 339.328 217.81384 
L 340.049455 190.533989 
L 340.770909 252.991838 
L 341.492364 175.239712 
L 342.213818 236.941741 
L 342.935273 261.612267 
L 343.656727 193.672197 
L 344.378182 245.186762 
L 345.099636 244.407939 
L 345.821091 193.549299 
L 346.542545 186.026924 
L 347.264 185.479337 
L 347.985455 178.236404 
L 348.706909 101.961025 
L 349.428364 152.422106 
L 350.149818 97.800834 
L 350.871273 125.19393 
L 351.592727 192.809576 
L 352.314182 97.021362 
L 353.035636 151.856267 
L 353.757091 192.308188 
L 354.478545 132.630539 
L 355.2 186.152135 
L 355.921455 147.477434 
L 356.642909 239.808523 
L 357.364364 151.001494 
L 358.085818 119.891148 
L 358.807273 247.388494 
L 359.528727 84.834203 
L 360.250182 164.332034 
L 360.971636 196.311065 
L 361.693091 158.320235 
L 362.414545 232.068323 
L 363.136 228.157128 
L 363.857455 221.883977 
L 364.578909 239.851811 
L 365.300364 152.002062 
L 366.021818 198.163261 
L 366.743273 126.000557 
L 367.464727 213.165503 
L 368.186182 191.334573 
L 368.907636 231.529771 
L 369.629091 254.53253 
L 370.350545 179.781415 
L 371.072 239.117549 
L 371.793455 225.436835 
L 372.514909 160.096542 
L 373.236364 254.212391 
L 373.957818 204.053602 
L 374.679273 237.448068 
L 375.400727 205.218389 
L 376.122182 180.714044 
L 376.843636 246.558068 
L 377.565091 146.405886 
L 378.286545 171.991321 
L 379.008 269.376205 
L 379.729455 201.873849 
L 380.450909 234.484245 
L 381.172364 248.519929 
L 381.893818 277.847825 
L 382.615273 234.900016 
L 383.336727 228.061826 
L 384.058182 243.69559 
L 384.779636 83.016564 
L 385.501091 154.646912 
L 386.222545 165.371661 
L 386.944 109.111561 
L 387.665455 234.738078 
L 388.386909 92.776054 
L 389.108364 201.251924 
L 389.829818 182.916845 
L 390.551273 118.394729 
L 391.272727 233.144688 
L 391.994182 153.258505 
L 392.715636 253.954502 
L 393.437091 123.870237 
L 394.158545 221.018603 
L 394.88 239.869648 
L 395.601455 140.038249 
L 396.322909 145.990019 
L 397.044364 233.160796 
L 397.765818 172.122108 
L 398.487273 221.481241 
L 398.487273 221.481241 
" style="fill:none;stroke:#ff7f0e;stroke-linecap:square;stroke-width:1.5;"/>
   </g>
   <g id="patch_3">
    <path d="M 57.6 307.584 
L 57.6 41.472 
" style="fill:none;stroke:#000000;stroke-linecap:square;stroke-linejoin:miter;stroke-width:0.8;"/>
   </g>
   <g id="patch_4">
    <path d="M 414.72 307.584 
L 414.72 41.472 
" style="fill:none;stroke:#000000;stroke-linecap:square;stroke-linejoin:miter;stroke-width:0.8;"/>
   </g>
   <g id="patch_5">
    <path d="M 57.6 307.584 
L 414.72 307.584 
" style="fill:none;stroke:#000000;stroke-linecap:square;stroke-linejoin:miter;stroke-width:0.8;"/>
   </g>
   <g id="patch_6">
    <path d="M 57.6 41.472 
L 414.72 41.472 
" style="fill:none;stroke:#000000;stroke-linecap:square;stroke-linejoin:miter;stroke-width:0.8;"/>
   </g>
   <g id="legend_1">
    <g id="patch_7">
     <path d="M 228.937187 78.82825 
L 407.72 78.82825 
Q 409.72 78.82825 409.72 76.82825 
L 409.72 48.472 
Q 409.72 46.472 407.72 46.472 
L 228.937187 46.472 
Q 226.937187 46.472 226.937187 48.472 
L 226.937187 76.82825 
Q 226.937187 78.82825 228.937187 78.82825 
z
" style="fill:#ffffff;opacity:0.8;stroke:#cccccc;stroke-linejoin:miter;"/>
    </g>
    <g id="line2d_15">
     <path d="M 230.937187 54.570437 
L 250.937187 54.570437 
" style="fill:none;stroke:#1f77b4;stroke-linecap:square;stroke-width:1.5;"/>
    </g>
    <g id="line2d_16"/>
    <g id="text_15">
     <!-- Real Surface Roughness -->
     <defs>
      <path d="M 9.421875 75.984375 
L 18.40625 75.984375 
L 18.40625 0 
L 9.421875 0 
z
" id="DejaVuSans-6c"/>
     </defs>
     <g transform="translate(258.937187 58.070437)scale(0.1 -0.1)">
      <use xlink:href="#DejaVuSans-52"/>
      <use x="69.419922" xlink:href="#DejaVuSans-65"/>
      <use x="130.943359" xlink:href="#DejaVuSans-61"/>
      <use x="192.222656" xlink:href="#DejaVuSans-6c"/>
      <use x="220.005859" xlink:href="#DejaVuSans-20"/>
      <use x="251.792969" xlink:href="#DejaVuSans-53"/>
      <use x="315.269531" xlink:href="#DejaVuSans-75"/>
      <use x="378.648438" xlink:href="#DejaVuSans-72"/>
      <use x="419.761719" xlink:href="#DejaVuSans-66"/>
      <use x="454.966797" xlink:href="#DejaVuSans-61"/>
      <use x="516.246094" xlink:href="#DejaVuSans-63"/>
      <use x="571.226562" xlink:href="#DejaVuSans-65"/>
      <use x="632.75" xlink:href="#DejaVuSans-20"/>
      <use x="664.537109" xlink:href="#DejaVuSans-52"/>
      <use x="733.957031" xlink:href="#DejaVuSans-6f"/>
      <use x="795.138672" xlink:href="#DejaVuSans-75"/>
      <use x="858.517578" xlink:href="#DejaVuSans-67"/>
      <use x="921.994141" xlink:href="#DejaVuSans-68"/>
      <use x="985.373047" xlink:href="#DejaVuSans-6e"/>
      <use x="1048.751953" xlink:href="#DejaVuSans-65"/>
      <use x="1110.275391" xlink:href="#DejaVuSans-73"/>
      <use x="1162.375" xlink:href="#DejaVuSans-73"/>
     </g>
    </g>
    <g id="line2d_17">
     <path d="M 230.937187 69.248562 
L 250.937187 69.248562 
" style="fill:none;stroke:#ff7f0e;stroke-linecap:square;stroke-width:1.5;"/>
    </g>
    <g id="line2d_18"/>
    <g id="text_16">
     <!-- Predicted Surface Roughness -->
     <defs>
      <path d="M 19.671875 64.796875 
L 19.671875 37.40625 
L 32.078125 37.40625 
Q 38.96875 37.40625 42.71875 40.96875 
Q 46.484375 44.53125 46.484375 51.125 
Q 46.484375 57.671875 42.71875 61.234375 
Q 38.96875 64.796875 32.078125 64.796875 
z
M 9.8125 72.90625 
L 32.078125 72.90625 
Q 44.34375 72.90625 50.609375 67.359375 
Q 56.890625 61.8125 56.890625 51.125 
Q 56.890625 40.328125 50.609375 34.8125 
Q 44.34375 29.296875 32.078125 29.296875 
L 19.671875 29.296875 
L 19.671875 0 
L 9.8125 0 
z
" id="DejaVuSans-50"/>
      <path d="M 45.40625 46.390625 
L 45.40625 75.984375 
L 54.390625 75.984375 
L 54.390625 0 
L 45.40625 0 
L 45.40625 8.203125 
Q 42.578125 3.328125 38.25 0.953125 
Q 33.9375 -1.421875 27.875 -1.421875 
Q 17.96875 -1.421875 11.734375 6.484375 
Q 5.515625 14.40625 5.515625 27.296875 
Q 5.515625 40.1875 11.734375 48.09375 
Q 17.96875 56 27.875 56 
Q 33.9375 56 38.25 53.625 
Q 42.578125 51.265625 45.40625 46.390625 
z
M 14.796875 27.296875 
Q 14.796875 17.390625 18.875 11.75 
Q 22.953125 6.109375 30.078125 6.109375 
Q 37.203125 6.109375 41.296875 11.75 
Q 45.40625 17.390625 45.40625 27.296875 
Q 45.40625 37.203125 41.296875 42.84375 
Q 37.203125 48.484375 30.078125 48.484375 
Q 22.953125 48.484375 18.875 42.84375 
Q 14.796875 37.203125 14.796875 27.296875 
z
" id="DejaVuSans-64"/>
      <path d="M 9.421875 54.6875 
L 18.40625 54.6875 
L 18.40625 0 
L 9.421875 0 
z
M 9.421875 75.984375 
L 18.40625 75.984375 
L 18.40625 64.59375 
L 9.421875 64.59375 
z
" id="DejaVuSans-69"/>
      <path d="M 18.3125 70.21875 
L 18.3125 54.6875 
L 36.8125 54.6875 
L 36.8125 47.703125 
L 18.3125 47.703125 
L 18.3125 18.015625 
Q 18.3125 11.328125 20.140625 9.421875 
Q 21.96875 7.515625 27.59375 7.515625 
L 36.8125 7.515625 
L 36.8125 0 
L 27.59375 0 
Q 17.1875 0 13.234375 3.875 
Q 9.28125 7.765625 9.28125 18.015625 
L 9.28125 47.703125 
L 2.6875 47.703125 
L 2.6875 54.6875 
L 9.28125 54.6875 
L 9.28125 70.21875 
z
" id="DejaVuSans-74"/>
     </defs>
     <g transform="translate(258.937187 72.748562)scale(0.1 -0.1)">
      <use xlink:href="#DejaVuSans-50"/>
      <use x="60.287109" xlink:href="#DejaVuSans-72"/>
      <use x="101.369141" xlink:href="#DejaVuSans-65"/>
      <use x="162.892578" xlink:href="#DejaVuSans-64"/>
      <use x="226.369141" xlink:href="#DejaVuSans-69"/>
      <use x="254.152344" xlink:href="#DejaVuSans-63"/>
      <use x="309.132812" xlink:href="#DejaVuSans-74"/>
      <use x="348.341797" xlink:href="#DejaVuSans-65"/>
      <use x="409.865234" xlink:href="#DejaVuSans-64"/>
      <use x="473.341797" xlink:href="#DejaVuSans-20"/>
      <use x="505.128906" xlink:href="#DejaVuSans-53"/>
      <use x="568.605469" xlink:href="#DejaVuSans-75"/>
      <use x="631.984375" xlink:href="#DejaVuSans-72"/>
      <use x="673.097656" xlink:href="#DejaVuSans-66"/>
      <use x="708.302734" xlink:href="#DejaVuSans-61"/>
      <use x="769.582031" xlink:href="#DejaVuSans-63"/>
      <use x="824.5625" xlink:href="#DejaVuSans-65"/>
      <use x="886.085938" xlink:href="#DejaVuSans-20"/>
      <use x="917.873047" xlink:href="#DejaVuSans-52"/>
      <use x="987.292969" xlink:href="#DejaVuSans-6f"/>
      <use x="1048.474609" xlink:href="#DejaVuSans-75"/>
      <use x="1111.853516" xlink:href="#DejaVuSans-67"/>
      <use x="1175.330078" xlink:href="#DejaVuSans-68"/>
      <use x="1238.708984" xlink:href="#DejaVuSans-6e"/>
      <use x="1302.087891" xlink:href="#DejaVuSans-65"/>
      <use x="1363.611328" xlink:href="#DejaVuSans-73"/>
      <use x="1415.710938" xlink:href="#DejaVuSans-73"/>
     </g>
    </g>
   </g>
  </g>
 </g>
 <defs>
  <clipPath id="pd23fc778c8">
   <rect height="266.112" width="357.12" x="57.6" y="41.472"/>
  </clipPath>
 </defs>
</svg>
