<?xml version="1.0" encoding="utf-8" standalone="no"?>
<!DOCTYPE svg PUBLIC "-//W3C//DTD SVG 1.1//EN"
  "http://www.w3.org/Graphics/SVG/1.1/DTD/svg11.dtd">
<!-- Created with matplotlib (http://matplotlib.org/) -->
<svg height="345.6pt" version="1.1" viewBox="0 0 460.8 345.6" width="460.8pt" xmlns="http://www.w3.org/2000/svg" xmlns:xlink="http://www.w3.org/1999/xlink">
 <defs>
  <style type="text/css">
*{stroke-linecap:butt;stroke-linejoin:round;}
  </style>
 </defs>
 <g id="figure_1">
  <g id="patch_1">
   <path d="M 0 345.6 
L 460.8 345.6 
L 460.8 0 
L 0 0 
z
" style="fill:#ffffff;"/>
  </g>
  <g id="axes_1">
   <g id="patch_2">
    <path d="M 57.6 307.584 
L 414.72 307.584 
L 414.72 41.472 
L 57.6 41.472 
z
" style="fill:#ffffff;"/>
   </g>
   <g id="matplotlib.axis_1">
    <g id="xtick_1">
     <g id="line2d_1">
      <defs>
       <path d="M 0 0 
L 0 3.5 
" id="m2481d89049" style="stroke:#000000;stroke-width:0.8;"/>
      </defs>
      <g>
       <use style="stroke:#000000;stroke-width:0.8;" x="73.832727" xlink:href="#m2481d89049" y="307.584"/>
      </g>
     </g>
     <g id="text_1">
      <!-- 0 -->
      <defs>
       <path d="M 31.78125 66.40625 
Q 24.171875 66.40625 20.328125 58.90625 
Q 16.5 51.421875 16.5 36.375 
Q 16.5 21.390625 20.328125 13.890625 
Q 24.171875 6.390625 31.78125 6.390625 
Q 39.453125 6.390625 43.28125 13.890625 
Q 47.125 21.390625 47.125 36.375 
Q 47.125 51.421875 43.28125 58.90625 
Q 39.453125 66.40625 31.78125 66.40625 
z
M 31.78125 74.21875 
Q 44.046875 74.21875 50.515625 64.515625 
Q 56.984375 54.828125 56.984375 36.375 
Q 56.984375 17.96875 50.515625 8.265625 
Q 44.046875 -1.421875 31.78125 -1.421875 
Q 19.53125 -1.421875 13.0625 8.265625 
Q 6.59375 17.96875 6.59375 36.375 
Q 6.59375 54.828125 13.0625 64.515625 
Q 19.53125 74.21875 31.78125 74.21875 
z
" id="DejaVuSans-30"/>
      </defs>
      <g transform="translate(70.651477 322.182437)scale(0.1 -0.1)">
       <use xlink:href="#DejaVuSans-30"/>
      </g>
     </g>
    </g>
    <g id="xtick_2">
     <g id="line2d_2">
      <g>
       <use style="stroke:#000000;stroke-width:0.8;" x="145.978182" xlink:href="#m2481d89049" y="307.584"/>
      </g>
     </g>
     <g id="text_2">
      <!-- 100 -->
      <defs>
       <path d="M 12.40625 8.296875 
L 28.515625 8.296875 
L 28.515625 63.921875 
L 10.984375 60.40625 
L 10.984375 69.390625 
L 28.421875 72.90625 
L 38.28125 72.90625 
L 38.28125 8.296875 
L 54.390625 8.296875 
L 54.390625 0 
L 12.40625 0 
z
" id="DejaVuSans-31"/>
      </defs>
      <g transform="translate(136.434432 322.182437)scale(0.1 -0.1)">
       <use xlink:href="#DejaVuSans-31"/>
       <use x="63.623047" xlink:href="#DejaVuSans-30"/>
       <use x="127.246094" xlink:href="#DejaVuSans-30"/>
      </g>
     </g>
    </g>
    <g id="xtick_3">
     <g id="line2d_3">
      <g>
       <use style="stroke:#000000;stroke-width:0.8;" x="218.123636" xlink:href="#m2481d89049" y="307.584"/>
      </g>
     </g>
     <g id="text_3">
      <!-- 200 -->
      <defs>
       <path d="M 19.1875 8.296875 
L 53.609375 8.296875 
L 53.609375 0 
L 7.328125 0 
L 7.328125 8.296875 
Q 12.9375 14.109375 22.625 23.890625 
Q 32.328125 33.6875 34.8125 36.53125 
Q 39.546875 41.84375 41.421875 45.53125 
Q 43.3125 49.21875 43.3125 52.78125 
Q 43.3125 58.59375 39.234375 62.25 
Q 35.15625 65.921875 28.609375 65.921875 
Q 23.96875 65.921875 18.8125 64.3125 
Q 13.671875 62.703125 7.8125 59.421875 
L 7.8125 69.390625 
Q 13.765625 71.78125 18.9375 73 
Q 24.125 74.21875 28.421875 74.21875 
Q 39.75 74.21875 46.484375 68.546875 
Q 53.21875 62.890625 53.21875 53.421875 
Q 53.21875 48.921875 51.53125 44.890625 
Q 49.859375 40.875 45.40625 35.40625 
Q 44.1875 33.984375 37.640625 27.21875 
Q 31.109375 20.453125 19.1875 8.296875 
z
" id="DejaVuSans-32"/>
      </defs>
      <g transform="translate(208.579886 322.182437)scale(0.1 -0.1)">
       <use xlink:href="#DejaVuSans-32"/>
       <use x="63.623047" xlink:href="#DejaVuSans-30"/>
       <use x="127.246094" xlink:href="#DejaVuSans-30"/>
      </g>
     </g>
    </g>
    <g id="xtick_4">
     <g id="line2d_4">
      <g>
       <use style="stroke:#000000;stroke-width:0.8;" x="290.269091" xlink:href="#m2481d89049" y="307.584"/>
      </g>
     </g>
     <g id="text_4">
      <!-- 300 -->
      <defs>
       <path d="M 40.578125 39.3125 
Q 47.65625 37.796875 51.625 33 
Q 55.609375 28.21875 55.609375 21.1875 
Q 55.609375 10.40625 48.1875 4.484375 
Q 40.765625 -1.421875 27.09375 -1.421875 
Q 22.515625 -1.421875 17.65625 -0.515625 
Q 12.796875 0.390625 7.625 2.203125 
L 7.625 11.71875 
Q 11.71875 9.328125 16.59375 8.109375 
Q 21.484375 6.890625 26.8125 6.890625 
Q 36.078125 6.890625 40.9375 10.546875 
Q 45.796875 14.203125 45.796875 21.1875 
Q 45.796875 27.640625 41.28125 31.265625 
Q 36.765625 34.90625 28.71875 34.90625 
L 20.21875 34.90625 
L 20.21875 43.015625 
L 29.109375 43.015625 
Q 36.375 43.015625 40.234375 45.921875 
Q 44.09375 48.828125 44.09375 54.296875 
Q 44.09375 59.90625 40.109375 62.90625 
Q 36.140625 65.921875 28.71875 65.921875 
Q 24.65625 65.921875 20.015625 65.03125 
Q 15.375 64.15625 9.8125 62.3125 
L 9.8125 71.09375 
Q 15.4375 72.65625 20.34375 73.4375 
Q 25.25 74.21875 29.59375 74.21875 
Q 40.828125 74.21875 47.359375 69.109375 
Q 53.90625 64.015625 53.90625 55.328125 
Q 53.90625 49.265625 50.4375 45.09375 
Q 46.96875 40.921875 40.578125 39.3125 
z
" id="DejaVuSans-33"/>
      </defs>
      <g transform="translate(280.725341 322.182437)scale(0.1 -0.1)">
       <use xlink:href="#DejaVuSans-33"/>
       <use x="63.623047" xlink:href="#DejaVuSans-30"/>
       <use x="127.246094" xlink:href="#DejaVuSans-30"/>
      </g>
     </g>
    </g>
    <g id="xtick_5">
     <g id="line2d_5">
      <g>
       <use style="stroke:#000000;stroke-width:0.8;" x="362.414545" xlink:href="#m2481d89049" y="307.584"/>
      </g>
     </g>
     <g id="text_5">
      <!-- 400 -->
      <defs>
       <path d="M 37.796875 64.3125 
L 12.890625 25.390625 
L 37.796875 25.390625 
z
M 35.203125 72.90625 
L 47.609375 72.90625 
L 47.609375 25.390625 
L 58.015625 25.390625 
L 58.015625 17.1875 
L 47.609375 17.1875 
L 47.609375 0 
L 37.796875 0 
L 37.796875 17.1875 
L 4.890625 17.1875 
L 4.890625 26.703125 
z
" id="DejaVuSans-34"/>
      </defs>
      <g transform="translate(352.870795 322.182437)scale(0.1 -0.1)">
       <use xlink:href="#DejaVuSans-34"/>
       <use x="63.623047" xlink:href="#DejaVuSans-30"/>
       <use x="127.246094" xlink:href="#DejaVuSans-30"/>
      </g>
     </g>
    </g>
    <g id="text_6">
     <!-- Run -->
     <defs>
      <path d="M 44.390625 34.1875 
Q 47.5625 33.109375 50.5625 29.59375 
Q 53.5625 26.078125 56.59375 19.921875 
L 66.609375 0 
L 56 0 
L 46.6875 18.703125 
Q 43.0625 26.03125 39.671875 28.421875 
Q 36.28125 30.8125 30.421875 30.8125 
L 19.671875 30.8125 
L 19.671875 0 
L 9.8125 0 
L 9.8125 72.90625 
L 32.078125 72.90625 
Q 44.578125 72.90625 50.734375 67.671875 
Q 56.890625 62.453125 56.890625 51.90625 
Q 56.890625 45.015625 53.6875 40.46875 
Q 50.484375 35.9375 44.390625 34.1875 
z
M 19.671875 64.796875 
L 19.671875 38.921875 
L 32.078125 38.921875 
Q 39.203125 38.921875 42.84375 42.21875 
Q 46.484375 45.515625 46.484375 51.90625 
Q 46.484375 58.296875 42.84375 61.546875 
Q 39.203125 64.796875 32.078125 64.796875 
z
" id="DejaVuSans-52"/>
      <path d="M 8.5 21.578125 
L 8.5 54.6875 
L 17.484375 54.6875 
L 17.484375 21.921875 
Q 17.484375 14.15625 20.5 10.265625 
Q 23.53125 6.390625 29.59375 6.390625 
Q 36.859375 6.390625 41.078125 11.03125 
Q 45.3125 15.671875 45.3125 23.6875 
L 45.3125 54.6875 
L 54.296875 54.6875 
L 54.296875 0 
L 45.3125 0 
L 45.3125 8.40625 
Q 42.046875 3.421875 37.71875 1 
Q 33.40625 -1.421875 27.6875 -1.421875 
Q 18.265625 -1.421875 13.375 4.4375 
Q 8.5 10.296875 8.5 21.578125 
z
M 31.109375 56 
z
" id="DejaVuSans-75"/>
      <path d="M 54.890625 33.015625 
L 54.890625 0 
L 45.90625 0 
L 45.90625 32.71875 
Q 45.90625 40.484375 42.875 44.328125 
Q 39.84375 48.1875 33.796875 48.1875 
Q 26.515625 48.1875 22.3125 43.546875 
Q 18.109375 38.921875 18.109375 30.90625 
L 18.109375 0 
L 9.078125 0 
L 9.078125 54.6875 
L 18.109375 54.6875 
L 18.109375 46.1875 
Q 21.34375 51.125 25.703125 53.5625 
Q 30.078125 56 35.796875 56 
Q 45.21875 56 50.046875 50.171875 
Q 54.890625 44.34375 54.890625 33.015625 
z
" id="DejaVuSans-6e"/>
     </defs>
     <g transform="translate(226.351406 335.860562)scale(0.1 -0.1)">
      <use xlink:href="#DejaVuSans-52"/>
      <use x="69.419922" xlink:href="#DejaVuSans-75"/>
      <use x="132.798828" xlink:href="#DejaVuSans-6e"/>
     </g>
    </g>
   </g>
   <g id="matplotlib.axis_2">
    <g id="ytick_1">
     <g id="line2d_6">
      <defs>
       <path d="M 0 0 
L -3.5 0 
" id="mdc1f935177" style="stroke:#000000;stroke-width:0.8;"/>
      </defs>
      <g>
       <use style="stroke:#000000;stroke-width:0.8;" x="57.6" xlink:href="#mdc1f935177" y="304.129304"/>
      </g>
     </g>
     <g id="text_7">
      <!-- 0.0 -->
      <defs>
       <path d="M 10.6875 12.40625 
L 21 12.40625 
L 21 0 
L 10.6875 0 
z
" id="DejaVuSans-2e"/>
      </defs>
      <g transform="translate(34.696875 307.928523)scale(0.1 -0.1)">
       <use xlink:href="#DejaVuSans-30"/>
       <use x="63.623047" xlink:href="#DejaVuSans-2e"/>
       <use x="95.410156" xlink:href="#DejaVuSans-30"/>
      </g>
     </g>
    </g>
    <g id="ytick_2">
     <g id="line2d_7">
      <g>
       <use style="stroke:#000000;stroke-width:0.8;" x="57.6" xlink:href="#mdc1f935177" y="262.970549"/>
      </g>
     </g>
     <g id="text_8">
      <!-- 0.5 -->
      <defs>
       <path d="M 10.796875 72.90625 
L 49.515625 72.90625 
L 49.515625 64.59375 
L 19.828125 64.59375 
L 19.828125 46.734375 
Q 21.96875 47.46875 24.109375 47.828125 
Q 26.265625 48.1875 28.421875 48.1875 
Q 40.625 48.1875 47.75 41.5 
Q 54.890625 34.8125 54.890625 23.390625 
Q 54.890625 11.625 47.5625 5.09375 
Q 40.234375 -1.421875 26.90625 -1.421875 
Q 22.3125 -1.421875 17.546875 -0.640625 
Q 12.796875 0.140625 7.71875 1.703125 
L 7.71875 11.625 
Q 12.109375 9.234375 16.796875 8.0625 
Q 21.484375 6.890625 26.703125 6.890625 
Q 35.15625 6.890625 40.078125 11.328125 
Q 45.015625 15.765625 45.015625 23.390625 
Q 45.015625 31 40.078125 35.4375 
Q 35.15625 39.890625 26.703125 39.890625 
Q 22.75 39.890625 18.8125 39.015625 
Q 14.890625 38.140625 10.796875 36.28125 
z
" id="DejaVuSans-35"/>
      </defs>
      <g transform="translate(34.696875 266.769768)scale(0.1 -0.1)">
       <use xlink:href="#DejaVuSans-30"/>
       <use x="63.623047" xlink:href="#DejaVuSans-2e"/>
       <use x="95.410156" xlink:href="#DejaVuSans-35"/>
      </g>
     </g>
    </g>
    <g id="ytick_3">
     <g id="line2d_8">
      <g>
       <use style="stroke:#000000;stroke-width:0.8;" x="57.6" xlink:href="#mdc1f935177" y="221.811794"/>
      </g>
     </g>
     <g id="text_9">
      <!-- 1.0 -->
      <g transform="translate(34.696875 225.611013)scale(0.1 -0.1)">
       <use xlink:href="#DejaVuSans-31"/>
       <use x="63.623047" xlink:href="#DejaVuSans-2e"/>
       <use x="95.410156" xlink:href="#DejaVuSans-30"/>
      </g>
     </g>
    </g>
    <g id="ytick_4">
     <g id="line2d_9">
      <g>
       <use style="stroke:#000000;stroke-width:0.8;" x="57.6" xlink:href="#mdc1f935177" y="180.653039"/>
      </g>
     </g>
     <g id="text_10">
      <!-- 1.5 -->
      <g transform="translate(34.696875 184.452258)scale(0.1 -0.1)">
       <use xlink:href="#DejaVuSans-31"/>
       <use x="63.623047" xlink:href="#DejaVuSans-2e"/>
       <use x="95.410156" xlink:href="#DejaVuSans-35"/>
      </g>
     </g>
    </g>
    <g id="ytick_5">
     <g id="line2d_10">
      <g>
       <use style="stroke:#000000;stroke-width:0.8;" x="57.6" xlink:href="#mdc1f935177" y="139.494284"/>
      </g>
     </g>
     <g id="text_11">
      <!-- 2.0 -->
      <g transform="translate(34.696875 143.293503)scale(0.1 -0.1)">
       <use xlink:href="#DejaVuSans-32"/>
       <use x="63.623047" xlink:href="#DejaVuSans-2e"/>
       <use x="95.410156" xlink:href="#DejaVuSans-30"/>
      </g>
     </g>
    </g>
    <g id="ytick_6">
     <g id="line2d_11">
      <g>
       <use style="stroke:#000000;stroke-width:0.8;" x="57.6" xlink:href="#mdc1f935177" y="98.335529"/>
      </g>
     </g>
     <g id="text_12">
      <!-- 2.5 -->
      <g transform="translate(34.696875 102.134748)scale(0.1 -0.1)">
       <use xlink:href="#DejaVuSans-32"/>
       <use x="63.623047" xlink:href="#DejaVuSans-2e"/>
       <use x="95.410156" xlink:href="#DejaVuSans-35"/>
      </g>
     </g>
    </g>
    <g id="ytick_7">
     <g id="line2d_12">
      <g>
       <use style="stroke:#000000;stroke-width:0.8;" x="57.6" xlink:href="#mdc1f935177" y="57.176774"/>
      </g>
     </g>
     <g id="text_13">
      <!-- 3.0 -->
      <g transform="translate(34.696875 60.975993)scale(0.1 -0.1)">
       <use xlink:href="#DejaVuSans-33"/>
       <use x="63.623047" xlink:href="#DejaVuSans-2e"/>
       <use x="95.410156" xlink:href="#DejaVuSans-30"/>
      </g>
     </g>
    </g>
    <g id="text_14">
     <!-- Surface Roughness ($\mu m$) -->
     <defs>
      <path d="M 53.515625 70.515625 
L 53.515625 60.890625 
Q 47.90625 63.578125 42.921875 64.890625 
Q 37.9375 66.21875 33.296875 66.21875 
Q 25.25 66.21875 20.875 63.09375 
Q 16.5 59.96875 16.5 54.203125 
Q 16.5 49.359375 19.40625 46.890625 
Q 22.3125 44.4375 30.421875 42.921875 
L 36.375 41.703125 
Q 47.40625 39.59375 52.65625 34.296875 
Q 57.90625 29 57.90625 20.125 
Q 57.90625 9.515625 50.796875 4.046875 
Q 43.703125 -1.421875 29.984375 -1.421875 
Q 24.8125 -1.421875 18.96875 -0.25 
Q 13.140625 0.921875 6.890625 3.21875 
L 6.890625 13.375 
Q 12.890625 10.015625 18.65625 8.296875 
Q 24.421875 6.59375 29.984375 6.59375 
Q 38.421875 6.59375 43.015625 9.90625 
Q 47.609375 13.234375 47.609375 19.390625 
Q 47.609375 24.75 44.3125 27.78125 
Q 41.015625 30.8125 33.5 32.328125 
L 27.484375 33.5 
Q 16.453125 35.6875 11.515625 40.375 
Q 6.59375 45.0625 6.59375 53.421875 
Q 6.59375 63.09375 13.40625 68.65625 
Q 20.21875 74.21875 32.171875 74.21875 
Q 37.3125 74.21875 42.625 73.28125 
Q 47.953125 72.359375 53.515625 70.515625 
z
" id="DejaVuSans-53"/>
      <path d="M 41.109375 46.296875 
Q 39.59375 47.171875 37.8125 47.578125 
Q 36.03125 48 33.890625 48 
Q 26.265625 48 22.1875 43.046875 
Q 18.109375 38.09375 18.109375 28.8125 
L 18.109375 0 
L 9.078125 0 
L 9.078125 54.6875 
L 18.109375 54.6875 
L 18.109375 46.1875 
Q 20.953125 51.171875 25.484375 53.578125 
Q 30.03125 56 36.53125 56 
Q 37.453125 56 38.578125 55.875 
Q 39.703125 55.765625 41.0625 55.515625 
z
" id="DejaVuSans-72"/>
      <path d="M 37.109375 75.984375 
L 37.109375 68.5 
L 28.515625 68.5 
Q 23.6875 68.5 21.796875 66.546875 
Q 19.921875 64.59375 19.921875 59.515625 
L 19.921875 54.6875 
L 34.71875 54.6875 
L 34.71875 47.703125 
L 19.921875 47.703125 
L 19.921875 0 
L 10.890625 0 
L 10.890625 47.703125 
L 2.296875 47.703125 
L 2.296875 54.6875 
L 10.890625 54.6875 
L 10.890625 58.5 
Q 10.890625 67.625 15.140625 71.796875 
Q 19.390625 75.984375 28.609375 75.984375 
z
" id="DejaVuSans-66"/>
      <path d="M 34.28125 27.484375 
Q 23.390625 27.484375 19.1875 25 
Q 14.984375 22.515625 14.984375 16.5 
Q 14.984375 11.71875 18.140625 8.90625 
Q 21.296875 6.109375 26.703125 6.109375 
Q 34.1875 6.109375 38.703125 11.40625 
Q 43.21875 16.703125 43.21875 25.484375 
L 43.21875 27.484375 
z
M 52.203125 31.203125 
L 52.203125 0 
L 43.21875 0 
L 43.21875 8.296875 
Q 40.140625 3.328125 35.546875 0.953125 
Q 30.953125 -1.421875 24.3125 -1.421875 
Q 15.921875 -1.421875 10.953125 3.296875 
Q 6 8.015625 6 15.921875 
Q 6 25.140625 12.171875 29.828125 
Q 18.359375 34.515625 30.609375 34.515625 
L 43.21875 34.515625 
L 43.21875 35.40625 
Q 43.21875 41.609375 39.140625 45 
Q 35.0625 48.390625 27.6875 48.390625 
Q 23 48.390625 18.546875 47.265625 
Q 14.109375 46.140625 10.015625 43.890625 
L 10.015625 52.203125 
Q 14.9375 54.109375 19.578125 55.046875 
Q 24.21875 56 28.609375 56 
Q 40.484375 56 46.34375 49.84375 
Q 52.203125 43.703125 52.203125 31.203125 
z
" id="DejaVuSans-61"/>
      <path d="M 48.78125 52.59375 
L 48.78125 44.1875 
Q 44.96875 46.296875 41.140625 47.34375 
Q 37.3125 48.390625 33.40625 48.390625 
Q 24.65625 48.390625 19.8125 42.84375 
Q 14.984375 37.3125 14.984375 27.296875 
Q 14.984375 17.28125 19.8125 11.734375 
Q 24.65625 6.203125 33.40625 6.203125 
Q 37.3125 6.203125 41.140625 7.25 
Q 44.96875 8.296875 48.78125 10.40625 
L 48.78125 2.09375 
Q 45.015625 0.34375 40.984375 -0.53125 
Q 36.96875 -1.421875 32.421875 -1.421875 
Q 20.0625 -1.421875 12.78125 6.34375 
Q 5.515625 14.109375 5.515625 27.296875 
Q 5.515625 40.671875 12.859375 48.328125 
Q 20.21875 56 33.015625 56 
Q 37.15625 56 41.109375 55.140625 
Q 45.0625 54.296875 48.78125 52.59375 
z
" id="DejaVuSans-63"/>
      <path d="M 56.203125 29.59375 
L 56.203125 25.203125 
L 14.890625 25.203125 
Q 15.484375 15.921875 20.484375 11.0625 
Q 25.484375 6.203125 34.421875 6.203125 
Q 39.59375 6.203125 44.453125 7.46875 
Q 49.3125 8.734375 54.109375 11.28125 
L 54.109375 2.78125 
Q 49.265625 0.734375 44.1875 -0.34375 
Q 39.109375 -1.421875 33.890625 -1.421875 
Q 20.796875 -1.421875 13.15625 6.1875 
Q 5.515625 13.8125 5.515625 26.8125 
Q 5.515625 40.234375 12.765625 48.109375 
Q 20.015625 56 32.328125 56 
Q 43.359375 56 49.78125 48.890625 
Q 56.203125 41.796875 56.203125 29.59375 
z
M 47.21875 32.234375 
Q 47.125 39.59375 43.09375 43.984375 
Q 39.0625 48.390625 32.421875 48.390625 
Q 24.90625 48.390625 20.390625 44.140625 
Q 15.875 39.890625 15.1875 32.171875 
z
" id="DejaVuSans-65"/>
      <path id="DejaVuSans-20"/>
      <path d="M 30.609375 48.390625 
Q 23.390625 48.390625 19.1875 42.75 
Q 14.984375 37.109375 14.984375 27.296875 
Q 14.984375 17.484375 19.15625 11.84375 
Q 23.34375 6.203125 30.609375 6.203125 
Q 37.796875 6.203125 41.984375 11.859375 
Q 46.1875 17.53125 46.1875 27.296875 
Q 46.1875 37.015625 41.984375 42.703125 
Q 37.796875 48.390625 30.609375 48.390625 
z
M 30.609375 56 
Q 42.328125 56 49.015625 48.375 
Q 55.71875 40.765625 55.71875 27.296875 
Q 55.71875 13.875 49.015625 6.21875 
Q 42.328125 -1.421875 30.609375 -1.421875 
Q 18.84375 -1.421875 12.171875 6.21875 
Q 5.515625 13.875 5.515625 27.296875 
Q 5.515625 40.765625 12.171875 48.375 
Q 18.84375 56 30.609375 56 
z
" id="DejaVuSans-6f"/>
      <path d="M 45.40625 27.984375 
Q 45.40625 37.75 41.375 43.109375 
Q 37.359375 48.484375 30.078125 48.484375 
Q 22.859375 48.484375 18.828125 43.109375 
Q 14.796875 37.75 14.796875 27.984375 
Q 14.796875 18.265625 18.828125 12.890625 
Q 22.859375 7.515625 30.078125 7.515625 
Q 37.359375 7.515625 41.375 12.890625 
Q 45.40625 18.265625 45.40625 27.984375 
z
M 54.390625 6.78125 
Q 54.390625 -7.171875 48.1875 -13.984375 
Q 42 -20.796875 29.203125 -20.796875 
Q 24.46875 -20.796875 20.265625 -20.09375 
Q 16.0625 -19.390625 12.109375 -17.921875 
L 12.109375 -9.1875 
Q 16.0625 -11.328125 19.921875 -12.34375 
Q 23.78125 -13.375 27.78125 -13.375 
Q 36.625 -13.375 41.015625 -8.765625 
Q 45.40625 -4.15625 45.40625 5.171875 
L 45.40625 9.625 
Q 42.625 4.78125 38.28125 2.390625 
Q 33.9375 0 27.875 0 
Q 17.828125 0 11.671875 7.65625 
Q 5.515625 15.328125 5.515625 27.984375 
Q 5.515625 40.671875 11.671875 48.328125 
Q 17.828125 56 27.875 56 
Q 33.9375 56 38.28125 53.609375 
Q 42.625 51.21875 45.40625 46.390625 
L 45.40625 54.6875 
L 54.390625 54.6875 
z
" id="DejaVuSans-67"/>
      <path d="M 54.890625 33.015625 
L 54.890625 0 
L 45.90625 0 
L 45.90625 32.71875 
Q 45.90625 40.484375 42.875 44.328125 
Q 39.84375 48.1875 33.796875 48.1875 
Q 26.515625 48.1875 22.3125 43.546875 
Q 18.109375 38.921875 18.109375 30.90625 
L 18.109375 0 
L 9.078125 0 
L 9.078125 75.984375 
L 18.109375 75.984375 
L 18.109375 46.1875 
Q 21.34375 51.125 25.703125 53.5625 
Q 30.078125 56 35.796875 56 
Q 45.21875 56 50.046875 50.171875 
Q 54.890625 44.34375 54.890625 33.015625 
z
" id="DejaVuSans-68"/>
      <path d="M 44.28125 53.078125 
L 44.28125 44.578125 
Q 40.484375 46.53125 36.375 47.5 
Q 32.28125 48.484375 27.875 48.484375 
Q 21.1875 48.484375 17.84375 46.4375 
Q 14.5 44.390625 14.5 40.28125 
Q 14.5 37.15625 16.890625 35.375 
Q 19.28125 33.59375 26.515625 31.984375 
L 29.59375 31.296875 
Q 39.15625 29.25 43.1875 25.515625 
Q 47.21875 21.78125 47.21875 15.09375 
Q 47.21875 7.46875 41.1875 3.015625 
Q 35.15625 -1.421875 24.609375 -1.421875 
Q 20.21875 -1.421875 15.453125 -0.5625 
Q 10.6875 0.296875 5.421875 2 
L 5.421875 11.28125 
Q 10.40625 8.6875 15.234375 7.390625 
Q 20.0625 6.109375 24.8125 6.109375 
Q 31.15625 6.109375 34.5625 8.28125 
Q 37.984375 10.453125 37.984375 14.40625 
Q 37.984375 18.0625 35.515625 20.015625 
Q 33.0625 21.96875 24.703125 23.78125 
L 21.578125 24.515625 
Q 13.234375 26.265625 9.515625 29.90625 
Q 5.8125 33.546875 5.8125 39.890625 
Q 5.8125 47.609375 11.28125 51.796875 
Q 16.75 56 26.8125 56 
Q 31.78125 56 36.171875 55.265625 
Q 40.578125 54.546875 44.28125 53.078125 
z
" id="DejaVuSans-73"/>
      <path d="M 31 75.875 
Q 24.46875 64.65625 21.28125 53.65625 
Q 18.109375 42.671875 18.109375 31.390625 
Q 18.109375 20.125 21.3125 9.0625 
Q 24.515625 -2 31 -13.1875 
L 23.1875 -13.1875 
Q 15.875 -1.703125 12.234375 9.375 
Q 8.59375 20.453125 8.59375 31.390625 
Q 8.59375 42.28125 12.203125 53.3125 
Q 15.828125 64.359375 23.1875 75.875 
z
" id="DejaVuSans-28"/>
      <path d="M -1.3125 -20.796875 
L 13.375 54.6875 
L 22.40625 54.6875 
L 15.765625 20.65625 
Q 15.578125 19.625 15.421875 18.359375 
Q 15.28125 17.09375 15.28125 15.828125 
Q 15.28125 11.28125 18.140625 8.828125 
Q 21 6.390625 26.3125 6.390625 
Q 33.546875 6.390625 37.984375 10.484375 
Q 42.4375 14.59375 44 22.796875 
L 50.203125 54.6875 
L 59.1875 54.6875 
L 51.03125 12.640625 
Q 50.828125 11.71875 50.75 11.03125 
Q 50.6875 10.359375 50.6875 9.8125 
Q 50.6875 8.296875 51.296875 7.59375 
Q 51.90625 6.890625 53.21875 6.890625 
Q 53.71875 6.890625 54.5625 7.125 
Q 55.421875 7.375 56.984375 8.015625 
L 55.609375 0.78125 
Q 53.46875 -0.296875 51.515625 -0.859375 
Q 49.5625 -1.421875 47.703125 -1.421875 
Q 44.484375 -1.421875 42.65625 0.625 
Q 40.828125 2.6875 40.828125 6.296875 
Q 38.09375 2.390625 34.296875 0.484375 
Q 30.515625 -1.421875 25.390625 -1.421875 
Q 20.84375 -1.421875 17.453125 0.671875 
Q 14.0625 2.78125 12.984375 6.203125 
L 7.71875 -20.796875 
z
" id="DejaVuSans-Oblique-3bc"/>
      <path d="M 89.796875 33.015625 
L 83.40625 0 
L 74.421875 0 
L 80.71875 32.71875 
Q 81.109375 34.8125 81.296875 36.328125 
Q 81.5 37.84375 81.5 38.921875 
Q 81.5 43.3125 79.046875 45.75 
Q 76.609375 48.1875 72.21875 48.1875 
Q 65.671875 48.1875 60.546875 43.28125 
Q 55.421875 38.375 53.90625 30.515625 
L 47.90625 0 
L 38.921875 0 
L 45.3125 32.71875 
Q 45.703125 34.515625 45.890625 36.046875 
Q 46.09375 37.59375 46.09375 38.8125 
Q 46.09375 43.265625 43.65625 45.71875 
Q 41.21875 48.1875 36.921875 48.1875 
Q 30.28125 48.1875 25.140625 43.28125 
Q 20.015625 38.375 18.5 30.515625 
L 12.5 0 
L 3.515625 0 
L 14.203125 54.6875 
L 23.1875 54.6875 
L 21.484375 46.1875 
Q 25.140625 50.984375 30.046875 53.484375 
Q 34.96875 56 40.578125 56 
Q 46.53125 56 50.359375 52.875 
Q 54.203125 49.75 54.984375 44.1875 
Q 59.078125 49.953125 64.46875 52.96875 
Q 69.875 56 75.875 56 
Q 82.90625 56 86.734375 51.953125 
Q 90.578125 47.90625 90.578125 40.484375 
Q 90.578125 38.875 90.375 36.9375 
Q 90.1875 35.015625 89.796875 33.015625 
z
" id="DejaVuSans-Oblique-6d"/>
      <path d="M 8.015625 75.875 
L 15.828125 75.875 
Q 23.140625 64.359375 26.78125 53.3125 
Q 30.421875 42.28125 30.421875 31.390625 
Q 30.421875 20.453125 26.78125 9.375 
Q 23.140625 -1.703125 15.828125 -13.1875 
L 8.015625 -13.1875 
Q 14.5 -2 17.703125 9.0625 
Q 20.90625 20.125 20.90625 31.390625 
Q 20.90625 42.671875 17.703125 53.65625 
Q 14.5 64.65625 8.015625 75.875 
z
" id="DejaVuSans-29"/>
     </defs>
     <g transform="translate(28.596875 236.228)rotate(-90)scale(0.1 -0.1)">
      <use transform="translate(0 0.015625)" xlink:href="#DejaVuSans-53"/>
      <use transform="translate(63.476562 0.015625)" xlink:href="#DejaVuSans-75"/>
      <use transform="translate(126.855469 0.015625)" xlink:href="#DejaVuSans-72"/>
      <use transform="translate(167.96875 0.015625)" xlink:href="#DejaVuSans-66"/>
      <use transform="translate(203.173828 0.015625)" xlink:href="#DejaVuSans-61"/>
      <use transform="translate(264.453125 0.015625)" xlink:href="#DejaVuSans-63"/>
      <use transform="translate(319.433594 0.015625)" xlink:href="#DejaVuSans-65"/>
      <use transform="translate(380.957031 0.015625)" xlink:href="#DejaVuSans-20"/>
      <use transform="translate(412.744141 0.015625)" xlink:href="#DejaVuSans-52"/>
      <use transform="translate(482.226562 0.015625)" xlink:href="#DejaVuSans-6f"/>
      <use transform="translate(543.408203 0.015625)" xlink:href="#DejaVuSans-75"/>
      <use transform="translate(606.787109 0.015625)" xlink:href="#DejaVuSans-67"/>
      <use transform="translate(670.263672 0.015625)" xlink:href="#DejaVuSans-68"/>
      <use transform="translate(733.642578 0.015625)" xlink:href="#DejaVuSans-6e"/>
      <use transform="translate(797.021484 0.015625)" xlink:href="#DejaVuSans-65"/>
      <use transform="translate(858.544922 0.015625)" xlink:href="#DejaVuSans-73"/>
      <use transform="translate(910.644531 0.015625)" xlink:href="#DejaVuSans-73"/>
      <use transform="translate(962.744141 0.015625)" xlink:href="#DejaVuSans-20"/>
      <use transform="translate(994.53125 0.015625)" xlink:href="#DejaVuSans-28"/>
      <use transform="translate(1033.544922 0.015625)" xlink:href="#DejaVuSans-Oblique-3bc"/>
      <use transform="translate(1097.167969 0.015625)" xlink:href="#DejaVuSans-Oblique-6d"/>
      <use transform="translate(1194.580078 0.015625)" xlink:href="#DejaVuSans-29"/>
     </g>
    </g>
   </g>
   <g id="line2d_13">
    <path clip-path="url(#pc8c4af4bd7)" d="M 73.832727 292.906683 
L 74.554182 289.668861 
L 75.275636 290.245084 
L 75.997091 205.348292 
L 76.718545 213.387969 
L 77.44 161.912086 
L 78.161455 237.122851 
L 78.882909 194.317746 
L 79.604364 207.7355 
L 80.325818 201.753761 
L 81.047273 177.223143 
L 81.768727 170.473107 
L 82.490182 217.833114 
L 83.211636 229.577079 
L 83.933091 231.799652 
L 84.654545 244.503988 
L 85.376 263.409576 
L 86.097455 203.75682 
L 86.818909 228.781343 
L 87.540364 235.284427 
L 88.261818 239.45518 
L 88.983273 229.467322 
L 89.704727 233.885029 
L 90.426182 221.482524 
L 91.147636 202.76901 
L 91.869091 220.906301 
L 92.590545 185.92136 
L 93.312 285.799938 
L 94.033455 224.500833 
L 94.754909 227.958168 
L 95.476364 267.360816 
L 96.197818 271.998036 
L 96.919273 267.360816 
L 97.640727 272.272428 
L 98.362182 216.159325 
L 99.083636 247.439979 
L 99.805091 62.28046 
L 100.526545 108.295948 
L 101.248 90.460488 
L 101.969455 140.811364 
L 102.690909 125.802138 
L 103.412364 128.765569 
L 104.133818 169.128588 
L 104.855273 95.481856 
L 105.576727 100.530663 
L 106.298182 146.134563 
L 107.019636 119.710643 
L 107.741091 115.924037 
L 108.462545 262.339448 
L 109.184 199.833019 
L 109.905455 177.909122 
L 110.626909 182.573781 
L 111.348364 224.391076 
L 112.069818 218.491654 
L 112.791273 258.360768 
L 113.512727 235.750892 
L 114.234182 259.266261 
L 114.955636 255.891243 
L 115.677091 256.001 
L 116.398545 214.540414 
L 117.12 241.046652 
L 117.841455 258.058938 
L 118.562909 243.982643 
L 119.284364 209.189776 
L 120.005818 280.010274 
L 120.727273 237.973465 
L 121.448727 248.757059 
L 122.170182 218.217263 
L 122.891636 169.457858 
L 124.334545 250.156457 
L 125.056 267.635208 
L 125.777455 240.964335 
L 126.498909 239.976525 
L 127.220364 204.113529 
L 127.941818 247.467418 
L 128.663273 238.988714 
L 129.384727 232.348435 
L 130.106182 240.14116 
L 130.827636 265.851662 
L 131.549091 183.396956 
L 132.270545 207.845257 
L 132.992 246.808878 
L 133.713455 239.729572 
L 134.434909 214.183705 
L 135.156364 198.351304 
L 135.877818 197.418372 
L 136.599273 178.704858 
L 137.320727 252.708299 
L 138.042182 226.366696 
L 138.763636 245.135089 
L 139.485091 243.982643 
L 140.206545 188.116493 
L 140.928 194.674455 
L 141.649455 206.967203 
L 142.370909 221.839233 
L 143.092364 190.146992 
L 143.813818 198.049473 
L 144.535273 232.595388 
L 145.256727 228.122803 
L 145.978182 169.183466 
L 146.699636 201.589126 
L 147.421091 223.183753 
L 148.142545 261.900421 
L 148.864 188.089054 
L 149.585455 175.055448 
L 150.306909 186.442704 
L 151.028364 235.970406 
L 151.749818 197.528129 
L 152.471273 177.744487 
L 153.192727 213.470286 
L 153.914182 168.744439 
L 154.635636 224.281319 
L 155.357091 210.836126 
L 156.078545 202.43974 
L 156.8 135.296091 
L 157.521455 141.552222 
L 158.242909 179.089006 
L 158.964364 209.793438 
L 159.685818 194.756772 
L 160.407273 135.597922 
L 161.850182 250.70524 
L 162.571636 151.924228 
L 163.293091 218.29958 
L 164.014545 155.82059 
L 164.736 187.156122 
L 165.457455 196.951906 
L 166.178909 213.799556 
L 166.900364 174.095078 
L 167.621818 179.226202 
L 168.343273 170.06152 
L 169.064727 162.515748 
L 169.786182 168.991392 
L 170.507636 164.07978 
L 171.229091 156.561448 
L 171.950545 144.186382 
L 172.672 200.272046 
L 173.393455 160.595006 
L 174.114909 197.775081 
L 174.836364 171.954822 
L 175.557818 181.28414 
L 176.279273 170.527985 
L 177.000727 170.774938 
L 177.722182 196.842149 
L 179.165091 162.845018 
L 179.886545 188.582959 
L 180.608 193.494571 
L 181.329455 176.701799 
L 182.050909 213.580043 
L 182.772364 114.52464 
L 183.493818 142.540032 
L 184.936727 181.256701 
L 185.658182 161.171228 
L 186.379636 91.530615 
L 187.101091 78.332374 
L 187.822545 106.128254 
L 188.544 116.088672 
L 189.265455 107.198381 
L 190.708364 193.137861 
L 191.429818 168.250534 
L 192.151273 168.854196 
L 192.872727 178.128635 
L 193.594182 164.628564 
L 194.315636 221.592281 
L 195.037091 184.165253 
L 195.758545 97.210523 
L 196.48 171.625552 
L 197.201455 270.845591 
L 197.922909 233.061854 
L 198.644364 256.98881 
L 199.365818 258.607721 
L 200.087273 251.775368 
L 200.808727 229.22037 
L 201.530182 262.037617 
L 202.251636 280.668814 
L 203.694545 290.327401 
L 204.416 286.897505 
L 205.137455 245.189967 
L 205.858909 266.180932 
L 206.580364 260.775415 
L 207.301818 264.177872 
L 208.023273 266.784594 
L 208.744727 268.5407 
L 209.466182 259.156504 
L 210.187636 263.327258 
L 210.909091 284.729811 
L 211.630545 211.933693 
L 212.352 171.927383 
L 213.073455 188.390885 
L 213.794909 174.122517 
L 214.516364 162.790139 
L 215.237818 242.281415 
L 215.959273 236.244797 
L 216.680727 250.513166 
L 217.402182 204.278164 
L 218.123636 260.254071 
L 218.845091 260.501024 
L 219.566545 234.708204 
L 220.288 237.067973 
L 221.009455 208.476357 
L 221.730909 201.7812 
L 222.452364 198.406182 
L 223.173818 181.448775 
L 223.895273 243.351542 
L 224.616727 263.052866 
L 225.338182 215.857494 
L 226.059636 253.202204 
L 227.502545 235.668575 
L 228.224 255.095507 
L 228.945455 169.951763 
L 229.666909 261.763226 
L 230.388364 264.452264 
L 231.109818 249.443038 
L 231.831273 220.275201 
L 232.552727 245.656433 
L 233.274182 221.976429 
L 233.995636 218.162384 
L 234.717091 237.47956 
L 235.438545 251.281463 
L 236.16 170.198715 
L 236.881455 218.848364 
L 237.602909 252.049759 
L 238.324364 247.632053 
L 239.045818 207.488547 
L 239.767273 232.266118 
L 240.488727 230.894159 
L 241.210182 234.214299 
L 241.931636 212.455037 
L 242.653091 204.360482 
L 243.374545 207.680622 
L 244.096 241.897266 
L 244.817455 224.500833 
L 245.538909 241.293605 
L 246.260364 173.217024 
L 246.981818 204.525117 
L 248.424727 236.244797 
L 249.146182 226.284379 
L 249.867636 183.177443 
L 251.310545 183.067686 
L 252.753455 243.543617 
L 254.196364 242.089341 
L 254.917818 254.629041 
L 256.360727 209.738559 
L 257.082182 221.29045 
L 257.803636 215.391028 
L 258.525091 234.598447 
L 259.246545 196.375684 
L 259.968 222.854483 
L 260.689455 259.266261 
L 261.410909 226.394135 
L 262.132364 220.933741 
L 262.853818 199.119601 
L 263.575273 237.506999 
L 264.296727 190.284188 
L 265.018182 228.177681 
L 265.739636 209.71112 
L 266.461091 266.976668 
L 267.182545 185.482333 
L 267.904 155.573638 
L 268.625455 228.781343 
L 269.346909 129.918014 
L 270.068364 194.153111 
L 270.789818 228.397195 
L 271.511273 224.25388 
L 272.232727 259.842484 
L 272.954182 244.42167 
L 273.675636 258.086377 
L 274.397091 213.525165 
L 275.118545 248.016201 
L 275.84 248.043641 
L 276.561455 158.180359 
L 277.282909 220.878862 
L 278.004364 225.049616 
L 278.725818 257.263202 
L 279.447273 226.91548 
L 280.168727 232.567949 
L 280.890182 245.958264 
L 281.611636 241.952145 
L 282.333091 273.809021 
L 283.054545 209.683681 
L 283.776 197.939716 
L 284.497455 258.086377 
L 285.218909 250.732679 
L 285.940364 250.485727 
L 286.661818 267.772404 
L 287.383273 177.387778 
L 288.104727 257.345519 
L 288.826182 260.061997 
L 289.547636 228.836222 
L 290.269091 264.671778 
L 290.990545 268.074235 
L 291.712 243.159468 
L 292.433455 258.443086 
L 293.154909 260.720537 
L 293.876364 278.309045 
L 294.597818 266.263249 
L 295.319273 226.394135 
L 296.040727 263.93092 
L 296.762182 265.714466 
L 297.483636 273.013285 
L 298.205091 271.312057 
L 298.926545 217.174574 
L 299.648 265.604709 
L 300.369455 272.052914 
L 301.090909 274.330365 
L 301.812364 266.866911 
L 302.533818 270.87303 
L 303.255273 279.845638 
L 303.976727 248.702181 
L 304.698182 259.101626 
L 305.419636 188.445763 
L 306.141091 249.854626 
L 306.862545 278.912707 
L 307.584 220.028248 
L 308.305455 278.885268 
L 309.026909 227.464263 
L 309.748364 280.092591 
L 310.469818 264.397386 
L 311.191273 275.51025 
L 311.912727 283.248096 
L 312.634182 150.716905 
L 313.355636 264.562021 
L 314.077091 221.537402 
L 314.798545 273.452312 
L 315.52 244.833258 
L 316.241455 179.96706 
L 316.962909 275.647445 
L 317.684364 191.87566 
L 318.405818 275.290736 
L 319.127273 280.860888 
L 319.848727 274.741953 
L 320.570182 169.732249 
L 321.291636 266.071175 
L 322.734545 248.345471 
L 323.456 189.488452 
L 324.177455 237.260047 
L 324.898909 267.058985 
L 325.620364 263.354697 
L 326.341818 271.037665 
L 327.063273 268.869971 
L 327.784727 204.881826 
L 328.506182 209.409289 
L 329.227636 237.80883 
L 329.949091 259.513214 
L 330.670545 209.738559 
L 331.392 231.333186 
L 332.113455 187.23844 
L 332.834909 257.839424 
L 333.556364 250.348531 
L 334.277818 161.665134 
L 334.999273 245.546676 
L 335.720727 157.329745 
L 336.442182 222.497773 
L 337.163636 263.60165 
L 337.885091 245.574115 
L 338.606545 249.031451 
L 339.328 218.875803 
L 340.049455 201.424491 
L 340.770909 262.366887 
L 341.492364 174.534104 
L 342.213818 238.686884 
L 342.935273 261.241881 
L 343.656727 232.705145 
L 344.378182 239.81189 
L 345.099636 242.473489 
L 345.821091 207.296473 
L 346.542545 195.607387 
L 347.264 192.287247 
L 347.985455 213.36053 
L 348.706909 108.488022 
L 349.428364 155.875469 
L 350.149818 109.064245 
L 350.871273 134.280842 
L 351.592727 184.768915 
L 352.314182 96.689179 
L 353.035636 166.74138 
L 353.757091 197.308615 
L 354.478545 141.689418 
L 355.2 195.717143 
L 355.921455 143.088815 
L 356.642909 241.705192 
L 357.364364 156.012665 
L 358.085818 127.750319 
L 358.807273 245.574115 
L 359.528727 95.646491 
L 360.250182 137.600981 
L 360.971636 199.750701 
L 361.693091 123.058221 
L 362.414545 224.775224 
L 363.136 245.436919 
L 363.857455 232.238679 
L 364.578909 128.847886 
L 365.300364 153.652896 
L 366.021818 203.537307 
L 366.743273 130.110088 
L 367.464727 214.622732 
L 368.186182 196.842149 
L 368.907636 230.235619 
L 369.629091 243.10459 
L 370.350545 180.707917 
L 371.072 241.760071 
L 371.793455 223.513023 
L 372.514909 161.335863 
L 373.236364 253.586353 
L 373.957818 206.830007 
L 374.679273 235.942967 
L 376.122182 184.082935 
L 376.843636 245.601554 
L 377.565091 159.524878 
L 378.286545 177.99144 
L 379.008 266.729715 
L 379.729455 205.40317 
L 380.450909 238.46737 
L 381.172364 249.05889 
L 381.893818 281.519428 
L 382.615273 233.555759 
L 383.336727 222.442895 
L 384.058182 236.738703 
L 384.779636 92.244034 
L 385.501091 160.073662 
L 386.222545 175.768867 
L 386.944 128.07959 
L 387.665455 236.354554 
L 388.386909 104.619099 
L 389.108364 193.988476 
L 389.829818 231.580139 
L 390.551273 133.485106 
L 391.272727 235.449062 
L 391.994182 164.628564 
L 392.715636 247.74181 
L 393.437091 137.32659 
L 394.158545 221.263011 
L 394.88 243.022272 
L 395.601455 141.140634 
L 396.322909 148.000427 
L 397.044364 235.83321 
L 397.765818 184.302449 
L 398.487273 249.443038 
L 398.487273 249.443038 
" style="fill:none;stroke:#1f77b4;stroke-linecap:square;stroke-width:1.5;"/>
   </g>
   <g id="line2d_14">
    <path clip-path="url(#pc8c4af4bd7)" d="M 73.832727 295.488 
L 74.554182 290.490734 
L 75.275636 294.566281 
L 75.997091 203.789442 
L 76.718545 207.515462 
L 77.44 159.598908 
L 78.161455 236.675033 
L 78.882909 192.896283 
L 79.604364 209.926411 
L 80.325818 202.985433 
L 81.047273 173.947749 
L 81.768727 172.000298 
L 82.490182 215.256947 
L 83.211636 225.472823 
L 84.654545 235.424944 
L 87.540364 235.423335 
L 88.261818 240.264584 
L 88.983273 222.161589 
L 89.704727 226.676163 
L 90.426182 227.569363 
L 91.147636 202.420498 
L 91.869091 218.978061 
L 92.590545 179.124623 
L 93.312 222.831101 
L 94.033455 211.541123 
L 94.754909 225.134941 
L 95.476364 259.216071 
L 96.197818 264.265086 
L 96.919273 266.982314 
L 97.640727 268.772698 
L 98.362182 215.342576 
L 99.083636 245.447385 
L 99.805091 53.568 
L 100.526545 104.724094 
L 101.248 86.278066 
L 101.969455 142.545287 
L 102.690909 123.50614 
L 103.412364 124.273832 
L 104.133818 163.907821 
L 104.855273 92.584908 
L 105.576727 92.533566 
L 106.298182 139.756439 
L 107.019636 107.906317 
L 107.741091 117.122933 
L 108.462545 224.664613 
L 109.905455 174.713694 
L 110.626909 188.127463 
L 111.348364 233.651193 
L 112.069818 216.685712 
L 112.791273 258.683686 
L 113.512727 230.426451 
L 114.234182 256.307568 
L 114.955636 253.5935 
L 115.677091 255.397136 
L 116.398545 221.334263 
L 117.12 232.363186 
L 117.841455 251.62602 
L 118.562909 244.123929 
L 119.284364 207.449882 
L 120.005818 286.759642 
L 120.727273 238.100962 
L 121.448727 247.328009 
L 122.170182 220.21718 
L 122.891636 170.131498 
L 124.334545 248.13511 
L 125.056 265.38495 
L 125.777455 242.28785 
L 126.498909 240.911634 
L 127.220364 203.586951 
L 127.941818 248.252817 
L 128.663273 230.204775 
L 129.384727 233.997455 
L 130.106182 233.852723 
L 130.827636 268.308199 
L 131.549091 182.259213 
L 132.270545 210.711541 
L 132.992 247.200813 
L 133.713455 242.342524 
L 134.434909 214.160118 
L 135.156364 193.284338 
L 135.877818 194.260497 
L 136.599273 180.124177 
L 137.320727 257.027612 
L 138.042182 228.382292 
L 138.763636 245.493908 
L 139.485091 239.264216 
L 140.206545 187.132797 
L 140.928 192.215564 
L 141.649455 201.538033 
L 142.370909 223.085258 
L 143.092364 191.243359 
L 143.813818 198.798976 
L 144.535273 221.860457 
L 145.256727 212.681562 
L 145.978182 171.727281 
L 147.421091 219.820145 
L 148.142545 264.730716 
L 148.864 184.173918 
L 149.585455 172.322852 
L 150.306909 189.726307 
L 151.028364 242.986311 
L 151.749818 197.352715 
L 152.471273 176.82255 
L 153.192727 203.462738 
L 153.914182 165.451948 
L 154.635636 227.948754 
L 155.357091 206.504153 
L 156.078545 199.454348 
L 156.8 130.896692 
L 157.521455 141.35544 
L 158.242909 178.572465 
L 158.964364 207.351673 
L 159.685818 190.015771 
L 160.407273 134.879225 
L 161.850182 250.44577 
L 162.571636 155.745976 
L 163.293091 215.258282 
L 164.014545 155.027399 
L 164.736 185.320569 
L 166.178909 210.509579 
L 166.900364 172.777077 
L 167.621818 179.470463 
L 168.343273 164.422249 
L 169.064727 161.456551 
L 169.786182 170.29254 
L 170.507636 163.89899 
L 171.229091 154.963575 
L 171.950545 140.886859 
L 172.672 194.97669 
L 173.393455 152.877545 
L 174.114909 220.299874 
L 174.836364 173.598926 
L 175.557818 190.751276 
L 176.279273 167.383453 
L 177.000727 167.059859 
L 177.722182 196.615061 
L 178.443636 172.613611 
L 179.165091 160.634181 
L 179.886545 192.771167 
L 180.608 192.744073 
L 181.329455 173.393608 
L 182.050909 203.68406 
L 182.772364 104.423855 
L 184.215273 162.836496 
L 184.936727 179.352697 
L 185.658182 159.441772 
L 187.101091 73.494047 
L 187.822545 106.360885 
L 188.544 108.474392 
L 189.265455 105.122405 
L 189.986909 153.172092 
L 190.708364 192.774101 
L 191.429818 165.065825 
L 192.151273 166.13827 
L 192.872727 176.681988 
L 193.594182 163.905604 
L 194.315636 221.899287 
L 195.037091 184.699287 
L 195.758545 94.182211 
L 196.48 174.322322 
L 197.201455 276.031947 
L 197.922909 230.99537 
L 198.644364 253.94564 
L 199.365818 265.041462 
L 200.808727 232.104692 
L 201.530182 266.852903 
L 202.251636 282.903259 
L 202.973091 280.825714 
L 203.694545 292.700347 
L 204.416 282.79023 
L 205.137455 237.926516 
L 205.858909 255.546044 
L 206.580364 256.226557 
L 207.301818 264.595334 
L 208.023273 271.26868 
L 208.744727 265.080391 
L 209.466182 259.950526 
L 210.187636 268.272406 
L 210.909091 290.544288 
L 211.630545 207.84567 
L 212.352 179.134495 
L 213.073455 187.986411 
L 213.794909 171.970732 
L 214.516364 162.354294 
L 215.237818 239.17766 
L 215.959273 236.626125 
L 216.680727 251.655543 
L 217.402182 202.319944 
L 218.123636 256.649159 
L 218.845091 266.687335 
L 219.566545 233.872574 
L 220.288 237.204435 
L 221.009455 208.91626 
L 221.730909 199.307977 
L 222.452364 237.341445 
L 223.173818 180.71702 
L 223.895273 243.738263 
L 224.616727 258.374924 
L 225.338182 215.286985 
L 226.059636 260.147973 
L 226.781091 238.533206 
L 227.502545 234.144493 
L 228.224 257.37831 
L 228.945455 158.00184 
L 229.666909 262.27092 
L 230.388364 264.902407 
L 231.109818 250.14352 
L 231.831273 217.811029 
L 232.552727 240.184981 
L 233.274182 222.756954 
L 233.995636 218.768809 
L 234.717091 238.719928 
L 235.438545 246.515227 
L 236.16 173.523405 
L 236.881455 223.354458 
L 237.602909 244.442817 
L 238.324364 244.299655 
L 239.045818 196.398949 
L 239.767273 229.072648 
L 240.488727 231.824962 
L 241.210182 236.630011 
L 241.931636 209.417813 
L 242.653091 205.118762 
L 243.374545 206.176526 
L 244.096 241.104597 
L 244.817455 223.13971 
L 245.538909 224.156407 
L 246.260364 238.407972 
L 246.981818 203.720231 
L 247.703273 214.107471 
L 248.424727 234.964292 
L 249.146182 223.880632 
L 249.867636 238.919328 
L 250.589091 179.922048 
L 251.310545 186.492831 
L 252.032 206.37257 
L 252.753455 253.852132 
L 253.474909 237.176596 
L 254.196364 238.188533 
L 254.917818 249.184857 
L 256.360727 227.958498 
L 257.082182 214.730381 
L 257.803636 214.129943 
L 258.525091 232.995183 
L 259.246545 208.133201 
L 259.968 215.68558 
L 260.689455 256.080377 
L 261.410909 226.75611 
L 262.132364 239.941314 
L 262.853818 217.64355 
L 263.575273 238.906591 
L 264.296727 191.129519 
L 265.018182 228.772536 
L 265.739636 218.969023 
L 266.461091 264.690203 
L 267.182545 192.820438 
L 267.904 154.92291 
L 268.625455 229.665834 
L 269.346909 132.053215 
L 270.068364 194.362798 
L 270.789818 225.54803 
L 271.511273 223.710406 
L 272.232727 257.155471 
L 272.954182 246.554165 
L 274.397091 208.340933 
L 275.118545 241.98085 
L 275.84 245.543405 
L 276.561455 161.043727 
L 277.282909 220.028829 
L 278.004364 226.824693 
L 278.725818 238.813269 
L 279.447273 226.648608 
L 280.168727 200.665283 
L 280.890182 243.132005 
L 281.611636 242.246125 
L 282.333091 268.783645 
L 283.054545 224.322257 
L 283.776 203.551634 
L 284.497455 261.655556 
L 285.218909 256.424426 
L 285.940364 248.125042 
L 286.661818 220.527055 
L 288.104727 261.733109 
L 288.826182 260.312322 
L 289.547636 224.531735 
L 290.269091 267.272316 
L 290.990545 269.393052 
L 291.712 233.970832 
L 292.433455 264.635697 
L 293.154909 237.294745 
L 293.876364 273.551213 
L 294.597818 271.64953 
L 295.319273 220.584942 
L 296.040727 267.244302 
L 296.762182 225.563358 
L 297.483636 274.32585 
L 298.205091 270.525307 
L 298.926545 212.83278 
L 299.648 269.11321 
L 300.369455 245.043511 
L 301.090909 274.342726 
L 301.812364 264.497302 
L 302.533818 263.981152 
L 303.255273 240.85412 
L 303.976727 248.299655 
L 304.698182 264.084561 
L 305.419636 186.037311 
L 306.141091 255.193001 
L 306.862545 277.159323 
L 307.584 213.506453 
L 308.305455 280.171939 
L 309.026909 240.075713 
L 309.748364 275.482024 
L 310.469818 259.292014 
L 311.191273 273.531749 
L 311.912727 283.498447 
L 312.634182 147.600107 
L 313.355636 265.765766 
L 314.077091 228.08799 
L 314.798545 232.006934 
L 315.52 248.613504 
L 316.241455 179.23083 
L 316.962909 274.817573 
L 317.684364 186.740237 
L 318.405818 265.705879 
L 319.127273 282.478925 
L 319.848727 249.897866 
L 320.570182 166.57802 
L 321.291636 268.845047 
L 322.013091 253.944482 
L 322.734545 245.801571 
L 323.456 207.177424 
L 324.177455 245.24588 
L 324.898909 262.729733 
L 325.620364 259.242301 
L 326.341818 268.759156 
L 327.063273 266.359173 
L 327.784727 203.384734 
L 328.506182 206.77088 
L 329.949091 263.248633 
L 330.670545 209.1456 
L 331.392 254.41374 
L 332.113455 184.339189 
L 332.834909 250.276231 
L 333.556364 235.268112 
L 334.277818 170.767185 
L 334.999273 251.136508 
L 335.720727 148.068403 
L 336.442182 191.131432 
L 337.163636 262.189065 
L 337.885091 251.670051 
L 338.606545 247.212702 
L 339.328 216.061987 
L 340.049455 201.849537 
L 340.770909 255.095676 
L 341.492364 169.361854 
L 342.213818 234.500362 
L 342.935273 261.486483 
L 343.656727 233.984129 
L 344.378182 240.015343 
L 345.099636 242.978524 
L 345.821091 202.030018 
L 346.542545 195.235989 
L 347.264 183.469805 
L 347.985455 201.560946 
L 348.706909 105.922224 
L 349.428364 161.463881 
L 350.149818 100.303136 
L 350.871273 128.782204 
L 351.592727 187.099108 
L 352.314182 82.089715 
L 353.035636 162.697455 
L 353.757091 193.854042 
L 354.478545 174.871389 
L 355.2 194.10083 
L 355.921455 142.5572 
L 356.642909 243.213482 
L 357.364364 160.9428 
L 358.085818 121.278685 
L 358.807273 247.739636 
L 359.528727 92.439401 
L 360.250182 128.194621 
L 360.971636 196.014779 
L 361.693091 116.455825 
L 362.414545 218.67007 
L 363.136 244.296113 
L 363.857455 234.111325 
L 364.578909 127.993905 
L 365.300364 147.855137 
L 366.021818 199.470716 
L 366.743273 129.452276 
L 367.464727 231.818328 
L 368.186182 194.803265 
L 368.907636 227.698973 
L 369.629091 253.543679 
L 370.350545 180.819262 
L 371.072 240.784919 
L 371.793455 229.745182 
L 372.514909 157.653626 
L 373.236364 253.261555 
L 373.957818 268.713617 
L 374.679273 236.053968 
L 375.400727 218.604755 
L 376.122182 185.116694 
L 376.843636 246.514246 
L 377.565091 161.997562 
L 378.286545 173.217308 
L 379.008 270.313636 
L 379.729455 210.935366 
L 381.172364 250.002193 
L 381.893818 282.265361 
L 382.615273 229.24835 
L 383.336727 223.485678 
L 384.058182 237.545408 
L 384.779636 91.564826 
L 385.501091 165.487265 
L 386.222545 173.793047 
L 386.944 124.790055 
L 387.665455 234.438815 
L 388.386909 99.889498 
L 389.108364 192.412766 
L 389.829818 234.753852 
L 390.551273 134.712148 
L 391.272727 236.93708 
L 391.994182 165.749989 
L 392.715636 250.620123 
L 393.437091 128.162395 
L 394.158545 220.992427 
L 394.88 243.232657 
L 395.601455 137.375969 
L 396.322909 142.009124 
L 397.044364 235.243383 
L 397.765818 213.020748 
L 398.487273 243.755435 
L 398.487273 243.755435 
" style="fill:none;stroke:#ff7f0e;stroke-linecap:square;stroke-width:1.5;"/>
   </g>
   <g id="patch_3">
    <path d="M 57.6 307.584 
L 57.6 41.472 
" style="fill:none;stroke:#000000;stroke-linecap:square;stroke-linejoin:miter;stroke-width:0.8;"/>
   </g>
   <g id="patch_4">
    <path d="M 414.72 307.584 
L 414.72 41.472 
" style="fill:none;stroke:#000000;stroke-linecap:square;stroke-linejoin:miter;stroke-width:0.8;"/>
   </g>
   <g id="patch_5">
    <path d="M 57.6 307.584 
L 414.72 307.584 
" style="fill:none;stroke:#000000;stroke-linecap:square;stroke-linejoin:miter;stroke-width:0.8;"/>
   </g>
   <g id="patch_6">
    <path d="M 57.6 41.472 
L 414.72 41.472 
" style="fill:none;stroke:#000000;stroke-linecap:square;stroke-linejoin:miter;stroke-width:0.8;"/>
   </g>
   <g id="legend_1">
    <g id="patch_7">
     <path d="M 228.937187 78.82825 
L 407.72 78.82825 
Q 409.72 78.82825 409.72 76.82825 
L 409.72 48.472 
Q 409.72 46.472 407.72 46.472 
L 228.937187 46.472 
Q 226.937187 46.472 226.937187 48.472 
L 226.937187 76.82825 
Q 226.937187 78.82825 228.937187 78.82825 
z
" style="fill:#ffffff;opacity:0.8;stroke:#cccccc;stroke-linejoin:miter;"/>
    </g>
    <g id="line2d_15">
     <path d="M 230.937187 54.570437 
L 250.937187 54.570437 
" style="fill:none;stroke:#1f77b4;stroke-linecap:square;stroke-width:1.5;"/>
    </g>
    <g id="line2d_16"/>
    <g id="text_15">
     <!-- Real Surface Roughness -->
     <defs>
      <path d="M 9.421875 75.984375 
L 18.40625 75.984375 
L 18.40625 0 
L 9.421875 0 
z
" id="DejaVuSans-6c"/>
     </defs>
     <g transform="translate(258.937187 58.070437)scale(0.1 -0.1)">
      <use xlink:href="#DejaVuSans-52"/>
      <use x="69.419922" xlink:href="#DejaVuSans-65"/>
      <use x="130.943359" xlink:href="#DejaVuSans-61"/>
      <use x="192.222656" xlink:href="#DejaVuSans-6c"/>
      <use x="220.005859" xlink:href="#DejaVuSans-20"/>
      <use x="251.792969" xlink:href="#DejaVuSans-53"/>
      <use x="315.269531" xlink:href="#DejaVuSans-75"/>
      <use x="378.648438" xlink:href="#DejaVuSans-72"/>
      <use x="419.761719" xlink:href="#DejaVuSans-66"/>
      <use x="454.966797" xlink:href="#DejaVuSans-61"/>
      <use x="516.246094" xlink:href="#DejaVuSans-63"/>
      <use x="571.226562" xlink:href="#DejaVuSans-65"/>
      <use x="632.75" xlink:href="#DejaVuSans-20"/>
      <use x="664.537109" xlink:href="#DejaVuSans-52"/>
      <use x="733.957031" xlink:href="#DejaVuSans-6f"/>
      <use x="795.138672" xlink:href="#DejaVuSans-75"/>
      <use x="858.517578" xlink:href="#DejaVuSans-67"/>
      <use x="921.994141" xlink:href="#DejaVuSans-68"/>
      <use x="985.373047" xlink:href="#DejaVuSans-6e"/>
      <use x="1048.751953" xlink:href="#DejaVuSans-65"/>
      <use x="1110.275391" xlink:href="#DejaVuSans-73"/>
      <use x="1162.375" xlink:href="#DejaVuSans-73"/>
     </g>
    </g>
    <g id="line2d_17">
     <path d="M 230.937187 69.248562 
L 250.937187 69.248562 
" style="fill:none;stroke:#ff7f0e;stroke-linecap:square;stroke-width:1.5;"/>
    </g>
    <g id="line2d_18"/>
    <g id="text_16">
     <!-- Predicted Surface Roughness -->
     <defs>
      <path d="M 19.671875 64.796875 
L 19.671875 37.40625 
L 32.078125 37.40625 
Q 38.96875 37.40625 42.71875 40.96875 
Q 46.484375 44.53125 46.484375 51.125 
Q 46.484375 57.671875 42.71875 61.234375 
Q 38.96875 64.796875 32.078125 64.796875 
z
M 9.8125 72.90625 
L 32.078125 72.90625 
Q 44.34375 72.90625 50.609375 67.359375 
Q 56.890625 61.8125 56.890625 51.125 
Q 56.890625 40.328125 50.609375 34.8125 
Q 44.34375 29.296875 32.078125 29.296875 
L 19.671875 29.296875 
L 19.671875 0 
L 9.8125 0 
z
" id="DejaVuSans-50"/>
      <path d="M 45.40625 46.390625 
L 45.40625 75.984375 
L 54.390625 75.984375 
L 54.390625 0 
L 45.40625 0 
L 45.40625 8.203125 
Q 42.578125 3.328125 38.25 0.953125 
Q 33.9375 -1.421875 27.875 -1.421875 
Q 17.96875 -1.421875 11.734375 6.484375 
Q 5.515625 14.40625 5.515625 27.296875 
Q 5.515625 40.1875 11.734375 48.09375 
Q 17.96875 56 27.875 56 
Q 33.9375 56 38.25 53.625 
Q 42.578125 51.265625 45.40625 46.390625 
z
M 14.796875 27.296875 
Q 14.796875 17.390625 18.875 11.75 
Q 22.953125 6.109375 30.078125 6.109375 
Q 37.203125 6.109375 41.296875 11.75 
Q 45.40625 17.390625 45.40625 27.296875 
Q 45.40625 37.203125 41.296875 42.84375 
Q 37.203125 48.484375 30.078125 48.484375 
Q 22.953125 48.484375 18.875 42.84375 
Q 14.796875 37.203125 14.796875 27.296875 
z
" id="DejaVuSans-64"/>
      <path d="M 9.421875 54.6875 
L 18.40625 54.6875 
L 18.40625 0 
L 9.421875 0 
z
M 9.421875 75.984375 
L 18.40625 75.984375 
L 18.40625 64.59375 
L 9.421875 64.59375 
z
" id="DejaVuSans-69"/>
      <path d="M 18.3125 70.21875 
L 18.3125 54.6875 
L 36.8125 54.6875 
L 36.8125 47.703125 
L 18.3125 47.703125 
L 18.3125 18.015625 
Q 18.3125 11.328125 20.140625 9.421875 
Q 21.96875 7.515625 27.59375 7.515625 
L 36.8125 7.515625 
L 36.8125 0 
L 27.59375 0 
Q 17.1875 0 13.234375 3.875 
Q 9.28125 7.765625 9.28125 18.015625 
L 9.28125 47.703125 
L 2.6875 47.703125 
L 2.6875 54.6875 
L 9.28125 54.6875 
L 9.28125 70.21875 
z
" id="DejaVuSans-74"/>
     </defs>
     <g transform="translate(258.937187 72.748562)scale(0.1 -0.1)">
      <use xlink:href="#DejaVuSans-50"/>
      <use x="60.287109" xlink:href="#DejaVuSans-72"/>
      <use x="101.369141" xlink:href="#DejaVuSans-65"/>
      <use x="162.892578" xlink:href="#DejaVuSans-64"/>
      <use x="226.369141" xlink:href="#DejaVuSans-69"/>
      <use x="254.152344" xlink:href="#DejaVuSans-63"/>
      <use x="309.132812" xlink:href="#DejaVuSans-74"/>
      <use x="348.341797" xlink:href="#DejaVuSans-65"/>
      <use x="409.865234" xlink:href="#DejaVuSans-64"/>
      <use x="473.341797" xlink:href="#DejaVuSans-20"/>
      <use x="505.128906" xlink:href="#DejaVuSans-53"/>
      <use x="568.605469" xlink:href="#DejaVuSans-75"/>
      <use x="631.984375" xlink:href="#DejaVuSans-72"/>
      <use x="673.097656" xlink:href="#DejaVuSans-66"/>
      <use x="708.302734" xlink:href="#DejaVuSans-61"/>
      <use x="769.582031" xlink:href="#DejaVuSans-63"/>
      <use x="824.5625" xlink:href="#DejaVuSans-65"/>
      <use x="886.085938" xlink:href="#DejaVuSans-20"/>
      <use x="917.873047" xlink:href="#DejaVuSans-52"/>
      <use x="987.292969" xlink:href="#DejaVuSans-6f"/>
      <use x="1048.474609" xlink:href="#DejaVuSans-75"/>
      <use x="1111.853516" xlink:href="#DejaVuSans-67"/>
      <use x="1175.330078" xlink:href="#DejaVuSans-68"/>
      <use x="1238.708984" xlink:href="#DejaVuSans-6e"/>
      <use x="1302.087891" xlink:href="#DejaVuSans-65"/>
      <use x="1363.611328" xlink:href="#DejaVuSans-73"/>
      <use x="1415.710938" xlink:href="#DejaVuSans-73"/>
     </g>
    </g>
   </g>
  </g>
 </g>
 <defs>
  <clipPath id="pc8c4af4bd7">
   <rect height="266.112" width="357.12" x="57.6" y="41.472"/>
  </clipPath>
 </defs>
</svg>
