<?xml version="1.0" encoding="utf-8" standalone="no"?>
<!DOCTYPE svg PUBLIC "-//W3C//DTD SVG 1.1//EN"
  "http://www.w3.org/Graphics/SVG/1.1/DTD/svg11.dtd">
<!-- Created with matplotlib (http://matplotlib.org/) -->
<svg height="345.6pt" version="1.1" viewBox="0 0 460.8 345.6" width="460.8pt" xmlns="http://www.w3.org/2000/svg" xmlns:xlink="http://www.w3.org/1999/xlink">
 <defs>
  <style type="text/css">
*{stroke-linecap:butt;stroke-linejoin:round;}
  </style>
 </defs>
 <g id="figure_1">
  <g id="patch_1">
   <path d="M 0 345.6 
L 460.8 345.6 
L 460.8 0 
L 0 0 
z
" style="fill:#ffffff;"/>
  </g>
  <g id="axes_1">
   <g id="patch_2">
    <path d="M 57.6 307.584 
L 414.72 307.584 
L 414.72 41.472 
L 57.6 41.472 
z
" style="fill:#ffffff;"/>
   </g>
   <g id="matplotlib.axis_1">
    <g id="xtick_1">
     <g id="line2d_1">
      <defs>
       <path d="M 0 0 
L 0 3.5 
" id="m5ff1caec34" style="stroke:#000000;stroke-width:0.8;"/>
      </defs>
      <g>
       <use style="stroke:#000000;stroke-width:0.8;" x="73.832727" xlink:href="#m5ff1caec34" y="307.584"/>
      </g>
     </g>
     <g id="text_1">
      <!-- 0 -->
      <defs>
       <path d="M 32.796875 -0.90625 
C 42 -0.90625 49 2.59375 54 9.59375 
C 58.40625 15.703125 61 26.40625 61 38.5 
C 61 46.796875 59.703125 54.796875 57.203125 61.703125 
C 56 65 54 68.09375 51.203125 70.90625 
C 46.703125 75.59375 40.296875 78 32.90625 78 
C 23 78 15.296875 73.796875 10.5 65.703125 
C 7 59.90625 4.703125 49.09375 4.703125 38.5 
C 4.703125 30.296875 6 22.40625 8.5 15.40625 
C 9.703125 12 11.796875 8.90625 14.5 6.203125 
C 19.203125 1.5 25.40625 -0.90625 32.796875 -0.90625 
z
M 32.796875 71.09375 
C 39.796875 71.09375 45.203125 68 48.5 62 
C 51.09375 57.296875 53 47.40625 53 38.703125 
C 53 31.296875 52 24.703125 49.90625 18.5 
C 49 15.59375 47.40625 13 45.203125 10.703125 
C 42.203125 7.59375 37.90625 6 32.90625 6 
C 26.09375 6 20.90625 8.90625 17.40625 14.703125 
C 14.703125 19.40625 12.703125 29.203125 12.703125 38.5 
C 12.703125 45.796875 13.703125 52.59375 15.796875 58.703125 
C 16.59375 61.203125 18.203125 63.703125 20.296875 66 
C 23.5 69.40625 27.59375 71.09375 32.796875 71.09375 
z
" id="HiraginoSansGB-W3-30"/>
      </defs>
      <g transform="translate(70.547571 322.243375)scale(0.1 -0.1)">
       <use xlink:href="#HiraginoSansGB-W3-30"/>
      </g>
     </g>
    </g>
    <g id="xtick_2">
     <g id="line2d_2">
      <g>
       <use style="stroke:#000000;stroke-width:0.8;" x="145.978182" xlink:href="#m5ff1caec34" y="307.584"/>
      </g>
     </g>
     <g id="text_2">
      <!-- 100 -->
      <defs>
       <path d="M 16.09375 69.203125 
C 19 69.59375 21.59375 69.796875 24.796875 69.796875 
L 30.203125 69.796875 
L 30.203125 11.90625 
C 30.203125 7.296875 30 4.09375 29.40625 0.59375 
L 38.90625 0.59375 
C 38.296875 4.296875 38.09375 7.203125 38.09375 11.90625 
L 38.09375 60.5 
C 38.09375 65.90625 38.40625 71 39 77.09375 
C 35.703125 76.703125 34.09375 76.59375 30.703125 76.59375 
L 24.40625 76.59375 
C 20.59375 76.59375 18.703125 76.703125 16.09375 77.09375 
z
" id="HiraginoSansGB-W3-31"/>
      </defs>
      <g transform="translate(136.122713 322.243375)scale(0.1 -0.1)">
       <use xlink:href="#HiraginoSansGB-W3-31"/>
       <use x="65.699997" xlink:href="#HiraginoSansGB-W3-30"/>
       <use x="131.399994" xlink:href="#HiraginoSansGB-W3-30"/>
      </g>
     </g>
    </g>
    <g id="xtick_3">
     <g id="line2d_3">
      <g>
       <use style="stroke:#000000;stroke-width:0.8;" x="218.123636" xlink:href="#m5ff1caec34" y="307.584"/>
      </g>
     </g>
     <g id="text_3">
      <!-- 200 -->
      <defs>
       <path d="M 47.296875 0.59375 
C 52.296875 0.59375 55.59375 0.40625 59.59375 0 
L 59.59375 8.40625 
C 55.796875 7.90625 52.40625 7.703125 47.40625 7.703125 
L 15.5 7.703125 
C 16.703125 12.5 18.09375 15.203125 21.203125 19.296875 
C 24.5 23.5 27.703125 26.296875 35.59375 31.59375 
C 47 39.203125 49.59375 41.09375 52.59375 44.5 
C 56.5 48.796875 58.5 53.59375 58.5 58.703125 
C 58.5 70.5 48.796875 78.09375 33.703125 78.09375 
C 24.90625 78.09375 18.09375 75.5 13.59375 70.40625 
C 10.296875 66.703125 8.796875 63.203125 7.296875 56 
L 15.703125 54.59375 
C 16.40625 59.59375 17.296875 62 19.203125 64.703125 
C 22.203125 69 27.09375 71.203125 33.703125 71.203125 
C 43.90625 71.203125 50.296875 66.296875 50.296875 58.703125 
C 50.296875 52.59375 47 48.203125 37.09375 41.5 
C 25.5 33.59375 25.296875 33.5 21.796875 30.5 
C 15.5 25.09375 11.296875 19.59375 8.796875 13.296875 
C 7.296875 9.5 7 8 5.90625 0.09375 
C 9.09375 0.5 10.59375 0.59375 16.90625 0.59375 
z
" id="HiraginoSansGB-W3-32"/>
      </defs>
      <g transform="translate(208.268168 322.243375)scale(0.1 -0.1)">
       <use xlink:href="#HiraginoSansGB-W3-32"/>
       <use x="65.699997" xlink:href="#HiraginoSansGB-W3-30"/>
       <use x="131.399994" xlink:href="#HiraginoSansGB-W3-30"/>
      </g>
     </g>
    </g>
    <g id="xtick_4">
     <g id="line2d_4">
      <g>
       <use style="stroke:#000000;stroke-width:0.8;" x="290.269091" xlink:href="#m5ff1caec34" y="307.584"/>
      </g>
     </g>
     <g id="text_4">
      <!-- 300 -->
      <defs>
       <path d="M 4.5 17 
C 6.296875 11.90625 7.5 9.703125 9.59375 7.296875 
C 14.40625 1.90625 21.90625 -0.90625 32 -0.90625 
C 48.703125 -0.90625 59.09375 7.5 59.09375 21 
C 59.09375 27.40625 56.796875 32.703125 52.40625 36.09375 
C 49 38.703125 45.90625 39.796875 40.09375 40.40625 
C 44.703125 41.296875 46.90625 42.09375 49.5 44 
C 53.90625 47.09375 56.5 52.5 56.5 58.59375 
C 56.5 70.59375 47.296875 78.203125 32.796875 78.203125 
C 24.09375 78.203125 17.296875 75.703125 12.90625 70.90625 
C 10.40625 68.296875 9.203125 66 7.5 60.90625 
L 15.796875 59.09375 
C 16.90625 62.796875 17.59375 64.40625 19 66.203125 
C 21.796875 69.796875 26.203125 71.5 32.296875 71.5 
C 42.40625 71.5 48.40625 66.5 48.40625 57.90625 
C 48.40625 54.296875 46.90625 50.59375 44.40625 48.203125 
C 41.296875 45.09375 36.40625 43.59375 29.796875 43.59375 
C 27.09375 43.59375 24.703125 43.796875 22.40625 44.203125 
L 22.40625 36.296875 
C 25.09375 36.59375 27.59375 36.796875 30.40625 36.796875 
C 43.703125 36.796875 50.796875 31.40625 50.796875 21.5 
C 50.796875 12 43.5 6 31.90625 6 
C 26.796875 6 22.40625 7.203125 19 9.59375 
C 15.90625 11.796875 14.5 13.90625 12.90625 19.09375 
z
" id="HiraginoSansGB-W3-33"/>
      </defs>
      <g transform="translate(280.413622 322.243375)scale(0.1 -0.1)">
       <use xlink:href="#HiraginoSansGB-W3-33"/>
       <use x="65.699997" xlink:href="#HiraginoSansGB-W3-30"/>
       <use x="131.399994" xlink:href="#HiraginoSansGB-W3-30"/>
      </g>
     </g>
    </g>
    <g id="xtick_5">
     <g id="line2d_5">
      <g>
       <use style="stroke:#000000;stroke-width:0.8;" x="362.414545" xlink:href="#m5ff1caec34" y="307.584"/>
      </g>
     </g>
     <g id="text_5">
      <!-- 400 -->
      <defs>
       <path d="M 3.09375 19.59375 
C 6.40625 19.90625 9.40625 20 15 20 
L 41.796875 20 
L 41.796875 11.40625 
C 41.796875 6.90625 41.59375 4.09375 41 0.59375 
L 50.09375 0.59375 
C 49.5 4.296875 49.296875 6.59375 49.296875 11.40625 
L 49.296875 20 
L 53 20 
C 57.296875 20 59.796875 19.796875 63.5 19.296875 
L 63.5 27.59375 
C 59.90625 27.09375 57.296875 26.90625 53.09375 26.90625 
L 49.296875 26.90625 
L 49.296875 59.703125 
C 49.296875 67.59375 49.40625 70.703125 49.90625 76.59375 
L 42.40625 76.59375 
C 40.09375 73.09375 38.296875 70.59375 34.90625 66.40625 
L 9.59375 34.796875 
C 7.5 32.296875 5.203125 29.5 3.09375 27.09375 
z
M 41.90625 26.796875 
L 12 26.796875 
L 35 55.796875 
C 37.90625 59.5 40.40625 62.796875 42.5 65.796875 
C 42 60.703125 41.90625 57.5 41.90625 52.203125 
z
" id="HiraginoSansGB-W3-34"/>
      </defs>
      <g transform="translate(352.539545 322.243375)scale(0.1 -0.1)">
       <use xlink:href="#HiraginoSansGB-W3-34"/>
       <use x="66.099991" xlink:href="#HiraginoSansGB-W3-30"/>
       <use x="131.799988" xlink:href="#HiraginoSansGB-W3-30"/>
      </g>
     </g>
    </g>
    <g id="text_6">
     <!-- Run -->
     <defs>
      <path d="M 68.90625 0.59375 
C 67.5 3 66.09375 6 64.40625 9.90625 
C 61.296875 16.796875 58.90625 22 56.5 26.703125 
C 52.90625 33.796875 50.40625 36.5 46.296875 37.703125 
C 51.703125 38.90625 54.203125 40.09375 57.09375 42.703125 
C 61.203125 46.203125 63.09375 51 63.09375 57.40625 
C 63.09375 69.796875 55.09375 76.59375 40.59375 76.59375 
L 18.59375 76.59375 
C 14 76.59375 11.203125 76.703125 7.703125 76.90625 
C 8.296875 72.90625 8.5 69.703125 8.5 65.40625 
L 8.5 11.796875 
C 8.5 6.90625 8.296875 4.203125 7.703125 0.59375 
L 17 0.59375 
C 16.40625 4.203125 16.203125 6.796875 16.203125 11.90625 
L 16.203125 35.296875 
L 34.703125 35.296875 
C 42.703125 35.296875 46.59375 31.40625 52.40625 17.703125 
C 56.59375 7.703125 58 3.59375 58.296875 0.59375 
z
M 16.203125 42.203125 
L 16.203125 69.703125 
L 40.5 69.703125 
C 50 69.703125 55 65.09375 55 56.59375 
C 55 52.296875 53.796875 49 51.203125 46.5 
C 48.5 43.796875 44.40625 42.203125 39.90625 42.203125 
z
" id="HiraginoSansGB-W3-52"/>
      <path d="M 46.40625 0.59375 
L 54.703125 0.59375 
C 54.09375 4.59375 53.90625 7.40625 53.90625 11.90625 
L 53.90625 43.203125 
C 53.90625 47.796875 54.09375 51 54.59375 54.5 
L 45.703125 54.5 
C 46.203125 51 46.40625 47.5 46.40625 43.203125 
L 46.40625 23.90625 
C 45.5 19.90625 44.40625 17.40625 41.796875 13.90625 
C 37.796875 8.5 33.09375 6 27.40625 6 
C 19.59375 6 15.296875 11 15.296875 19.90625 
L 15.296875 43.203125 
C 15.296875 47.59375 15.5 51 16 54.5 
L 7 54.5 
C 7.5 51.296875 7.703125 47.796875 7.703125 43.296875 
L 7.703125 18.59375 
C 7.703125 13.796875 8.703125 9.90625 10.5 7 
C 13.703125 2.203125 19.296875 -0.40625 26.5 -0.40625 
C 35.5 -0.40625 41.703125 3.296875 46.703125 11.5 
C 46.40625 8.90625 46.40625 8.203125 46.40625 7.09375 
z
" id="HiraginoSansGB-W3-75"/>
      <path d="M 16.09375 0.59375 
C 15.59375 4.5 15.40625 7.5 15.40625 11.90625 
L 15.40625 31.203125 
C 16.203125 35.203125 17.40625 37.703125 20 41.09375 
C 24.203125 46.5 28.703125 49 34.296875 49 
C 42.203125 49 46.5 44.203125 46.5 35.203125 
L 46.5 11.90625 
C 46.5 7.5 46.296875 4.5 45.796875 0.59375 
L 54.796875 0.59375 
C 54.296875 3.90625 54.09375 6.703125 54.09375 11.796875 
L 54.09375 36.5 
C 54.09375 41.40625 53.203125 45.09375 51.296875 48 
C 48.09375 52.90625 42.5 55.5 35.296875 55.5 
C 26.296875 55.5 19.796875 51.59375 15.09375 43.40625 
C 15.40625 45.703125 15.40625 46.5 15.40625 47.703125 
L 15.40625 54.5 
L 7.09375 54.5 
C 7.703125 50.5 7.90625 47.703125 7.90625 43.203125 
L 7.90625 11.90625 
C 7.90625 7.09375 7.703125 4.40625 7.09375 0.59375 
z
" id="HiraginoSansGB-W3-6e"/>
     </defs>
     <g transform="translate(226.350625 335.943375)scale(0.1 -0.1)">
      <use xlink:href="#HiraginoSansGB-W3-52"/>
      <use x="72.599991" xlink:href="#HiraginoSansGB-W3-75"/>
      <use x="134.399979" xlink:href="#HiraginoSansGB-W3-6e"/>
     </g>
    </g>
   </g>
   <g id="matplotlib.axis_2">
    <g id="ytick_1">
     <g id="line2d_6">
      <defs>
       <path d="M 0 0 
L -3.5 0 
" id="m7c64962994" style="stroke:#000000;stroke-width:0.8;"/>
      </defs>
      <g>
       <use style="stroke:#000000;stroke-width:0.8;" x="57.6" xlink:href="#m7c64962994" y="304.129304"/>
      </g>
     </g>
     <g id="text_7">
      <!-- 0.0 -->
      <defs>
       <path d="M 7 10.5 
L 7 0.59375 
L 16.90625 0.59375 
L 16.90625 10.5 
z
" id="HiraginoSansGB-W3-2e"/>
      </defs>
      <g transform="translate(35.059375 307.958991)scale(0.1 -0.1)">
       <use xlink:href="#HiraginoSansGB-W3-30"/>
       <use x="65.699997" xlink:href="#HiraginoSansGB-W3-2e"/>
       <use x="89.699982" xlink:href="#HiraginoSansGB-W3-30"/>
      </g>
     </g>
    </g>
    <g id="ytick_2">
     <g id="line2d_7">
      <g>
       <use style="stroke:#000000;stroke-width:0.8;" x="57.6" xlink:href="#m7c64962994" y="262.970549"/>
      </g>
     </g>
     <g id="text_8">
      <!-- 0.5 -->
      <defs>
       <path d="M 19.703125 69.703125 
L 43.203125 69.703125 
C 47.90625 69.703125 51.09375 69.5 54.90625 68.90625 
L 54.90625 77.40625 
C 50.90625 76.796875 48.59375 76.59375 43.203125 76.59375 
L 22.59375 76.59375 
C 16.703125 76.59375 15.09375 76.703125 12 77.09375 
C 12.203125 74.59375 12.203125 74.203125 12.203125 72.796875 
C 12.203125 70.90625 12.09375 69.703125 11.90625 66.796875 
L 9.703125 44.203125 
C 9.296875 39.90625 9 37.796875 8.203125 33.90625 
L 15.703125 33.203125 
C 16.796875 35.90625 17.90625 37.296875 20.296875 39.203125 
C 23.90625 42 28.296875 43.40625 33.40625 43.40625 
C 44 43.40625 50.90625 36.203125 50.90625 25.203125 
C 50.90625 13.703125 43.40625 6.09375 32.203125 6.09375 
C 26.40625 6.09375 21.40625 8.203125 18 12 
C 16.5 13.703125 15.796875 15 14.796875 17.796875 
L 6.59375 15.40625 
C 9 10.59375 10.40625 8.5 12.90625 6 
C 17.703125 1.5 24.203125 -0.796875 32 -0.796875 
C 48.5 -0.796875 59 9.5 59 25.59375 
C 59 33 56.796875 38.90625 52.296875 43.203125 
C 47.796875 47.59375 41.59375 50 34.296875 50 
C 27.40625 50 21.59375 47.703125 16.796875 43.09375 
C 17.40625 45.796875 17.40625 45.796875 17.59375 47.59375 
z
" id="HiraginoSansGB-W3-35"/>
      </defs>
      <g transform="translate(35.059375 266.800236)scale(0.1 -0.1)">
       <use xlink:href="#HiraginoSansGB-W3-30"/>
       <use x="65.699997" xlink:href="#HiraginoSansGB-W3-2e"/>
       <use x="89.699982" xlink:href="#HiraginoSansGB-W3-35"/>
      </g>
     </g>
    </g>
    <g id="ytick_3">
     <g id="line2d_8">
      <g>
       <use style="stroke:#000000;stroke-width:0.8;" x="57.6" xlink:href="#m7c64962994" y="221.811794"/>
      </g>
     </g>
     <g id="text_9">
      <!-- 1.0 -->
      <g transform="translate(35.059375 225.641482)scale(0.1 -0.1)">
       <use xlink:href="#HiraginoSansGB-W3-31"/>
       <use x="65.699997" xlink:href="#HiraginoSansGB-W3-2e"/>
       <use x="89.699982" xlink:href="#HiraginoSansGB-W3-30"/>
      </g>
     </g>
    </g>
    <g id="ytick_4">
     <g id="line2d_9">
      <g>
       <use style="stroke:#000000;stroke-width:0.8;" x="57.6" xlink:href="#m7c64962994" y="180.653039"/>
      </g>
     </g>
     <g id="text_10">
      <!-- 1.5 -->
      <g transform="translate(35.059375 184.482727)scale(0.1 -0.1)">
       <use xlink:href="#HiraginoSansGB-W3-31"/>
       <use x="65.699997" xlink:href="#HiraginoSansGB-W3-2e"/>
       <use x="89.699982" xlink:href="#HiraginoSansGB-W3-35"/>
      </g>
     </g>
    </g>
    <g id="ytick_5">
     <g id="line2d_10">
      <g>
       <use style="stroke:#000000;stroke-width:0.8;" x="57.6" xlink:href="#m7c64962994" y="139.494284"/>
      </g>
     </g>
     <g id="text_11">
      <!-- 2.0 -->
      <g transform="translate(35.059375 143.323972)scale(0.1 -0.1)">
       <use xlink:href="#HiraginoSansGB-W3-32"/>
       <use x="65.699997" xlink:href="#HiraginoSansGB-W3-2e"/>
       <use x="89.699982" xlink:href="#HiraginoSansGB-W3-30"/>
      </g>
     </g>
    </g>
    <g id="ytick_6">
     <g id="line2d_11">
      <g>
       <use style="stroke:#000000;stroke-width:0.8;" x="57.6" xlink:href="#m7c64962994" y="98.335529"/>
      </g>
     </g>
     <g id="text_12">
      <!-- 2.5 -->
      <g transform="translate(35.059375 102.165217)scale(0.1 -0.1)">
       <use xlink:href="#HiraginoSansGB-W3-32"/>
       <use x="65.699997" xlink:href="#HiraginoSansGB-W3-2e"/>
       <use x="89.699982" xlink:href="#HiraginoSansGB-W3-35"/>
      </g>
     </g>
    </g>
    <g id="ytick_7">
     <g id="line2d_12">
      <g>
       <use style="stroke:#000000;stroke-width:0.8;" x="57.6" xlink:href="#m7c64962994" y="57.176774"/>
      </g>
     </g>
     <g id="text_13">
      <!-- 3.0 -->
      <g transform="translate(35.059375 61.006462)scale(0.1 -0.1)">
       <use xlink:href="#HiraginoSansGB-W3-33"/>
       <use x="65.699997" xlink:href="#HiraginoSansGB-W3-2e"/>
       <use x="89.699982" xlink:href="#HiraginoSansGB-W3-30"/>
      </g>
     </g>
    </g>
    <g id="text_14">
     <!-- Surface Roughness ($\mu m$) -->
     <defs>
      <path d="M 60 58.09375 
C 58.90625 63.203125 57.90625 65.703125 55.59375 68.703125 
C 51.09375 74.703125 43.40625 77.90625 33.5 77.90625 
C 18 77.90625 7.90625 69.796875 7.90625 57.203125 
C 7.90625 50.203125 11 44.90625 17.203125 41.40625 
C 20.59375 39.5 24.5 38.09375 30.796875 36.796875 
C 42.90625 34.09375 44 33.796875 47.296875 31.90625 
C 51.09375 29.796875 53.09375 26.09375 53.09375 21.203125 
C 53.09375 11.90625 45.90625 6.296875 34 6.296875 
C 26.59375 6.296875 20.59375 8.796875 17.296875 13.203125 
C 15.203125 15.90625 14.5 18.296875 14.203125 23.09375 
L 5.5 22 
C 6.5 15.40625 7.59375 12.296875 10.203125 8.796875 
C 14.796875 2.59375 23.09375 -0.703125 34.296875 -0.703125 
C 51.5 -0.703125 61.203125 7.296875 61.203125 21.40625 
C 61.203125 33 54.796875 39.09375 38.796875 42.5 
C 27.296875 45 27.203125 45 24.5 46.09375 
C 18.59375 48.5 15.796875 52.203125 15.796875 57.40625 
C 15.796875 65.5 23 71 33.296875 71 
C 39.796875 71 44.90625 69 48.09375 65.203125 
C 50 62.90625 50.796875 60.90625 51.59375 56.90625 
z
" id="HiraginoSansGB-W3-53"/>
      <path d="M 41.703125 54.5 
C 37.5 55.203125 35.796875 55.40625 32.796875 55.40625 
C 28 55.40625 24.59375 54.40625 20.796875 51.90625 
C 18.703125 50.5 17.203125 48.90625 15.296875 45.796875 
C 15.40625 46.5 15.40625 48 15.40625 48.796875 
L 15.40625 54.5 
L 7.09375 54.5 
C 7.59375 50.90625 7.796875 48.203125 7.796875 43.203125 
L 7.796875 11.90625 
C 7.796875 7.796875 7.59375 5.203125 7.09375 0.59375 
L 16.09375 0.59375 
C 15.59375 4.5 15.40625 7.296875 15.40625 11.796875 
L 15.40625 32.203125 
C 15.796875 36.703125 16.703125 39.09375 19.09375 42.203125 
C 22.09375 46.203125 26.296875 48.296875 31.40625 48.296875 
C 33.90625 48.296875 35.703125 48 39.5 46.796875 
z
" id="HiraginoSansGB-W3-72"/>
      <path d="M 14.296875 48.09375 
L 14.296875 11.90625 
C 14.296875 7.703125 14.09375 4.296875 13.59375 0.59375 
L 22.59375 0.59375 
C 22.09375 4.296875 21.90625 7.09375 21.90625 11.796875 
L 21.90625 48.09375 
L 26.90625 48.09375 
C 31.796875 48.09375 34.09375 48 37.5 47.5 
L 37.5 55.09375 
C 33.796875 54.59375 31.203125 54.5 26.90625 54.5 
L 21.90625 54.5 
L 21.90625 60 
C 21.90625 64.703125 22.296875 66.796875 23.40625 68.40625 
C 24.703125 70.203125 27 71.09375 30.203125 71.09375 
C 33.296875 71.09375 35.796875 70.40625 38.5 68.796875 
L 40.59375 75.5 
C 37 76.90625 33.90625 77.5 30 77.5 
C 24.40625 77.5 19.796875 75.703125 17.40625 72.59375 
C 15.09375 69.703125 14.296875 66.5 14.296875 60.40625 
L 14.296875 54.5 
L 10.203125 54.5 
C 6.203125 54.5 3.796875 54.703125 1.09375 55.09375 
L 1.09375 47.5 
C 4.203125 47.90625 6.703125 48.09375 10.203125 48.09375 
z
" id="HiraginoSansGB-W3-66"/>
      <path d="M 42.703125 0.59375 
L 50.796875 0.59375 
C 50.203125 4.59375 50 7.09375 50 11.59375 
L 50 39.703125 
C 50 50.5 43.203125 56.09375 30 56.09375 
C 22.5 56.09375 16.5 54.203125 12.40625 50.40625 
C 9.90625 48.203125 8.59375 46.09375 6.796875 41.5 
L 14.59375 39.796875 
C 15.59375 42.796875 16.40625 44.203125 17.703125 45.59375 
C 20.5 48.5 24.59375 49.90625 30.09375 49.90625 
C 38.40625 49.90625 42.703125 46.40625 42.703125 39.59375 
L 42.703125 33.796875 
C 30.40625 33.5 25.59375 32.90625 19.703125 31.203125 
C 10.40625 28.59375 5.40625 22.796875 5.40625 14.796875 
C 5.40625 5.296875 12.09375 -0.40625 23.09375 -0.40625 
C 26.5 -0.40625 30.09375 0.296875 33.5 1.59375 
C 36.90625 2.90625 38.796875 4.203125 42.703125 7.703125 
z
M 42.703125 21.40625 
C 42.703125 17.40625 41.90625 15.296875 39.59375 12.796875 
C 35.703125 8.5 29.40625 5.703125 23.59375 5.703125 
C 17.09375 5.703125 13 9.203125 13 14.703125 
C 13 19.5 15.5 22.90625 20.59375 25 
C 25.09375 26.90625 30.796875 27.59375 42.703125 27.90625 
z
" id="HiraginoSansGB-W3-61"/>
      <path d="M 52.703125 40.296875 
C 51.5 43.203125 50.59375 44.796875 49.203125 46.703125 
C 44.90625 52.703125 38.203125 55.90625 29.90625 55.90625 
C 14.59375 55.90625 4.59375 44.59375 4.59375 27.296875 
C 4.59375 10.203125 14.703125 -0.703125 30.40625 -0.703125 
C 38.5 -0.703125 44.90625 2.203125 49.296875 7.703125 
C 51 9.90625 52 11.796875 53.40625 15.40625 
L 45.90625 17.40625 
C 45.203125 15 44.703125 13.796875 43.703125 12.296875 
C 41.09375 8.203125 36.40625 5.90625 30.703125 5.90625 
C 19.5 5.90625 12.296875 14.296875 12.296875 27.5 
C 12.296875 40.90625 19.296875 49.5 30.296875 49.5 
C 37.703125 49.5 42.5 45.796875 45.40625 38 
z
" id="HiraginoSansGB-W3-63"/>
      <path d="M 54.296875 26.40625 
C 54.09375 29.09375 53.703125 33 53.59375 34.09375 
C 51.59375 47.5 42.296875 55.796875 29.40625 55.796875 
C 14.40625 55.796875 4.59375 44.59375 4.59375 27.5 
C 4.59375 10.203125 14.5 -0.796875 30.203125 -0.796875 
C 37.5 -0.796875 43.59375 1.59375 48.296875 6.203125 
C 50.59375 8.5 51.90625 10.296875 53.796875 14.5 
L 46.796875 17.296875 
C 44 9.59375 38.40625 5.59375 30.296875 5.59375 
C 24.296875 5.59375 19.40625 8 16.203125 12.40625 
C 13.5 16 12.5 19.703125 12.203125 26.40625 
z
M 12.5 32.703125 
C 13.09375 36.5 13.59375 38.296875 15 40.796875 
C 18 46.40625 23.09375 49.5 29.203125 49.5 
C 34 49.5 37.90625 48 41 45 
C 44.203125 41.90625 45.703125 38.296875 46.296875 32.703125 
z
" id="HiraginoSansGB-W3-65"/>
      <path id="HiraginoSansGB-W3-20"/>
      <path d="M 31.40625 -0.703125 
C 47.5 -0.703125 57.90625 10.5 57.90625 27.59375 
C 57.90625 44.796875 47.59375 55.796875 31.296875 55.796875 
C 15 55.796875 4.59375 44.796875 4.59375 27.5 
C 4.59375 10.203125 15 -0.703125 31.40625 -0.703125 
z
M 31.5 49.5 
C 43 49.5 50.203125 41.09375 50.203125 27.59375 
C 50.203125 14.09375 43 5.796875 31.296875 5.796875 
C 19.59375 5.796875 12.296875 14.09375 12.296875 27.703125 
C 12.296875 41.203125 19.59375 49.5 31.5 49.5 
z
" id="HiraginoSansGB-W3-6f"/>
      <path d="M 6.90625 -10.90625 
C 13.5 -18.09375 19.703125 -20.90625 29.59375 -20.90625 
C 38.703125 -20.90625 46.203125 -18.203125 50.40625 -13.296875 
C 54.40625 -8.59375 56.203125 -2.296875 56.203125 7.5 
L 56.203125 43.296875 
C 56.203125 48 56.40625 50.59375 56.90625 54.5 
L 48.90625 54.5 
L 48.90625 48.796875 
C 48.90625 47.5 49 46.703125 49.09375 45 
C 45 52 38.59375 55.5 29.90625 55.5 
C 14.40625 55.5 4.59375 44.703125 4.59375 27.703125 
C 4.59375 11 14.203125 0.5 29.296875 0.5 
C 35.40625 0.5 41 2.296875 44.796875 5.703125 
C 46.5 7.203125 47.59375 8.5 49.09375 11.203125 
C 48.703125 2.90625 48.296875 -0.703125 47.296875 -3.59375 
C 44.703125 -10.796875 38.59375 -14.59375 29.90625 -14.59375 
C 24.5 -14.59375 20.296875 -13.203125 16.5 -9.90625 
C 15.296875 -9 14.703125 -8.296875 13.296875 -6.40625 
z
M 12.40625 27.703125 
C 12.40625 41 19.203125 49.203125 30.296875 49.203125 
C 41.5 49.203125 48.703125 41.09375 48.703125 28.5 
C 48.703125 15.5 41.09375 6.796875 29.703125 6.796875 
C 19 6.796875 12.40625 14.703125 12.40625 27.703125 
z
" id="HiraginoSansGB-W3-67"/>
      <path d="M 16 0.59375 
C 15.5 4.5 15.296875 7.5 15.296875 11.90625 
L 15.296875 31.09375 
C 16.203125 35.296875 17.5 38 20.296875 41.59375 
C 24.203125 46.5 28.796875 48.90625 34.40625 48.90625 
C 42.203125 48.90625 46.5 44.203125 46.5 35.5 
L 46.5 11.90625 
C 46.5 6.90625 46.296875 3.90625 45.796875 0.59375 
L 54.796875 0.59375 
C 54.296875 4.296875 54.09375 7.203125 54.09375 11.796875 
L 54.09375 36.90625 
C 54.09375 48.59375 47.09375 55.5 35.40625 55.5 
C 29.296875 55.5 24.703125 53.796875 20.40625 50.09375 
C 18 48.09375 16.90625 46.59375 14.90625 43.296875 
C 15.203125 45.90625 15.203125 46.703125 15.203125 48.296875 
L 15.203125 65.203125 
C 15.203125 70.296875 15.40625 72.90625 16 76.59375 
L 7.09375 76.59375 
C 7.59375 72.90625 7.796875 70.296875 7.796875 65.296875 
L 7.796875 11.90625 
C 7.796875 6.90625 7.59375 4.203125 7.09375 0.59375 
z
" id="HiraginoSansGB-W3-68"/>
      <path d="M 4.203125 15.203125 
C 5.203125 11.09375 5.90625 9.40625 7.40625 7.296875 
C 11.09375 2.203125 18.09375 -0.5 27.203125 -0.5 
C 40.90625 -0.5 49.40625 5.703125 49.40625 15.703125 
C 49.40625 19.796875 47.703125 23.59375 44.59375 26.09375 
C 41.59375 28.40625 38.40625 29.59375 28.703125 31.796875 
C 22.5 33.09375 19.90625 33.90625 17.59375 35.203125 
C 15.40625 36.40625 14.203125 38.40625 14.203125 40.703125 
C 14.203125 46 19.40625 49.703125 26.703125 49.703125 
C 31.203125 49.703125 34.796875 48.40625 37.09375 45.90625 
C 38.5 44.5 39 43.296875 39.59375 40.59375 
L 47.5 41.90625 
C 46.203125 46.5 44.796875 48.796875 42.203125 51 
C 38.59375 54.203125 33.296875 55.796875 26.5 55.796875 
C 19.796875 55.796875 14.40625 54 10.90625 50.59375 
C 8.09375 47.90625 6.59375 44.5 6.59375 40.90625 
C 6.59375 36.5 8.5 32.796875 12 30.40625 
C 15.40625 28.09375 18.796875 26.90625 26.796875 25.203125 
C 34.203125 23.703125 36.203125 23.09375 38.59375 21.59375 
C 40.703125 20.296875 41.703125 18.203125 41.703125 15.40625 
C 41.703125 9.5 36.203125 5.796875 27.5 5.796875 
C 22.40625 5.796875 18.40625 7 15.90625 9.296875 
C 13.90625 11.09375 13.09375 12.90625 12.40625 16.59375 
z
" id="HiraginoSansGB-W3-73"/>
      <path d="M 32.703125 -11.90625 
C 27.09375 -3.296875 24.90625 1.203125 22.703125 8.296875 
C 20.40625 15.5 19.296875 23.09375 19.296875 31 
C 19.296875 38.90625 20.40625 46.40625 22.703125 53.59375 
C 24.90625 60.703125 27.09375 65.203125 32.703125 73.796875 
L 26.40625 77.796875 
C 20.59375 68.90625 18.203125 64.09375 15.796875 57 
C 13.09375 48.90625 11.703125 40.296875 11.703125 31 
C 11.703125 21.703125 13.09375 13.09375 15.796875 5 
C 18.203125 -2.203125 20.59375 -7 26.40625 -15.90625 
z
" id="HiraginoSansGB-W3-28"/>
      <path d="M -1.3125 -20.796875 
L 13.375 54.6875 
L 22.40625 54.6875 
L 15.765625 20.65625 
Q 15.578125 19.625 15.421875 18.359375 
Q 15.28125 17.09375 15.28125 15.828125 
Q 15.28125 11.28125 18.140625 8.828125 
Q 21 6.390625 26.3125 6.390625 
Q 33.546875 6.390625 37.984375 10.484375 
Q 42.4375 14.59375 44 22.796875 
L 50.203125 54.6875 
L 59.1875 54.6875 
L 51.03125 12.640625 
Q 50.828125 11.71875 50.75 11.03125 
Q 50.6875 10.359375 50.6875 9.8125 
Q 50.6875 8.296875 51.296875 7.59375 
Q 51.90625 6.890625 53.21875 6.890625 
Q 53.71875 6.890625 54.5625 7.125 
Q 55.421875 7.375 56.984375 8.015625 
L 55.609375 0.78125 
Q 53.46875 -0.296875 51.515625 -0.859375 
Q 49.5625 -1.421875 47.703125 -1.421875 
Q 44.484375 -1.421875 42.65625 0.625 
Q 40.828125 2.6875 40.828125 6.296875 
Q 38.09375 2.390625 34.296875 0.484375 
Q 30.515625 -1.421875 25.390625 -1.421875 
Q 20.84375 -1.421875 17.453125 0.671875 
Q 14.0625 2.78125 12.984375 6.203125 
L 7.71875 -20.796875 
z
" id="DejaVuSans-Oblique-3bc"/>
      <path d="M 89.796875 33.015625 
L 83.40625 0 
L 74.421875 0 
L 80.71875 32.71875 
Q 81.109375 34.8125 81.296875 36.328125 
Q 81.5 37.84375 81.5 38.921875 
Q 81.5 43.3125 79.046875 45.75 
Q 76.609375 48.1875 72.21875 48.1875 
Q 65.671875 48.1875 60.546875 43.28125 
Q 55.421875 38.375 53.90625 30.515625 
L 47.90625 0 
L 38.921875 0 
L 45.3125 32.71875 
Q 45.703125 34.515625 45.890625 36.046875 
Q 46.09375 37.59375 46.09375 38.8125 
Q 46.09375 43.265625 43.65625 45.71875 
Q 41.21875 48.1875 36.921875 48.1875 
Q 30.28125 48.1875 25.140625 43.28125 
Q 20.015625 38.375 18.5 30.515625 
L 12.5 0 
L 3.515625 0 
L 14.203125 54.6875 
L 23.1875 54.6875 
L 21.484375 46.1875 
Q 25.140625 50.984375 30.046875 53.484375 
Q 34.96875 56 40.578125 56 
Q 46.53125 56 50.359375 52.875 
Q 54.203125 49.75 54.984375 44.1875 
Q 59.078125 49.953125 64.46875 52.96875 
Q 69.875 56 75.875 56 
Q 82.90625 56 86.734375 51.953125 
Q 90.578125 47.90625 90.578125 40.484375 
Q 90.578125 38.875 90.375 36.9375 
Q 90.1875 35.015625 89.796875 33.015625 
z
" id="DejaVuSans-Oblique-6d"/>
      <path d="M 2.796875 73.796875 
C 8.40625 65.203125 10.59375 60.703125 12.796875 53.59375 
C 15.09375 46.40625 16.203125 39 16.203125 31 
C 16.203125 23 15.09375 15.5 12.796875 8.296875 
C 10.59375 1.203125 8.40625 -3.296875 2.796875 -11.90625 
L 9.09375 -15.90625 
C 14.90625 -7 17.296875 -2.203125 19.703125 5 
C 22.5 13.09375 23.796875 21.59375 23.796875 31 
C 23.796875 40.296875 22.5 48.90625 19.703125 57 
C 17.296875 64.09375 14.90625 68.90625 9.09375 77.796875 
z
" id="HiraginoSansGB-W3-29"/>
     </defs>
     <g transform="translate(28.959375 236.428)rotate(-90)scale(0.1 -0.1)">
      <use transform="translate(0 0.09375)" xlink:href="#HiraginoSansGB-W3-53"/>
      <use transform="translate(66.899994 0.09375)" xlink:href="#HiraginoSansGB-W3-75"/>
      <use transform="translate(128.699982 0.09375)" xlink:href="#HiraginoSansGB-W3-72"/>
      <use transform="translate(171.699966 0.09375)" xlink:href="#HiraginoSansGB-W3-66"/>
      <use transform="translate(213.399963 0.09375)" xlink:href="#HiraginoSansGB-W3-61"/>
      <use transform="translate(270.899948 0.09375)" xlink:href="#HiraginoSansGB-W3-63"/>
      <use transform="translate(328.699936 0.09375)" xlink:href="#HiraginoSansGB-W3-65"/>
      <use transform="translate(387.499924 0.09375)" xlink:href="#HiraginoSansGB-W3-20"/>
      <use transform="translate(420.799911 0.09375)" xlink:href="#HiraginoSansGB-W3-52"/>
      <use transform="translate(493.399902 0.09375)" xlink:href="#HiraginoSansGB-W3-6f"/>
      <use transform="translate(555.899887 0.09375)" xlink:href="#HiraginoSansGB-W3-75"/>
      <use transform="translate(617.699875 0.09375)" xlink:href="#HiraginoSansGB-W3-67"/>
      <use transform="translate(681.799866 0.09375)" xlink:href="#HiraginoSansGB-W3-68"/>
      <use transform="translate(743.499863 0.09375)" xlink:href="#HiraginoSansGB-W3-6e"/>
      <use transform="translate(805.29985 0.09375)" xlink:href="#HiraginoSansGB-W3-65"/>
      <use transform="translate(864.099838 0.09375)" xlink:href="#HiraginoSansGB-W3-73"/>
      <use transform="translate(917.799835 0.09375)" xlink:href="#HiraginoSansGB-W3-73"/>
      <use transform="translate(971.499832 0.09375)" xlink:href="#HiraginoSansGB-W3-20"/>
      <use transform="translate(1004.79982 0.09375)" xlink:href="#HiraginoSansGB-W3-28"/>
      <use transform="translate(1040.399811 0.09375)" xlink:href="#DejaVuSans-Oblique-3bc"/>
      <use transform="translate(1104.022858 0.09375)" xlink:href="#DejaVuSans-Oblique-6d"/>
      <use transform="translate(1201.434967 0.09375)" xlink:href="#HiraginoSansGB-W3-29"/>
     </g>
    </g>
   </g>
   <g id="line2d_13">
    <path clip-path="url(#p1307be882c)" d="M 73.832727 292.906683 
L 74.554182 289.668861 
L 75.275636 290.245084 
L 75.997091 205.348292 
L 76.718545 213.387969 
L 77.44 161.912086 
L 78.161455 237.122851 
L 78.882909 194.317746 
L 79.604364 207.7355 
L 80.325818 201.753761 
L 81.047273 177.223143 
L 81.768727 170.473107 
L 82.490182 217.833114 
L 83.211636 229.577079 
L 83.933091 231.799652 
L 84.654545 244.503988 
L 85.376 263.409576 
L 86.097455 203.75682 
L 86.818909 228.781343 
L 87.540364 235.284427 
L 88.261818 239.45518 
L 88.983273 229.467322 
L 89.704727 233.885029 
L 90.426182 221.482524 
L 91.147636 202.76901 
L 91.869091 220.906301 
L 92.590545 185.92136 
L 93.312 285.799938 
L 94.033455 224.500833 
L 94.754909 227.958168 
L 95.476364 267.360816 
L 96.197818 271.998036 
L 96.919273 267.360816 
L 97.640727 272.272428 
L 98.362182 216.159325 
L 99.083636 247.439979 
L 99.805091 62.28046 
L 100.526545 108.295948 
L 101.248 90.460488 
L 101.969455 140.811364 
L 102.690909 125.802138 
L 103.412364 128.765569 
L 104.133818 169.128588 
L 104.855273 95.481856 
L 105.576727 100.530663 
L 106.298182 146.134563 
L 107.019636 119.710643 
L 107.741091 115.924037 
L 108.462545 262.339448 
L 109.184 199.833019 
L 109.905455 177.909122 
L 110.626909 182.573781 
L 111.348364 224.391076 
L 112.069818 218.491654 
L 112.791273 258.360768 
L 113.512727 235.750892 
L 114.234182 259.266261 
L 114.955636 255.891243 
L 115.677091 256.001 
L 116.398545 214.540414 
L 117.12 241.046652 
L 117.841455 258.058938 
L 118.562909 243.982643 
L 119.284364 209.189776 
L 120.005818 280.010274 
L 120.727273 237.973465 
L 121.448727 248.757059 
L 122.170182 218.217263 
L 122.891636 169.457858 
L 124.334545 250.156457 
L 125.056 267.635208 
L 125.777455 240.964335 
L 126.498909 239.976525 
L 127.220364 204.113529 
L 127.941818 247.467418 
L 128.663273 238.988714 
L 129.384727 232.348435 
L 130.106182 240.14116 
L 130.827636 265.851662 
L 131.549091 183.396956 
L 132.270545 207.845257 
L 132.992 246.808878 
L 133.713455 239.729572 
L 134.434909 214.183705 
L 135.156364 198.351304 
L 135.877818 197.418372 
L 136.599273 178.704858 
L 137.320727 252.708299 
L 138.042182 226.366696 
L 138.763636 245.135089 
L 139.485091 243.982643 
L 140.206545 188.116493 
L 140.928 194.674455 
L 141.649455 206.967203 
L 142.370909 221.839233 
L 143.092364 190.146992 
L 143.813818 198.049473 
L 144.535273 232.595388 
L 145.256727 228.122803 
L 145.978182 169.183466 
L 146.699636 201.589126 
L 147.421091 223.183753 
L 148.142545 261.900421 
L 148.864 188.089054 
L 149.585455 175.055448 
L 150.306909 186.442704 
L 151.028364 235.970406 
L 151.749818 197.528129 
L 152.471273 177.744487 
L 153.192727 213.470286 
L 153.914182 168.744439 
L 154.635636 224.281319 
L 155.357091 210.836126 
L 156.078545 202.43974 
L 156.8 135.296091 
L 157.521455 141.552222 
L 158.242909 179.089006 
L 158.964364 209.793438 
L 159.685818 194.756772 
L 160.407273 135.597922 
L 161.850182 250.70524 
L 162.571636 151.924228 
L 163.293091 218.29958 
L 164.014545 155.82059 
L 164.736 187.156122 
L 165.457455 196.951906 
L 166.178909 213.799556 
L 166.900364 174.095078 
L 167.621818 179.226202 
L 168.343273 170.06152 
L 169.064727 162.515748 
L 169.786182 168.991392 
L 170.507636 164.07978 
L 171.229091 156.561448 
L 171.950545 144.186382 
L 172.672 200.272046 
L 173.393455 160.595006 
L 174.114909 197.775081 
L 174.836364 171.954822 
L 175.557818 181.28414 
L 176.279273 170.527985 
L 177.000727 170.774938 
L 177.722182 196.842149 
L 179.165091 162.845018 
L 179.886545 188.582959 
L 180.608 193.494571 
L 181.329455 176.701799 
L 182.050909 213.580043 
L 182.772364 114.52464 
L 183.493818 142.540032 
L 184.936727 181.256701 
L 185.658182 161.171228 
L 186.379636 91.530615 
L 187.101091 78.332374 
L 187.822545 106.128254 
L 188.544 116.088672 
L 189.265455 107.198381 
L 190.708364 193.137861 
L 191.429818 168.250534 
L 192.151273 168.854196 
L 192.872727 178.128635 
L 193.594182 164.628564 
L 194.315636 221.592281 
L 195.037091 184.165253 
L 195.758545 97.210523 
L 196.48 171.625552 
L 197.201455 270.845591 
L 197.922909 233.061854 
L 198.644364 256.98881 
L 199.365818 258.607721 
L 200.087273 251.775368 
L 200.808727 229.22037 
L 201.530182 262.037617 
L 202.251636 280.668814 
L 203.694545 290.327401 
L 204.416 286.897505 
L 205.137455 245.189967 
L 205.858909 266.180932 
L 206.580364 260.775415 
L 207.301818 264.177872 
L 208.023273 266.784594 
L 208.744727 268.5407 
L 209.466182 259.156504 
L 210.187636 263.327258 
L 210.909091 284.729811 
L 211.630545 211.933693 
L 212.352 171.927383 
L 213.073455 188.390885 
L 213.794909 174.122517 
L 214.516364 162.790139 
L 215.237818 242.281415 
L 215.959273 236.244797 
L 216.680727 250.513166 
L 217.402182 204.278164 
L 218.123636 260.254071 
L 218.845091 260.501024 
L 219.566545 234.708204 
L 220.288 237.067973 
L 221.009455 208.476357 
L 221.730909 201.7812 
L 222.452364 198.406182 
L 223.173818 181.448775 
L 223.895273 243.351542 
L 224.616727 263.052866 
L 225.338182 215.857494 
L 226.059636 253.202204 
L 227.502545 235.668575 
L 228.224 255.095507 
L 228.945455 169.951763 
L 229.666909 261.763226 
L 230.388364 264.452264 
L 231.109818 249.443038 
L 231.831273 220.275201 
L 232.552727 245.656433 
L 233.274182 221.976429 
L 233.995636 218.162384 
L 234.717091 237.47956 
L 235.438545 251.281463 
L 236.16 170.198715 
L 236.881455 218.848364 
L 237.602909 252.049759 
L 238.324364 247.632053 
L 239.045818 207.488547 
L 239.767273 232.266118 
L 240.488727 230.894159 
L 241.210182 234.214299 
L 241.931636 212.455037 
L 242.653091 204.360482 
L 243.374545 207.680622 
L 244.096 241.897266 
L 244.817455 224.500833 
L 245.538909 241.293605 
L 246.260364 173.217024 
L 246.981818 204.525117 
L 248.424727 236.244797 
L 249.146182 226.284379 
L 249.867636 183.177443 
L 251.310545 183.067686 
L 252.753455 243.543617 
L 254.196364 242.089341 
L 254.917818 254.629041 
L 256.360727 209.738559 
L 257.082182 221.29045 
L 257.803636 215.391028 
L 258.525091 234.598447 
L 259.246545 196.375684 
L 259.968 222.854483 
L 260.689455 259.266261 
L 261.410909 226.394135 
L 262.132364 220.933741 
L 262.853818 199.119601 
L 263.575273 237.506999 
L 264.296727 190.284188 
L 265.018182 228.177681 
L 265.739636 209.71112 
L 266.461091 266.976668 
L 267.182545 185.482333 
L 267.904 155.573638 
L 268.625455 228.781343 
L 269.346909 129.918014 
L 270.068364 194.153111 
L 270.789818 228.397195 
L 271.511273 224.25388 
L 272.232727 259.842484 
L 272.954182 244.42167 
L 273.675636 258.086377 
L 274.397091 213.525165 
L 275.118545 248.016201 
L 275.84 248.043641 
L 276.561455 158.180359 
L 277.282909 220.878862 
L 278.004364 225.049616 
L 278.725818 257.263202 
L 279.447273 226.91548 
L 280.168727 232.567949 
L 280.890182 245.958264 
L 281.611636 241.952145 
L 282.333091 273.809021 
L 283.054545 209.683681 
L 283.776 197.939716 
L 284.497455 258.086377 
L 285.218909 250.732679 
L 285.940364 250.485727 
L 286.661818 267.772404 
L 287.383273 177.387778 
L 288.104727 257.345519 
L 288.826182 260.061997 
L 289.547636 228.836222 
L 290.269091 264.671778 
L 290.990545 268.074235 
L 291.712 243.159468 
L 292.433455 258.443086 
L 293.154909 260.720537 
L 293.876364 278.309045 
L 294.597818 266.263249 
L 295.319273 226.394135 
L 296.040727 263.93092 
L 296.762182 265.714466 
L 297.483636 273.013285 
L 298.205091 271.312057 
L 298.926545 217.174574 
L 299.648 265.604709 
L 300.369455 272.052914 
L 301.090909 274.330365 
L 301.812364 266.866911 
L 302.533818 270.87303 
L 303.255273 279.845638 
L 303.976727 248.702181 
L 304.698182 259.101626 
L 305.419636 188.445763 
L 306.141091 249.854626 
L 306.862545 278.912707 
L 307.584 220.028248 
L 308.305455 278.885268 
L 309.026909 227.464263 
L 309.748364 280.092591 
L 310.469818 264.397386 
L 311.191273 275.51025 
L 311.912727 283.248096 
L 312.634182 150.716905 
L 313.355636 264.562021 
L 314.077091 221.537402 
L 314.798545 273.452312 
L 315.52 244.833258 
L 316.241455 179.96706 
L 316.962909 275.647445 
L 317.684364 191.87566 
L 318.405818 275.290736 
L 319.127273 280.860888 
L 319.848727 274.741953 
L 320.570182 169.732249 
L 321.291636 266.071175 
L 322.734545 248.345471 
L 323.456 189.488452 
L 324.177455 237.260047 
L 324.898909 267.058985 
L 325.620364 263.354697 
L 326.341818 271.037665 
L 327.063273 268.869971 
L 327.784727 204.881826 
L 328.506182 209.409289 
L 329.227636 237.80883 
L 329.949091 259.513214 
L 330.670545 209.738559 
L 331.392 231.333186 
L 332.113455 187.23844 
L 332.834909 257.839424 
L 333.556364 250.348531 
L 334.277818 161.665134 
L 334.999273 245.546676 
L 335.720727 157.329745 
L 336.442182 222.497773 
L 337.163636 263.60165 
L 337.885091 245.574115 
L 338.606545 249.031451 
L 339.328 218.875803 
L 340.049455 201.424491 
L 340.770909 262.366887 
L 341.492364 174.534104 
L 342.213818 238.686884 
L 342.935273 261.241881 
L 343.656727 232.705145 
L 344.378182 239.81189 
L 345.099636 242.473489 
L 345.821091 207.296473 
L 346.542545 195.607387 
L 347.264 192.287247 
L 347.985455 213.36053 
L 348.706909 108.488022 
L 349.428364 155.875469 
L 350.149818 109.064245 
L 350.871273 134.280842 
L 351.592727 184.768915 
L 352.314182 96.689179 
L 353.035636 166.74138 
L 353.757091 197.308615 
L 354.478545 141.689418 
L 355.2 195.717143 
L 355.921455 143.088815 
L 356.642909 241.705192 
L 357.364364 156.012665 
L 358.085818 127.750319 
L 358.807273 245.574115 
L 359.528727 95.646491 
L 360.250182 137.600981 
L 360.971636 199.750701 
L 361.693091 123.058221 
L 362.414545 224.775224 
L 363.136 245.436919 
L 363.857455 232.238679 
L 364.578909 128.847886 
L 365.300364 153.652896 
L 366.021818 203.537307 
L 366.743273 130.110088 
L 367.464727 214.622732 
L 368.186182 196.842149 
L 368.907636 230.235619 
L 369.629091 243.10459 
L 370.350545 180.707917 
L 371.072 241.760071 
L 371.793455 223.513023 
L 372.514909 161.335863 
L 373.236364 253.586353 
L 373.957818 206.830007 
L 374.679273 235.942967 
L 376.122182 184.082935 
L 376.843636 245.601554 
L 377.565091 159.524878 
L 378.286545 177.99144 
L 379.008 266.729715 
L 379.729455 205.40317 
L 380.450909 238.46737 
L 381.172364 249.05889 
L 381.893818 281.519428 
L 382.615273 233.555759 
L 383.336727 222.442895 
L 384.058182 236.738703 
L 384.779636 92.244034 
L 385.501091 160.073662 
L 386.222545 175.768867 
L 386.944 128.07959 
L 387.665455 236.354554 
L 388.386909 104.619099 
L 389.108364 193.988476 
L 389.829818 231.580139 
L 390.551273 133.485106 
L 391.272727 235.449062 
L 391.994182 164.628564 
L 392.715636 247.74181 
L 393.437091 137.32659 
L 394.158545 221.263011 
L 394.88 243.022272 
L 395.601455 141.140634 
L 396.322909 148.000427 
L 397.044364 235.83321 
L 397.765818 184.302449 
L 398.487273 249.443038 
L 398.487273 249.443038 
" style="fill:none;stroke:#1f77b4;stroke-linecap:square;stroke-width:1.5;"/>
   </g>
   <g id="line2d_14">
    <path clip-path="url(#p1307be882c)" d="M 73.832727 295.488 
L 74.554182 290.490734 
L 75.275636 294.566281 
L 75.997091 203.789442 
L 76.718545 207.515462 
L 77.44 159.598908 
L 78.161455 236.675033 
L 78.882909 192.896283 
L 79.604364 209.926411 
L 80.325818 202.985433 
L 81.047273 173.947749 
L 81.768727 172.000298 
L 82.490182 215.256947 
L 83.211636 225.472823 
L 84.654545 235.424944 
L 87.540364 235.423335 
L 88.261818 240.264584 
L 88.983273 222.161589 
L 89.704727 226.676163 
L 90.426182 227.569363 
L 91.147636 202.420498 
L 91.869091 218.978061 
L 92.590545 179.124623 
L 93.312 222.831101 
L 94.033455 211.541123 
L 94.754909 225.134941 
L 95.476364 259.216071 
L 96.197818 264.265086 
L 96.919273 266.982314 
L 97.640727 268.772698 
L 98.362182 215.342576 
L 99.083636 245.447385 
L 99.805091 53.568 
L 100.526545 104.724094 
L 101.248 86.278066 
L 101.969455 142.545287 
L 102.690909 123.50614 
L 103.412364 124.273832 
L 104.133818 163.907821 
L 104.855273 92.584908 
L 105.576727 92.533566 
L 106.298182 139.756439 
L 107.019636 107.906317 
L 107.741091 117.122933 
L 108.462545 224.664613 
L 109.905455 174.713694 
L 110.626909 188.127463 
L 111.348364 233.651193 
L 112.069818 216.685712 
L 112.791273 258.683686 
L 113.512727 230.426451 
L 114.234182 256.307568 
L 114.955636 253.5935 
L 115.677091 255.397136 
L 116.398545 221.334263 
L 117.12 232.363186 
L 117.841455 251.62602 
L 118.562909 244.123929 
L 119.284364 207.449882 
L 120.005818 286.759642 
L 120.727273 238.100962 
L 121.448727 247.328009 
L 122.170182 220.21718 
L 122.891636 170.131498 
L 124.334545 248.13511 
L 125.056 265.38495 
L 125.777455 242.28785 
L 126.498909 240.911634 
L 127.220364 203.586951 
L 127.941818 248.252817 
L 128.663273 230.204775 
L 129.384727 233.997455 
L 130.106182 233.852723 
L 130.827636 268.308199 
L 131.549091 182.259213 
L 132.270545 210.711541 
L 132.992 247.200813 
L 133.713455 242.342524 
L 134.434909 214.160118 
L 135.156364 193.284338 
L 135.877818 194.260497 
L 136.599273 180.124177 
L 137.320727 257.027612 
L 138.042182 228.382292 
L 138.763636 245.493908 
L 139.485091 239.264216 
L 140.206545 187.132797 
L 140.928 192.215564 
L 141.649455 201.538033 
L 142.370909 223.085258 
L 143.092364 191.243359 
L 143.813818 198.798976 
L 144.535273 221.860457 
L 145.256727 212.681562 
L 145.978182 171.727281 
L 147.421091 219.820145 
L 148.142545 264.730716 
L 148.864 184.173918 
L 149.585455 172.322852 
L 150.306909 189.726307 
L 151.028364 242.986311 
L 151.749818 197.352715 
L 152.471273 176.82255 
L 153.192727 203.462738 
L 153.914182 165.451948 
L 154.635636 227.948754 
L 155.357091 206.504153 
L 156.078545 199.454348 
L 156.8 130.896692 
L 157.521455 141.35544 
L 158.242909 178.572465 
L 158.964364 207.351673 
L 159.685818 190.015771 
L 160.407273 134.879225 
L 161.850182 250.44577 
L 162.571636 155.745976 
L 163.293091 215.258282 
L 164.014545 155.027399 
L 164.736 185.320569 
L 166.178909 210.509579 
L 166.900364 172.777077 
L 167.621818 179.470463 
L 168.343273 164.422249 
L 169.064727 161.456551 
L 169.786182 170.29254 
L 170.507636 163.89899 
L 171.229091 154.963575 
L 171.950545 140.886859 
L 172.672 194.97669 
L 173.393455 152.877545 
L 174.114909 220.299874 
L 174.836364 173.598926 
L 175.557818 190.751276 
L 176.279273 167.383453 
L 177.000727 167.059859 
L 177.722182 196.615061 
L 178.443636 172.613611 
L 179.165091 160.634181 
L 179.886545 192.771167 
L 180.608 192.744073 
L 181.329455 173.393608 
L 182.050909 203.68406 
L 182.772364 104.423855 
L 184.215273 162.836496 
L 184.936727 179.352697 
L 185.658182 159.441772 
L 187.101091 73.494047 
L 187.822545 106.360885 
L 188.544 108.474392 
L 189.265455 105.122405 
L 189.986909 153.172092 
L 190.708364 192.774101 
L 191.429818 165.065825 
L 192.151273 166.13827 
L 192.872727 176.681988 
L 193.594182 163.905604 
L 194.315636 221.899287 
L 195.037091 184.699287 
L 195.758545 94.182211 
L 196.48 174.322322 
L 197.201455 276.031947 
L 197.922909 230.99537 
L 198.644364 253.94564 
L 199.365818 265.041462 
L 200.808727 232.104692 
L 201.530182 266.852903 
L 202.251636 282.903259 
L 202.973091 280.825714 
L 203.694545 292.700347 
L 204.416 282.79023 
L 205.137455 237.926516 
L 205.858909 255.546044 
L 206.580364 256.226557 
L 207.301818 264.595334 
L 208.023273 271.26868 
L 208.744727 265.080391 
L 209.466182 259.950526 
L 210.187636 268.272406 
L 210.909091 290.544288 
L 211.630545 207.84567 
L 212.352 179.134495 
L 213.073455 187.986411 
L 213.794909 171.970732 
L 214.516364 162.354294 
L 215.237818 239.17766 
L 215.959273 236.626125 
L 216.680727 251.655543 
L 217.402182 202.319944 
L 218.123636 256.649159 
L 218.845091 266.687335 
L 219.566545 233.872574 
L 220.288 237.204435 
L 221.009455 208.91626 
L 221.730909 199.307977 
L 222.452364 237.341445 
L 223.173818 180.71702 
L 223.895273 243.738263 
L 224.616727 258.374924 
L 225.338182 215.286985 
L 226.059636 260.147973 
L 226.781091 238.533206 
L 227.502545 234.144493 
L 228.224 257.37831 
L 228.945455 158.00184 
L 229.666909 262.27092 
L 230.388364 264.902407 
L 231.109818 250.14352 
L 231.831273 217.811029 
L 232.552727 240.184981 
L 233.274182 222.756954 
L 233.995636 218.768809 
L 234.717091 238.719928 
L 235.438545 246.515227 
L 236.16 173.523405 
L 236.881455 223.354458 
L 237.602909 244.442817 
L 238.324364 244.299655 
L 239.045818 196.398949 
L 239.767273 229.072648 
L 240.488727 231.824962 
L 241.210182 236.630011 
L 241.931636 209.417813 
L 242.653091 205.118762 
L 243.374545 206.176526 
L 244.096 241.104597 
L 244.817455 223.13971 
L 245.538909 224.156407 
L 246.260364 238.407972 
L 246.981818 203.720231 
L 247.703273 214.107471 
L 248.424727 234.964292 
L 249.146182 223.880632 
L 249.867636 238.919328 
L 250.589091 179.922048 
L 251.310545 186.492831 
L 252.032 206.37257 
L 252.753455 253.852132 
L 253.474909 237.176596 
L 254.196364 238.188533 
L 254.917818 249.184857 
L 256.360727 227.958498 
L 257.082182 214.730381 
L 257.803636 214.129943 
L 258.525091 232.995183 
L 259.246545 208.133201 
L 259.968 215.68558 
L 260.689455 256.080377 
L 261.410909 226.75611 
L 262.132364 239.941314 
L 262.853818 217.64355 
L 263.575273 238.906591 
L 264.296727 191.129519 
L 265.018182 228.772536 
L 265.739636 218.969023 
L 266.461091 264.690203 
L 267.182545 192.820438 
L 267.904 154.92291 
L 268.625455 229.665834 
L 269.346909 132.053215 
L 270.068364 194.362798 
L 270.789818 225.54803 
L 271.511273 223.710406 
L 272.232727 257.155471 
L 272.954182 246.554165 
L 274.397091 208.340933 
L 275.118545 241.98085 
L 275.84 245.543405 
L 276.561455 161.043727 
L 277.282909 220.028829 
L 278.004364 226.824693 
L 278.725818 238.813269 
L 279.447273 226.648608 
L 280.168727 200.665283 
L 280.890182 243.132005 
L 281.611636 242.246125 
L 282.333091 268.783645 
L 283.054545 224.322257 
L 283.776 203.551634 
L 284.497455 261.655556 
L 285.218909 256.424426 
L 285.940364 248.125042 
L 286.661818 220.527055 
L 288.104727 261.733109 
L 288.826182 260.312322 
L 289.547636 224.531735 
L 290.269091 267.272316 
L 290.990545 269.393052 
L 291.712 233.970832 
L 292.433455 264.635697 
L 293.154909 237.294745 
L 293.876364 273.551213 
L 294.597818 271.64953 
L 295.319273 220.584942 
L 296.040727 267.244302 
L 296.762182 225.563358 
L 297.483636 274.32585 
L 298.205091 270.525307 
L 298.926545 212.83278 
L 299.648 269.11321 
L 300.369455 245.043511 
L 301.090909 274.342726 
L 301.812364 264.497302 
L 302.533818 263.981152 
L 303.255273 240.85412 
L 303.976727 248.299655 
L 304.698182 264.084561 
L 305.419636 186.037311 
L 306.141091 255.193001 
L 306.862545 277.159323 
L 307.584 213.506453 
L 308.305455 280.171939 
L 309.026909 240.075713 
L 309.748364 275.482024 
L 310.469818 259.292014 
L 311.191273 273.531749 
L 311.912727 283.498447 
L 312.634182 147.600107 
L 313.355636 265.765766 
L 314.077091 228.08799 
L 314.798545 232.006934 
L 315.52 248.613504 
L 316.241455 179.23083 
L 316.962909 274.817573 
L 317.684364 186.740237 
L 318.405818 265.705879 
L 319.127273 282.478925 
L 319.848727 249.897866 
L 320.570182 166.57802 
L 321.291636 268.845047 
L 322.013091 253.944482 
L 322.734545 245.801571 
L 323.456 207.177424 
L 324.177455 245.24588 
L 324.898909 262.729733 
L 325.620364 259.242301 
L 326.341818 268.759156 
L 327.063273 266.359173 
L 327.784727 203.384734 
L 328.506182 206.77088 
L 329.949091 263.248633 
L 330.670545 209.1456 
L 331.392 254.41374 
L 332.113455 184.339189 
L 332.834909 250.276231 
L 333.556364 235.268112 
L 334.277818 170.767185 
L 334.999273 251.136508 
L 335.720727 148.068403 
L 336.442182 191.131432 
L 337.163636 262.189065 
L 337.885091 251.670051 
L 338.606545 247.212702 
L 339.328 216.061987 
L 340.049455 201.849537 
L 340.770909 255.095676 
L 341.492364 169.361854 
L 342.213818 234.500362 
L 342.935273 261.486483 
L 343.656727 233.984129 
L 344.378182 240.015343 
L 345.099636 242.978524 
L 345.821091 202.030018 
L 346.542545 195.235989 
L 347.264 183.469805 
L 347.985455 201.560946 
L 348.706909 105.922224 
L 349.428364 161.463881 
L 350.149818 100.303136 
L 350.871273 128.782204 
L 351.592727 187.099108 
L 352.314182 82.089715 
L 353.035636 162.697455 
L 353.757091 193.854042 
L 354.478545 174.871389 
L 355.2 194.10083 
L 355.921455 142.5572 
L 356.642909 243.213482 
L 357.364364 160.9428 
L 358.085818 121.278685 
L 358.807273 247.739636 
L 359.528727 92.439401 
L 360.250182 128.194621 
L 360.971636 196.014779 
L 361.693091 116.455825 
L 362.414545 218.67007 
L 363.136 244.296113 
L 363.857455 234.111325 
L 364.578909 127.993905 
L 365.300364 147.855137 
L 366.021818 199.470716 
L 366.743273 129.452276 
L 367.464727 231.818328 
L 368.186182 194.803265 
L 368.907636 227.698973 
L 369.629091 253.543679 
L 370.350545 180.819262 
L 371.072 240.784919 
L 371.793455 229.745182 
L 372.514909 157.653626 
L 373.236364 253.261555 
L 373.957818 268.713617 
L 374.679273 236.053968 
L 375.400727 218.604755 
L 376.122182 185.116694 
L 376.843636 246.514246 
L 377.565091 161.997562 
L 378.286545 173.217308 
L 379.008 270.313636 
L 379.729455 210.935366 
L 381.172364 250.002193 
L 381.893818 282.265361 
L 382.615273 229.24835 
L 383.336727 223.485678 
L 384.058182 237.545408 
L 384.779636 91.564826 
L 385.501091 165.487265 
L 386.222545 173.793047 
L 386.944 124.790055 
L 387.665455 234.438815 
L 388.386909 99.889498 
L 389.108364 192.412766 
L 389.829818 234.753852 
L 390.551273 134.712148 
L 391.272727 236.93708 
L 391.994182 165.749989 
L 392.715636 250.620123 
L 393.437091 128.162395 
L 394.158545 220.992427 
L 394.88 243.232657 
L 395.601455 137.375969 
L 396.322909 142.009124 
L 397.044364 235.243383 
L 397.765818 213.020748 
L 398.487273 243.755435 
L 398.487273 243.755435 
" style="fill:none;stroke:#ff7f0e;stroke-linecap:square;stroke-width:1.5;"/>
   </g>
   <g id="patch_3">
    <path d="M 57.6 307.584 
L 57.6 41.472 
" style="fill:none;stroke:#000000;stroke-linecap:square;stroke-linejoin:miter;stroke-width:0.8;"/>
   </g>
   <g id="patch_4">
    <path d="M 414.72 307.584 
L 414.72 41.472 
" style="fill:none;stroke:#000000;stroke-linecap:square;stroke-linejoin:miter;stroke-width:0.8;"/>
   </g>
   <g id="patch_5">
    <path d="M 57.6 307.584 
L 414.72 307.584 
" style="fill:none;stroke:#000000;stroke-linecap:square;stroke-linejoin:miter;stroke-width:0.8;"/>
   </g>
   <g id="patch_6">
    <path d="M 57.6 41.472 
L 414.72 41.472 
" style="fill:none;stroke:#000000;stroke-linecap:square;stroke-linejoin:miter;stroke-width:0.8;"/>
   </g>
   <g id="legend_1">
    <g id="patch_7">
     <path d="M 227.56375 79.2345 
L 407.72 79.2345 
Q 409.72 79.2345 409.72 77.2345 
L 409.72 48.472 
Q 409.72 46.472 407.72 46.472 
L 227.56375 46.472 
Q 225.56375 46.472 225.56375 48.472 
L 225.56375 77.2345 
Q 225.56375 79.2345 227.56375 79.2345 
z
" style="fill:#ffffff;opacity:0.8;stroke:#cccccc;stroke-linejoin:miter;"/>
    </g>
    <g id="line2d_15">
     <path d="M 229.56375 54.762625 
L 249.56375 54.762625 
" style="fill:none;stroke:#1f77b4;stroke-linecap:square;stroke-width:1.5;"/>
    </g>
    <g id="line2d_16"/>
    <g id="text_15">
     <!-- Real Surface Roughness -->
     <defs>
      <path d="M 7.09375 76.59375 
C 7.59375 73 7.796875 70.296875 7.796875 65.40625 
L 7.796875 11.796875 
C 7.796875 7.296875 7.59375 4.203125 7.09375 0.59375 
L 16.09375 0.59375 
C 15.59375 4.59375 15.40625 7.296875 15.40625 11.796875 
L 15.40625 65.296875 
C 15.40625 70.296875 15.59375 73 16.09375 76.59375 
z
" id="HiraginoSansGB-W3-6c"/>
     </defs>
     <g transform="translate(257.56375 58.262625)scale(0.1 -0.1)">
      <use xlink:href="#HiraginoSansGB-W3-52"/>
      <use x="72.599991" xlink:href="#HiraginoSansGB-W3-65"/>
      <use x="131.399979" xlink:href="#HiraginoSansGB-W3-61"/>
      <use x="188.899963" xlink:href="#HiraginoSansGB-W3-6c"/>
      <use x="212.09996" xlink:href="#HiraginoSansGB-W3-20"/>
      <use x="245.399948" xlink:href="#HiraginoSansGB-W3-53"/>
      <use x="312.299942" xlink:href="#HiraginoSansGB-W3-75"/>
      <use x="374.09993" xlink:href="#HiraginoSansGB-W3-72"/>
      <use x="417.099915" xlink:href="#HiraginoSansGB-W3-66"/>
      <use x="458.799911" xlink:href="#HiraginoSansGB-W3-61"/>
      <use x="516.299896" xlink:href="#HiraginoSansGB-W3-63"/>
      <use x="574.099884" xlink:href="#HiraginoSansGB-W3-65"/>
      <use x="632.899872" xlink:href="#HiraginoSansGB-W3-20"/>
      <use x="666.19986" xlink:href="#HiraginoSansGB-W3-52"/>
      <use x="738.79985" xlink:href="#HiraginoSansGB-W3-6f"/>
      <use x="801.299835" xlink:href="#HiraginoSansGB-W3-75"/>
      <use x="863.099823" xlink:href="#HiraginoSansGB-W3-67"/>
      <use x="927.199814" xlink:href="#HiraginoSansGB-W3-68"/>
      <use x="988.899811" xlink:href="#HiraginoSansGB-W3-6e"/>
      <use x="1050.699799" xlink:href="#HiraginoSansGB-W3-65"/>
      <use x="1109.499786" xlink:href="#HiraginoSansGB-W3-73"/>
      <use x="1163.199783" xlink:href="#HiraginoSansGB-W3-73"/>
     </g>
    </g>
    <g id="line2d_17">
     <path d="M 229.56375 69.643875 
L 249.56375 69.643875 
" style="fill:none;stroke:#ff7f0e;stroke-linecap:square;stroke-width:1.5;"/>
    </g>
    <g id="line2d_18"/>
    <g id="text_16">
     <!-- Predicted Surface Roughness -->
     <defs>
      <path d="M 17.09375 0.59375 
C 16.5 4 16.296875 7.09375 16.296875 11.90625 
L 16.296875 31.59375 
L 38.59375 31.59375 
C 54.203125 31.59375 63.203125 40.09375 63.203125 54.796875 
C 63.203125 68.703125 54.5 76.59375 39.09375 76.59375 
L 18.703125 76.59375 
C 14.09375 76.59375 11.296875 76.703125 7.703125 76.90625 
C 8.296875 72.703125 8.5 69.59375 8.5 65.5 
L 8.5 11.796875 
C 8.5 7.09375 8.296875 4.203125 7.703125 0.59375 
z
M 16.296875 38.5 
L 16.296875 69.703125 
L 38.59375 69.703125 
C 49.40625 69.703125 55.203125 64.40625 55.203125 54.40625 
C 55.203125 44.203125 49.203125 38.5 38.59375 38.5 
z
" id="HiraginoSansGB-W3-50"/>
      <path d="M 49.40625 0.59375 
L 57.40625 0.59375 
C 56.90625 4.5 56.703125 7.09375 56.703125 12.09375 
L 56.703125 65.296875 
C 56.703125 69.703125 56.90625 72.59375 57.40625 76.59375 
L 48.59375 76.59375 
C 49.09375 72.796875 49.296875 69.90625 49.296875 65.203125 
L 49.296875 51.796875 
C 49.296875 49.5 49.296875 48.59375 49.59375 46.5 
L 49.703125 45 
C 45.296875 51.90625 38.296875 55.59375 29.203125 55.59375 
C 14.203125 55.59375 4.59375 44.703125 4.59375 27.59375 
C 4.59375 10.203125 14 -0.40625 29.40625 -0.40625 
C 38.5 -0.40625 45 3.09375 49.703125 10.40625 
C 49.5 8.703125 49.40625 6.90625 49.40625 5.5 
z
M 30 49.09375 
C 35.296875 49.09375 40.09375 47.203125 43.59375 43.796875 
C 47.203125 40.296875 49.203125 34.5 49.203125 27.90625 
C 49.203125 14.703125 41.703125 6.203125 30 6.203125 
C 24.40625 6.203125 19.703125 8.296875 16.59375 12.203125 
C 14 15.5 12.5 21.203125 12.5 27.796875 
C 12.5 41.09375 19.09375 49.09375 30 49.09375 
z
" id="HiraginoSansGB-W3-64"/>
      <path d="M 7 76.59375 
L 7 67.703125 
L 16.703125 67.703125 
L 16.703125 76.59375 
z
M 7.296875 54.5 
C 7.796875 51 8 48 8 43.203125 
L 8 11.90625 
C 8 7.703125 7.796875 4.90625 7.296875 0.59375 
L 16.296875 0.59375 
C 15.796875 4.5 15.59375 7.296875 15.59375 11.90625 
L 15.59375 43.203125 
C 15.59375 48.203125 15.796875 51 16.296875 54.5 
z
" id="HiraginoSansGB-W3-69"/>
      <path d="M 13.40625 69.40625 
C 13.90625 66.09375 14.09375 62.296875 14.09375 58.296875 
L 14.09375 54.5 
L 10.09375 54.5 
C 5.90625 54.5 3.90625 54.59375 1.09375 55.09375 
L 1.09375 47.5 
C 4.40625 47.90625 6.703125 48.09375 10.09375 48.09375 
L 14.09375 48.09375 
L 14.09375 12.296875 
C 14.09375 7.59375 14.90625 4.703125 16.90625 2.703125 
C 18.90625 0.703125 22.296875 -0.40625 26.703125 -0.40625 
C 30.796875 -0.40625 33.90625 0.203125 38 1.90625 
L 35.796875 8.90625 
C 32.5 6.90625 30.5 6.296875 27.90625 6.296875 
C 25.796875 6.296875 24.09375 6.90625 23 8 
C 22.09375 8.90625 21.703125 10.40625 21.703125 13.296875 
L 21.703125 48.09375 
L 26.5 48.09375 
C 31 48.09375 33.5 48 36.703125 47.5 
L 36.703125 55.09375 
C 33.203125 54.59375 31.09375 54.5 26.5 54.5 
L 21.703125 54.5 
L 21.703125 58.296875 
C 21.703125 62.59375 21.90625 66.203125 22.40625 69.40625 
z
" id="HiraginoSansGB-W3-74"/>
     </defs>
     <g transform="translate(257.56375 73.143875)scale(0.1 -0.1)">
      <use xlink:href="#HiraginoSansGB-W3-50"/>
      <use x="66.199997" xlink:href="#HiraginoSansGB-W3-72"/>
      <use x="109.199982" xlink:href="#HiraginoSansGB-W3-65"/>
      <use x="167.999969" xlink:href="#HiraginoSansGB-W3-64"/>
      <use x="232.59996" xlink:href="#HiraginoSansGB-W3-69"/>
      <use x="256.399948" xlink:href="#HiraginoSansGB-W3-63"/>
      <use x="314.199936" xlink:href="#HiraginoSansGB-W3-74"/>
      <use x="353.399933" xlink:href="#HiraginoSansGB-W3-65"/>
      <use x="412.199921" xlink:href="#HiraginoSansGB-W3-64"/>
      <use x="476.799911" xlink:href="#HiraginoSansGB-W3-20"/>
      <use x="510.099899" xlink:href="#HiraginoSansGB-W3-53"/>
      <use x="576.999893" xlink:href="#HiraginoSansGB-W3-75"/>
      <use x="638.799881" xlink:href="#HiraginoSansGB-W3-72"/>
      <use x="681.799866" xlink:href="#HiraginoSansGB-W3-66"/>
      <use x="723.499863" xlink:href="#HiraginoSansGB-W3-61"/>
      <use x="780.999847" xlink:href="#HiraginoSansGB-W3-63"/>
      <use x="838.799835" xlink:href="#HiraginoSansGB-W3-65"/>
      <use x="897.599823" xlink:href="#HiraginoSansGB-W3-20"/>
      <use x="930.899811" xlink:href="#HiraginoSansGB-W3-52"/>
      <use x="1003.499802" xlink:href="#HiraginoSansGB-W3-6f"/>
      <use x="1065.999786" xlink:href="#HiraginoSansGB-W3-75"/>
      <use x="1127.799774" xlink:href="#HiraginoSansGB-W3-67"/>
      <use x="1191.899765" xlink:href="#HiraginoSansGB-W3-68"/>
      <use x="1253.599762" xlink:href="#HiraginoSansGB-W3-6e"/>
      <use x="1315.39975" xlink:href="#HiraginoSansGB-W3-65"/>
      <use x="1374.199738" xlink:href="#HiraginoSansGB-W3-73"/>
      <use x="1427.899734" xlink:href="#HiraginoSansGB-W3-73"/>
     </g>
    </g>
   </g>
  </g>
 </g>
 <defs>
  <clipPath id="p1307be882c">
   <rect height="266.112" width="357.12" x="57.6" y="41.472"/>
  </clipPath>
 </defs>
</svg>
