<?xml version="1.0" encoding="utf-8" standalone="no"?>
<!DOCTYPE svg PUBLIC "-//W3C//DTD SVG 1.1//EN"
  "http://www.w3.org/Graphics/SVG/1.1/DTD/svg11.dtd">
<!-- Created with matplotlib (http://matplotlib.org/) -->
<svg height="606.24pt" version="1.1" viewBox="0 0 1110.96 606.24" width="1110.96pt" xmlns="http://www.w3.org/2000/svg" xmlns:xlink="http://www.w3.org/1999/xlink">
 <defs>
  <style type="text/css">
*{stroke-linecap:butt;stroke-linejoin:round;}
  </style>
 </defs>
 <g id="figure_1">
  <g id="patch_1">
   <path d="M 0 606.24 
L 1110.96 606.24 
L 1110.96 0 
L 0 0 
z
" style="fill:#ffffff;"/>
  </g>
  <g id="axes_1">
   <g id="patch_2">
    <path d="M 138.87 539.5536 
L 999.864 539.5536 
L 999.864 72.7488 
L 138.87 72.7488 
z
" style="fill:#ffffff;"/>
   </g>
   <g id="matplotlib.axis_1">
    <g id="xtick_1">
     <g id="line2d_1">
      <defs>
       <path d="M 0 0 
L 0 3.5 
" id="m25826f445d" style="stroke:#000000;stroke-width:0.8;"/>
      </defs>
      <g>
       <use style="stroke:#000000;stroke-width:0.8;" x="178.006091" xlink:href="#m25826f445d" y="539.5536"/>
      </g>
     </g>
     <g id="text_1">
      <!-- 0 -->
      <defs>
       <path d="M 31.78125 66.40625 
Q 24.171875 66.40625 20.328125 58.90625 
Q 16.5 51.421875 16.5 36.375 
Q 16.5 21.390625 20.328125 13.890625 
Q 24.171875 6.390625 31.78125 6.390625 
Q 39.453125 6.390625 43.28125 13.890625 
Q 47.125 21.390625 47.125 36.375 
Q 47.125 51.421875 43.28125 58.90625 
Q 39.453125 66.40625 31.78125 66.40625 
z
M 31.78125 74.21875 
Q 44.046875 74.21875 50.515625 64.515625 
Q 56.984375 54.828125 56.984375 36.375 
Q 56.984375 17.96875 50.515625 8.265625 
Q 44.046875 -1.421875 31.78125 -1.421875 
Q 19.53125 -1.421875 13.0625 8.265625 
Q 6.59375 17.96875 6.59375 36.375 
Q 6.59375 54.828125 13.0625 64.515625 
Q 19.53125 74.21875 31.78125 74.21875 
z
" id="DejaVuSans-30"/>
      </defs>
      <g transform="translate(174.824841 554.152038)scale(0.1 -0.1)">
       <use xlink:href="#DejaVuSans-30"/>
      </g>
     </g>
    </g>
    <g id="xtick_2">
     <g id="line2d_2">
      <g>
       <use style="stroke:#000000;stroke-width:0.8;" x="351.944273" xlink:href="#m25826f445d" y="539.5536"/>
      </g>
     </g>
     <g id="text_2">
      <!-- 100 -->
      <defs>
       <path d="M 12.40625 8.296875 
L 28.515625 8.296875 
L 28.515625 63.921875 
L 10.984375 60.40625 
L 10.984375 69.390625 
L 28.421875 72.90625 
L 38.28125 72.90625 
L 38.28125 8.296875 
L 54.390625 8.296875 
L 54.390625 0 
L 12.40625 0 
z
" id="DejaVuSans-31"/>
      </defs>
      <g transform="translate(342.400523 554.152038)scale(0.1 -0.1)">
       <use xlink:href="#DejaVuSans-31"/>
       <use x="63.623047" xlink:href="#DejaVuSans-30"/>
       <use x="127.246094" xlink:href="#DejaVuSans-30"/>
      </g>
     </g>
    </g>
    <g id="xtick_3">
     <g id="line2d_3">
      <g>
       <use style="stroke:#000000;stroke-width:0.8;" x="525.882455" xlink:href="#m25826f445d" y="539.5536"/>
      </g>
     </g>
     <g id="text_3">
      <!-- 200 -->
      <defs>
       <path d="M 19.1875 8.296875 
L 53.609375 8.296875 
L 53.609375 0 
L 7.328125 0 
L 7.328125 8.296875 
Q 12.9375 14.109375 22.625 23.890625 
Q 32.328125 33.6875 34.8125 36.53125 
Q 39.546875 41.84375 41.421875 45.53125 
Q 43.3125 49.21875 43.3125 52.78125 
Q 43.3125 58.59375 39.234375 62.25 
Q 35.15625 65.921875 28.609375 65.921875 
Q 23.96875 65.921875 18.8125 64.3125 
Q 13.671875 62.703125 7.8125 59.421875 
L 7.8125 69.390625 
Q 13.765625 71.78125 18.9375 73 
Q 24.125 74.21875 28.421875 74.21875 
Q 39.75 74.21875 46.484375 68.546875 
Q 53.21875 62.890625 53.21875 53.421875 
Q 53.21875 48.921875 51.53125 44.890625 
Q 49.859375 40.875 45.40625 35.40625 
Q 44.1875 33.984375 37.640625 27.21875 
Q 31.109375 20.453125 19.1875 8.296875 
z
" id="DejaVuSans-32"/>
      </defs>
      <g transform="translate(516.338705 554.152038)scale(0.1 -0.1)">
       <use xlink:href="#DejaVuSans-32"/>
       <use x="63.623047" xlink:href="#DejaVuSans-30"/>
       <use x="127.246094" xlink:href="#DejaVuSans-30"/>
      </g>
     </g>
    </g>
    <g id="xtick_4">
     <g id="line2d_4">
      <g>
       <use style="stroke:#000000;stroke-width:0.8;" x="699.820636" xlink:href="#m25826f445d" y="539.5536"/>
      </g>
     </g>
     <g id="text_4">
      <!-- 300 -->
      <defs>
       <path d="M 40.578125 39.3125 
Q 47.65625 37.796875 51.625 33 
Q 55.609375 28.21875 55.609375 21.1875 
Q 55.609375 10.40625 48.1875 4.484375 
Q 40.765625 -1.421875 27.09375 -1.421875 
Q 22.515625 -1.421875 17.65625 -0.515625 
Q 12.796875 0.390625 7.625 2.203125 
L 7.625 11.71875 
Q 11.71875 9.328125 16.59375 8.109375 
Q 21.484375 6.890625 26.8125 6.890625 
Q 36.078125 6.890625 40.9375 10.546875 
Q 45.796875 14.203125 45.796875 21.1875 
Q 45.796875 27.640625 41.28125 31.265625 
Q 36.765625 34.90625 28.71875 34.90625 
L 20.21875 34.90625 
L 20.21875 43.015625 
L 29.109375 43.015625 
Q 36.375 43.015625 40.234375 45.921875 
Q 44.09375 48.828125 44.09375 54.296875 
Q 44.09375 59.90625 40.109375 62.90625 
Q 36.140625 65.921875 28.71875 65.921875 
Q 24.65625 65.921875 20.015625 65.03125 
Q 15.375 64.15625 9.8125 62.3125 
L 9.8125 71.09375 
Q 15.4375 72.65625 20.34375 73.4375 
Q 25.25 74.21875 29.59375 74.21875 
Q 40.828125 74.21875 47.359375 69.109375 
Q 53.90625 64.015625 53.90625 55.328125 
Q 53.90625 49.265625 50.4375 45.09375 
Q 46.96875 40.921875 40.578125 39.3125 
z
" id="DejaVuSans-33"/>
      </defs>
      <g transform="translate(690.276886 554.152038)scale(0.1 -0.1)">
       <use xlink:href="#DejaVuSans-33"/>
       <use x="63.623047" xlink:href="#DejaVuSans-30"/>
       <use x="127.246094" xlink:href="#DejaVuSans-30"/>
      </g>
     </g>
    </g>
    <g id="xtick_5">
     <g id="line2d_5">
      <g>
       <use style="stroke:#000000;stroke-width:0.8;" x="873.758818" xlink:href="#m25826f445d" y="539.5536"/>
      </g>
     </g>
     <g id="text_5">
      <!-- 400 -->
      <defs>
       <path d="M 37.796875 64.3125 
L 12.890625 25.390625 
L 37.796875 25.390625 
z
M 35.203125 72.90625 
L 47.609375 72.90625 
L 47.609375 25.390625 
L 58.015625 25.390625 
L 58.015625 17.1875 
L 47.609375 17.1875 
L 47.609375 0 
L 37.796875 0 
L 37.796875 17.1875 
L 4.890625 17.1875 
L 4.890625 26.703125 
z
" id="DejaVuSans-34"/>
      </defs>
      <g transform="translate(864.215068 554.152038)scale(0.1 -0.1)">
       <use xlink:href="#DejaVuSans-34"/>
       <use x="63.623047" xlink:href="#DejaVuSans-30"/>
       <use x="127.246094" xlink:href="#DejaVuSans-30"/>
      </g>
     </g>
    </g>
    <g id="text_6">
     <!-- Run -->
     <defs>
      <path d="M 44.390625 34.1875 
Q 47.5625 33.109375 50.5625 29.59375 
Q 53.5625 26.078125 56.59375 19.921875 
L 66.609375 0 
L 56 0 
L 46.6875 18.703125 
Q 43.0625 26.03125 39.671875 28.421875 
Q 36.28125 30.8125 30.421875 30.8125 
L 19.671875 30.8125 
L 19.671875 0 
L 9.8125 0 
L 9.8125 72.90625 
L 32.078125 72.90625 
Q 44.578125 72.90625 50.734375 67.671875 
Q 56.890625 62.453125 56.890625 51.90625 
Q 56.890625 45.015625 53.6875 40.46875 
Q 50.484375 35.9375 44.390625 34.1875 
z
M 19.671875 64.796875 
L 19.671875 38.921875 
L 32.078125 38.921875 
Q 39.203125 38.921875 42.84375 42.21875 
Q 46.484375 45.515625 46.484375 51.90625 
Q 46.484375 58.296875 42.84375 61.546875 
Q 39.203125 64.796875 32.078125 64.796875 
z
" id="DejaVuSans-52"/>
      <path d="M 8.5 21.578125 
L 8.5 54.6875 
L 17.484375 54.6875 
L 17.484375 21.921875 
Q 17.484375 14.15625 20.5 10.265625 
Q 23.53125 6.390625 29.59375 6.390625 
Q 36.859375 6.390625 41.078125 11.03125 
Q 45.3125 15.671875 45.3125 23.6875 
L 45.3125 54.6875 
L 54.296875 54.6875 
L 54.296875 0 
L 45.3125 0 
L 45.3125 8.40625 
Q 42.046875 3.421875 37.71875 1 
Q 33.40625 -1.421875 27.6875 -1.421875 
Q 18.265625 -1.421875 13.375 4.4375 
Q 8.5 10.296875 8.5 21.578125 
z
M 31.109375 56 
z
" id="DejaVuSans-75"/>
      <path d="M 54.890625 33.015625 
L 54.890625 0 
L 45.90625 0 
L 45.90625 32.71875 
Q 45.90625 40.484375 42.875 44.328125 
Q 39.84375 48.1875 33.796875 48.1875 
Q 26.515625 48.1875 22.3125 43.546875 
Q 18.109375 38.921875 18.109375 30.90625 
L 18.109375 0 
L 9.078125 0 
L 9.078125 54.6875 
L 18.109375 54.6875 
L 18.109375 46.1875 
Q 21.34375 51.125 25.703125 53.5625 
Q 30.078125 56 35.796875 56 
Q 45.21875 56 50.046875 50.171875 
Q 54.890625 44.34375 54.890625 33.015625 
z
" id="DejaVuSans-6e"/>
     </defs>
     <g transform="translate(559.558406 567.830163)scale(0.1 -0.1)">
      <use xlink:href="#DejaVuSans-52"/>
      <use x="69.419922" xlink:href="#DejaVuSans-75"/>
      <use x="132.798828" xlink:href="#DejaVuSans-6e"/>
     </g>
    </g>
   </g>
   <g id="matplotlib.axis_2">
    <g id="ytick_1">
     <g id="line2d_6">
      <defs>
       <path d="M 0 0 
L -3.5 0 
" id="m945dffd52f" style="stroke:#000000;stroke-width:0.8;"/>
      </defs>
      <g>
       <use style="stroke:#000000;stroke-width:0.8;" x="138.87" xlink:href="#m945dffd52f" y="530.883401"/>
      </g>
     </g>
     <g id="text_7">
      <!-- 0.0 -->
      <defs>
       <path d="M 10.6875 12.40625 
L 21 12.40625 
L 21 0 
L 10.6875 0 
z
" id="DejaVuSans-2e"/>
      </defs>
      <g transform="translate(115.966875 534.682619)scale(0.1 -0.1)">
       <use xlink:href="#DejaVuSans-30"/>
       <use x="63.623047" xlink:href="#DejaVuSans-2e"/>
       <use x="95.410156" xlink:href="#DejaVuSans-30"/>
      </g>
     </g>
    </g>
    <g id="ytick_2">
     <g id="line2d_7">
      <g>
       <use style="stroke:#000000;stroke-width:0.8;" x="138.87" xlink:href="#m945dffd52f" y="457.538415"/>
      </g>
     </g>
     <g id="text_8">
      <!-- 0.5 -->
      <defs>
       <path d="M 10.796875 72.90625 
L 49.515625 72.90625 
L 49.515625 64.59375 
L 19.828125 64.59375 
L 19.828125 46.734375 
Q 21.96875 47.46875 24.109375 47.828125 
Q 26.265625 48.1875 28.421875 48.1875 
Q 40.625 48.1875 47.75 41.5 
Q 54.890625 34.8125 54.890625 23.390625 
Q 54.890625 11.625 47.5625 5.09375 
Q 40.234375 -1.421875 26.90625 -1.421875 
Q 22.3125 -1.421875 17.546875 -0.640625 
Q 12.796875 0.140625 7.71875 1.703125 
L 7.71875 11.625 
Q 12.109375 9.234375 16.796875 8.0625 
Q 21.484375 6.890625 26.703125 6.890625 
Q 35.15625 6.890625 40.078125 11.328125 
Q 45.015625 15.765625 45.015625 23.390625 
Q 45.015625 31 40.078125 35.4375 
Q 35.15625 39.890625 26.703125 39.890625 
Q 22.75 39.890625 18.8125 39.015625 
Q 14.890625 38.140625 10.796875 36.28125 
z
" id="DejaVuSans-35"/>
      </defs>
      <g transform="translate(115.966875 461.337634)scale(0.1 -0.1)">
       <use xlink:href="#DejaVuSans-30"/>
       <use x="63.623047" xlink:href="#DejaVuSans-2e"/>
       <use x="95.410156" xlink:href="#DejaVuSans-35"/>
      </g>
     </g>
    </g>
    <g id="ytick_3">
     <g id="line2d_8">
      <g>
       <use style="stroke:#000000;stroke-width:0.8;" x="138.87" xlink:href="#m945dffd52f" y="384.19343"/>
      </g>
     </g>
     <g id="text_9">
      <!-- 1.0 -->
      <g transform="translate(115.966875 387.992649)scale(0.1 -0.1)">
       <use xlink:href="#DejaVuSans-31"/>
       <use x="63.623047" xlink:href="#DejaVuSans-2e"/>
       <use x="95.410156" xlink:href="#DejaVuSans-30"/>
      </g>
     </g>
    </g>
    <g id="ytick_4">
     <g id="line2d_9">
      <g>
       <use style="stroke:#000000;stroke-width:0.8;" x="138.87" xlink:href="#m945dffd52f" y="310.848445"/>
      </g>
     </g>
     <g id="text_10">
      <!-- 1.5 -->
      <g transform="translate(115.966875 314.647664)scale(0.1 -0.1)">
       <use xlink:href="#DejaVuSans-31"/>
       <use x="63.623047" xlink:href="#DejaVuSans-2e"/>
       <use x="95.410156" xlink:href="#DejaVuSans-35"/>
      </g>
     </g>
    </g>
    <g id="ytick_5">
     <g id="line2d_10">
      <g>
       <use style="stroke:#000000;stroke-width:0.8;" x="138.87" xlink:href="#m945dffd52f" y="237.50346"/>
      </g>
     </g>
     <g id="text_11">
      <!-- 2.0 -->
      <g transform="translate(115.966875 241.302678)scale(0.1 -0.1)">
       <use xlink:href="#DejaVuSans-32"/>
       <use x="63.623047" xlink:href="#DejaVuSans-2e"/>
       <use x="95.410156" xlink:href="#DejaVuSans-30"/>
      </g>
     </g>
    </g>
    <g id="ytick_6">
     <g id="line2d_11">
      <g>
       <use style="stroke:#000000;stroke-width:0.8;" x="138.87" xlink:href="#m945dffd52f" y="164.158475"/>
      </g>
     </g>
     <g id="text_12">
      <!-- 2.5 -->
      <g transform="translate(115.966875 167.957693)scale(0.1 -0.1)">
       <use xlink:href="#DejaVuSans-32"/>
       <use x="63.623047" xlink:href="#DejaVuSans-2e"/>
       <use x="95.410156" xlink:href="#DejaVuSans-35"/>
      </g>
     </g>
    </g>
    <g id="ytick_7">
     <g id="line2d_12">
      <g>
       <use style="stroke:#000000;stroke-width:0.8;" x="138.87" xlink:href="#m945dffd52f" y="90.813489"/>
      </g>
     </g>
     <g id="text_13">
      <!-- 3.0 -->
      <g transform="translate(115.966875 94.612708)scale(0.1 -0.1)">
       <use xlink:href="#DejaVuSans-33"/>
       <use x="63.623047" xlink:href="#DejaVuSans-2e"/>
       <use x="95.410156" xlink:href="#DejaVuSans-30"/>
      </g>
     </g>
    </g>
    <g id="text_14">
     <!-- Surface Roughness ($\mu m$) -->
     <defs>
      <path d="M 53.515625 70.515625 
L 53.515625 60.890625 
Q 47.90625 63.578125 42.921875 64.890625 
Q 37.9375 66.21875 33.296875 66.21875 
Q 25.25 66.21875 20.875 63.09375 
Q 16.5 59.96875 16.5 54.203125 
Q 16.5 49.359375 19.40625 46.890625 
Q 22.3125 44.4375 30.421875 42.921875 
L 36.375 41.703125 
Q 47.40625 39.59375 52.65625 34.296875 
Q 57.90625 29 57.90625 20.125 
Q 57.90625 9.515625 50.796875 4.046875 
Q 43.703125 -1.421875 29.984375 -1.421875 
Q 24.8125 -1.421875 18.96875 -0.25 
Q 13.140625 0.921875 6.890625 3.21875 
L 6.890625 13.375 
Q 12.890625 10.015625 18.65625 8.296875 
Q 24.421875 6.59375 29.984375 6.59375 
Q 38.421875 6.59375 43.015625 9.90625 
Q 47.609375 13.234375 47.609375 19.390625 
Q 47.609375 24.75 44.3125 27.78125 
Q 41.015625 30.8125 33.5 32.328125 
L 27.484375 33.5 
Q 16.453125 35.6875 11.515625 40.375 
Q 6.59375 45.0625 6.59375 53.421875 
Q 6.59375 63.09375 13.40625 68.65625 
Q 20.21875 74.21875 32.171875 74.21875 
Q 37.3125 74.21875 42.625 73.28125 
Q 47.953125 72.359375 53.515625 70.515625 
z
" id="DejaVuSans-53"/>
      <path d="M 41.109375 46.296875 
Q 39.59375 47.171875 37.8125 47.578125 
Q 36.03125 48 33.890625 48 
Q 26.265625 48 22.1875 43.046875 
Q 18.109375 38.09375 18.109375 28.8125 
L 18.109375 0 
L 9.078125 0 
L 9.078125 54.6875 
L 18.109375 54.6875 
L 18.109375 46.1875 
Q 20.953125 51.171875 25.484375 53.578125 
Q 30.03125 56 36.53125 56 
Q 37.453125 56 38.578125 55.875 
Q 39.703125 55.765625 41.0625 55.515625 
z
" id="DejaVuSans-72"/>
      <path d="M 37.109375 75.984375 
L 37.109375 68.5 
L 28.515625 68.5 
Q 23.6875 68.5 21.796875 66.546875 
Q 19.921875 64.59375 19.921875 59.515625 
L 19.921875 54.6875 
L 34.71875 54.6875 
L 34.71875 47.703125 
L 19.921875 47.703125 
L 19.921875 0 
L 10.890625 0 
L 10.890625 47.703125 
L 2.296875 47.703125 
L 2.296875 54.6875 
L 10.890625 54.6875 
L 10.890625 58.5 
Q 10.890625 67.625 15.140625 71.796875 
Q 19.390625 75.984375 28.609375 75.984375 
z
" id="DejaVuSans-66"/>
      <path d="M 34.28125 27.484375 
Q 23.390625 27.484375 19.1875 25 
Q 14.984375 22.515625 14.984375 16.5 
Q 14.984375 11.71875 18.140625 8.90625 
Q 21.296875 6.109375 26.703125 6.109375 
Q 34.1875 6.109375 38.703125 11.40625 
Q 43.21875 16.703125 43.21875 25.484375 
L 43.21875 27.484375 
z
M 52.203125 31.203125 
L 52.203125 0 
L 43.21875 0 
L 43.21875 8.296875 
Q 40.140625 3.328125 35.546875 0.953125 
Q 30.953125 -1.421875 24.3125 -1.421875 
Q 15.921875 -1.421875 10.953125 3.296875 
Q 6 8.015625 6 15.921875 
Q 6 25.140625 12.171875 29.828125 
Q 18.359375 34.515625 30.609375 34.515625 
L 43.21875 34.515625 
L 43.21875 35.40625 
Q 43.21875 41.609375 39.140625 45 
Q 35.0625 48.390625 27.6875 48.390625 
Q 23 48.390625 18.546875 47.265625 
Q 14.109375 46.140625 10.015625 43.890625 
L 10.015625 52.203125 
Q 14.9375 54.109375 19.578125 55.046875 
Q 24.21875 56 28.609375 56 
Q 40.484375 56 46.34375 49.84375 
Q 52.203125 43.703125 52.203125 31.203125 
z
" id="DejaVuSans-61"/>
      <path d="M 48.78125 52.59375 
L 48.78125 44.1875 
Q 44.96875 46.296875 41.140625 47.34375 
Q 37.3125 48.390625 33.40625 48.390625 
Q 24.65625 48.390625 19.8125 42.84375 
Q 14.984375 37.3125 14.984375 27.296875 
Q 14.984375 17.28125 19.8125 11.734375 
Q 24.65625 6.203125 33.40625 6.203125 
Q 37.3125 6.203125 41.140625 7.25 
Q 44.96875 8.296875 48.78125 10.40625 
L 48.78125 2.09375 
Q 45.015625 0.34375 40.984375 -0.53125 
Q 36.96875 -1.421875 32.421875 -1.421875 
Q 20.0625 -1.421875 12.78125 6.34375 
Q 5.515625 14.109375 5.515625 27.296875 
Q 5.515625 40.671875 12.859375 48.328125 
Q 20.21875 56 33.015625 56 
Q 37.15625 56 41.109375 55.140625 
Q 45.0625 54.296875 48.78125 52.59375 
z
" id="DejaVuSans-63"/>
      <path d="M 56.203125 29.59375 
L 56.203125 25.203125 
L 14.890625 25.203125 
Q 15.484375 15.921875 20.484375 11.0625 
Q 25.484375 6.203125 34.421875 6.203125 
Q 39.59375 6.203125 44.453125 7.46875 
Q 49.3125 8.734375 54.109375 11.28125 
L 54.109375 2.78125 
Q 49.265625 0.734375 44.1875 -0.34375 
Q 39.109375 -1.421875 33.890625 -1.421875 
Q 20.796875 -1.421875 13.15625 6.1875 
Q 5.515625 13.8125 5.515625 26.8125 
Q 5.515625 40.234375 12.765625 48.109375 
Q 20.015625 56 32.328125 56 
Q 43.359375 56 49.78125 48.890625 
Q 56.203125 41.796875 56.203125 29.59375 
z
M 47.21875 32.234375 
Q 47.125 39.59375 43.09375 43.984375 
Q 39.0625 48.390625 32.421875 48.390625 
Q 24.90625 48.390625 20.390625 44.140625 
Q 15.875 39.890625 15.1875 32.171875 
z
" id="DejaVuSans-65"/>
      <path id="DejaVuSans-20"/>
      <path d="M 30.609375 48.390625 
Q 23.390625 48.390625 19.1875 42.75 
Q 14.984375 37.109375 14.984375 27.296875 
Q 14.984375 17.484375 19.15625 11.84375 
Q 23.34375 6.203125 30.609375 6.203125 
Q 37.796875 6.203125 41.984375 11.859375 
Q 46.1875 17.53125 46.1875 27.296875 
Q 46.1875 37.015625 41.984375 42.703125 
Q 37.796875 48.390625 30.609375 48.390625 
z
M 30.609375 56 
Q 42.328125 56 49.015625 48.375 
Q 55.71875 40.765625 55.71875 27.296875 
Q 55.71875 13.875 49.015625 6.21875 
Q 42.328125 -1.421875 30.609375 -1.421875 
Q 18.84375 -1.421875 12.171875 6.21875 
Q 5.515625 13.875 5.515625 27.296875 
Q 5.515625 40.765625 12.171875 48.375 
Q 18.84375 56 30.609375 56 
z
" id="DejaVuSans-6f"/>
      <path d="M 45.40625 27.984375 
Q 45.40625 37.75 41.375 43.109375 
Q 37.359375 48.484375 30.078125 48.484375 
Q 22.859375 48.484375 18.828125 43.109375 
Q 14.796875 37.75 14.796875 27.984375 
Q 14.796875 18.265625 18.828125 12.890625 
Q 22.859375 7.515625 30.078125 7.515625 
Q 37.359375 7.515625 41.375 12.890625 
Q 45.40625 18.265625 45.40625 27.984375 
z
M 54.390625 6.78125 
Q 54.390625 -7.171875 48.1875 -13.984375 
Q 42 -20.796875 29.203125 -20.796875 
Q 24.46875 -20.796875 20.265625 -20.09375 
Q 16.0625 -19.390625 12.109375 -17.921875 
L 12.109375 -9.1875 
Q 16.0625 -11.328125 19.921875 -12.34375 
Q 23.78125 -13.375 27.78125 -13.375 
Q 36.625 -13.375 41.015625 -8.765625 
Q 45.40625 -4.15625 45.40625 5.171875 
L 45.40625 9.625 
Q 42.625 4.78125 38.28125 2.390625 
Q 33.9375 0 27.875 0 
Q 17.828125 0 11.671875 7.65625 
Q 5.515625 15.328125 5.515625 27.984375 
Q 5.515625 40.671875 11.671875 48.328125 
Q 17.828125 56 27.875 56 
Q 33.9375 56 38.28125 53.609375 
Q 42.625 51.21875 45.40625 46.390625 
L 45.40625 54.6875 
L 54.390625 54.6875 
z
" id="DejaVuSans-67"/>
      <path d="M 54.890625 33.015625 
L 54.890625 0 
L 45.90625 0 
L 45.90625 32.71875 
Q 45.90625 40.484375 42.875 44.328125 
Q 39.84375 48.1875 33.796875 48.1875 
Q 26.515625 48.1875 22.3125 43.546875 
Q 18.109375 38.921875 18.109375 30.90625 
L 18.109375 0 
L 9.078125 0 
L 9.078125 75.984375 
L 18.109375 75.984375 
L 18.109375 46.1875 
Q 21.34375 51.125 25.703125 53.5625 
Q 30.078125 56 35.796875 56 
Q 45.21875 56 50.046875 50.171875 
Q 54.890625 44.34375 54.890625 33.015625 
z
" id="DejaVuSans-68"/>
      <path d="M 44.28125 53.078125 
L 44.28125 44.578125 
Q 40.484375 46.53125 36.375 47.5 
Q 32.28125 48.484375 27.875 48.484375 
Q 21.1875 48.484375 17.84375 46.4375 
Q 14.5 44.390625 14.5 40.28125 
Q 14.5 37.15625 16.890625 35.375 
Q 19.28125 33.59375 26.515625 31.984375 
L 29.59375 31.296875 
Q 39.15625 29.25 43.1875 25.515625 
Q 47.21875 21.78125 47.21875 15.09375 
Q 47.21875 7.46875 41.1875 3.015625 
Q 35.15625 -1.421875 24.609375 -1.421875 
Q 20.21875 -1.421875 15.453125 -0.5625 
Q 10.6875 0.296875 5.421875 2 
L 5.421875 11.28125 
Q 10.40625 8.6875 15.234375 7.390625 
Q 20.0625 6.109375 24.8125 6.109375 
Q 31.15625 6.109375 34.5625 8.28125 
Q 37.984375 10.453125 37.984375 14.40625 
Q 37.984375 18.0625 35.515625 20.015625 
Q 33.0625 21.96875 24.703125 23.78125 
L 21.578125 24.515625 
Q 13.234375 26.265625 9.515625 29.90625 
Q 5.8125 33.546875 5.8125 39.890625 
Q 5.8125 47.609375 11.28125 51.796875 
Q 16.75 56 26.8125 56 
Q 31.78125 56 36.171875 55.265625 
Q 40.578125 54.546875 44.28125 53.078125 
z
" id="DejaVuSans-73"/>
      <path d="M 31 75.875 
Q 24.46875 64.65625 21.28125 53.65625 
Q 18.109375 42.671875 18.109375 31.390625 
Q 18.109375 20.125 21.3125 9.0625 
Q 24.515625 -2 31 -13.1875 
L 23.1875 -13.1875 
Q 15.875 -1.703125 12.234375 9.375 
Q 8.59375 20.453125 8.59375 31.390625 
Q 8.59375 42.28125 12.203125 53.3125 
Q 15.828125 64.359375 23.1875 75.875 
z
" id="DejaVuSans-28"/>
      <path d="M -1.3125 -20.796875 
L 13.375 54.6875 
L 22.40625 54.6875 
L 15.765625 20.65625 
Q 15.578125 19.625 15.421875 18.359375 
Q 15.28125 17.09375 15.28125 15.828125 
Q 15.28125 11.28125 18.140625 8.828125 
Q 21 6.390625 26.3125 6.390625 
Q 33.546875 6.390625 37.984375 10.484375 
Q 42.4375 14.59375 44 22.796875 
L 50.203125 54.6875 
L 59.1875 54.6875 
L 51.03125 12.640625 
Q 50.828125 11.71875 50.75 11.03125 
Q 50.6875 10.359375 50.6875 9.8125 
Q 50.6875 8.296875 51.296875 7.59375 
Q 51.90625 6.890625 53.21875 6.890625 
Q 53.71875 6.890625 54.5625 7.125 
Q 55.421875 7.375 56.984375 8.015625 
L 55.609375 0.78125 
Q 53.46875 -0.296875 51.515625 -0.859375 
Q 49.5625 -1.421875 47.703125 -1.421875 
Q 44.484375 -1.421875 42.65625 0.625 
Q 40.828125 2.6875 40.828125 6.296875 
Q 38.09375 2.390625 34.296875 0.484375 
Q 30.515625 -1.421875 25.390625 -1.421875 
Q 20.84375 -1.421875 17.453125 0.671875 
Q 14.0625 2.78125 12.984375 6.203125 
L 7.71875 -20.796875 
z
" id="DejaVuSans-Oblique-3bc"/>
      <path d="M 89.796875 33.015625 
L 83.40625 0 
L 74.421875 0 
L 80.71875 32.71875 
Q 81.109375 34.8125 81.296875 36.328125 
Q 81.5 37.84375 81.5 38.921875 
Q 81.5 43.3125 79.046875 45.75 
Q 76.609375 48.1875 72.21875 48.1875 
Q 65.671875 48.1875 60.546875 43.28125 
Q 55.421875 38.375 53.90625 30.515625 
L 47.90625 0 
L 38.921875 0 
L 45.3125 32.71875 
Q 45.703125 34.515625 45.890625 36.046875 
Q 46.09375 37.59375 46.09375 38.8125 
Q 46.09375 43.265625 43.65625 45.71875 
Q 41.21875 48.1875 36.921875 48.1875 
Q 30.28125 48.1875 25.140625 43.28125 
Q 20.015625 38.375 18.5 30.515625 
L 12.5 0 
L 3.515625 0 
L 14.203125 54.6875 
L 23.1875 54.6875 
L 21.484375 46.1875 
Q 25.140625 50.984375 30.046875 53.484375 
Q 34.96875 56 40.578125 56 
Q 46.53125 56 50.359375 52.875 
Q 54.203125 49.75 54.984375 44.1875 
Q 59.078125 49.953125 64.46875 52.96875 
Q 69.875 56 75.875 56 
Q 82.90625 56 86.734375 51.953125 
Q 90.578125 47.90625 90.578125 40.484375 
Q 90.578125 38.875 90.375 36.9375 
Q 90.1875 35.015625 89.796875 33.015625 
z
" id="DejaVuSans-Oblique-6d"/>
      <path d="M 8.015625 75.875 
L 15.828125 75.875 
Q 23.140625 64.359375 26.78125 53.3125 
Q 30.421875 42.28125 30.421875 31.390625 
Q 30.421875 20.453125 26.78125 9.375 
Q 23.140625 -1.703125 15.828125 -13.1875 
L 8.015625 -13.1875 
Q 14.5 -2 17.703125 9.0625 
Q 20.90625 20.125 20.90625 31.390625 
Q 20.90625 42.671875 17.703125 53.65625 
Q 14.5 64.65625 8.015625 75.875 
z
" id="DejaVuSans-29"/>
     </defs>
     <g transform="translate(109.866875 367.8512)rotate(-90)scale(0.1 -0.1)">
      <use transform="translate(0 0.015625)" xlink:href="#DejaVuSans-53"/>
      <use transform="translate(63.476562 0.015625)" xlink:href="#DejaVuSans-75"/>
      <use transform="translate(126.855469 0.015625)" xlink:href="#DejaVuSans-72"/>
      <use transform="translate(167.96875 0.015625)" xlink:href="#DejaVuSans-66"/>
      <use transform="translate(203.173828 0.015625)" xlink:href="#DejaVuSans-61"/>
      <use transform="translate(264.453125 0.015625)" xlink:href="#DejaVuSans-63"/>
      <use transform="translate(319.433594 0.015625)" xlink:href="#DejaVuSans-65"/>
      <use transform="translate(380.957031 0.015625)" xlink:href="#DejaVuSans-20"/>
      <use transform="translate(412.744141 0.015625)" xlink:href="#DejaVuSans-52"/>
      <use transform="translate(482.226562 0.015625)" xlink:href="#DejaVuSans-6f"/>
      <use transform="translate(543.408203 0.015625)" xlink:href="#DejaVuSans-75"/>
      <use transform="translate(606.787109 0.015625)" xlink:href="#DejaVuSans-67"/>
      <use transform="translate(670.263672 0.015625)" xlink:href="#DejaVuSans-68"/>
      <use transform="translate(733.642578 0.015625)" xlink:href="#DejaVuSans-6e"/>
      <use transform="translate(797.021484 0.015625)" xlink:href="#DejaVuSans-65"/>
      <use transform="translate(858.544922 0.015625)" xlink:href="#DejaVuSans-73"/>
      <use transform="translate(910.644531 0.015625)" xlink:href="#DejaVuSans-73"/>
      <use transform="translate(962.744141 0.015625)" xlink:href="#DejaVuSans-20"/>
      <use transform="translate(994.53125 0.015625)" xlink:href="#DejaVuSans-28"/>
      <use transform="translate(1033.544922 0.015625)" xlink:href="#DejaVuSans-Oblique-3bc"/>
      <use transform="translate(1097.167969 0.015625)" xlink:href="#DejaVuSans-Oblique-6d"/>
      <use transform="translate(1194.580078 0.015625)" xlink:href="#DejaVuSans-29"/>
     </g>
    </g>
   </g>
   <g id="line2d_13">
    <path clip-path="url(#p4ef8126e84)" d="M 178.006091 510.884668 
L 179.745473 505.114862 
L 181.484855 506.141692 
L 183.224236 354.855436 
L 184.963618 369.182157 
L 186.703 277.452028 
L 188.442382 411.477765 
L 190.181764 335.19898 
L 191.921145 359.109445 
L 193.660527 348.449974 
L 195.399909 304.736363 
L 197.139291 292.707785 
L 198.878673 377.103415 
L 200.618055 398.031184 
L 202.357436 401.991813 
L 204.096818 424.630965 
L 205.8362 458.320762 
L 207.575582 352.01943 
L 209.314964 396.613181 
L 211.054345 408.201689 
L 212.793727 415.63398 
L 214.533109 397.835597 
L 216.272491 405.707959 
L 218.011873 383.60667 
L 219.751255 350.25915 
L 221.490636 382.57984 
L 223.230018 320.236603 
L 224.9694 498.220434 
L 226.708782 388.985303 
L 228.448164 395.146281 
L 230.187545 465.36188 
L 231.926927 473.625415 
L 233.666309 465.36188 
L 235.405691 474.114382 
L 237.145073 374.120719 
L 238.884455 429.862908 
L 240.623836 99.908267 
L 242.363218 181.907961 
L 244.1026 150.125134 
L 245.841982 239.850499 
L 247.581364 213.104028 
L 249.320745 218.384867 
L 251.060127 290.311849 
L 252.799509 159.073222 
L 254.538891 168.070207 
L 256.278273 249.336451 
L 258.017655 202.24897 
L 259.757036 195.501232 
L 261.496418 456.413792 
L 263.2358 345.027208 
L 264.975182 305.958779 
L 266.714564 314.271211 
L 268.453945 388.789716 
L 270.193327 378.276935 
L 271.932709 449.323777 
L 273.672091 409.032932 
L 275.411473 450.937367 
L 277.150855 444.923078 
L 278.890236 445.118665 
L 280.629618 371.235816 
L 282.369 418.469987 
L 284.108382 448.785914 
L 285.847764 423.701929 
L 287.587145 361.700968 
L 289.326527 487.903239 
L 291.065909 412.993561 
L 292.805291 432.209947 
L 294.544673 377.787968 
L 296.284055 290.898609 
L 299.762818 434.703677 
L 301.5022 465.850847 
L 303.241582 418.323297 
L 304.980964 416.563017 
L 306.720345 352.655087 
L 308.459727 429.911804 
L 310.199109 414.802737 
L 311.938491 402.969746 
L 313.677873 416.856397 
L 315.417255 462.672564 
L 317.156636 315.738111 
L 318.896018 359.305032 
L 320.6354 428.738284 
L 322.374782 416.122947 
L 324.114164 370.60016 
L 325.853545 342.386789 
L 327.592927 340.724302 
L 329.332309 307.376782 
L 331.071691 439.251066 
L 332.811073 392.310275 
L 334.550455 425.755588 
L 336.289836 423.701929 
L 338.029218 324.148336 
L 339.7686 335.834637 
L 341.507982 357.740339 
L 343.247364 384.242327 
L 344.986745 327.766688 
L 346.726127 341.848925 
L 348.465509 403.409816 
L 350.204891 395.439661 
L 351.944273 290.409642 
L 353.683655 348.156594 
L 355.423036 386.638263 
L 357.162418 455.631446 
L 358.9018 324.099439 
L 360.641182 300.873527 
L 362.380564 321.16564 
L 364.119945 409.424105 
L 365.859327 340.919889 
L 367.598709 305.665399 
L 369.338091 369.328846 
L 371.077473 289.627296 
L 372.816855 388.594129 
L 374.556236 364.634767 
L 376.295618 349.67239 
L 378.035 230.022271 
L 379.774382 241.170709 
L 381.513764 308.061335 
L 383.253145 362.776694 
L 384.992527 335.981327 
L 386.731909 230.560134 
L 388.471291 338.768436 
L 390.210673 435.68161 
L 391.950055 259.653645 
L 393.689436 377.934658 
L 395.428818 266.596971 
L 397.1682 322.436953 
L 398.907582 339.893059 
L 400.646964 369.915606 
L 402.386345 299.162144 
L 404.125727 308.305819 
L 405.865109 291.974335 
L 407.604491 278.527755 
L 409.343873 290.067366 
L 411.083255 281.314864 
L 412.822636 267.91718 
L 414.562018 245.864788 
L 416.3014 345.809555 
L 418.040782 275.104989 
L 419.780164 341.359959 
L 421.519545 295.348205 
L 423.258927 311.973068 
L 424.998309 292.805579 
L 426.737691 293.245648 
L 428.477073 339.697472 
L 431.955836 279.114515 
L 433.695218 324.979579 
L 435.4346 333.73208 
L 437.173982 303.807326 
L 438.913364 369.524433 
L 440.652745 193.007502 
L 442.392127 242.930989 
L 445.870891 311.924171 
L 447.610273 276.131819 
L 449.349655 152.032104 
L 451.089036 128.512812 
L 452.828418 178.045125 
L 454.5678 195.794611 
L 456.307182 179.952095 
L 458.046564 262.783031 
L 459.785945 333.096424 
L 461.525327 288.747156 
L 463.264709 289.822883 
L 465.004091 306.349953 
L 466.743473 282.292797 
L 468.482855 383.802257 
L 470.222236 317.107217 
L 471.961618 162.153712 
L 473.701 294.761445 
L 475.440382 471.571756 
L 477.179764 404.241059 
L 478.919145 446.878944 
L 480.658527 449.763847 
L 482.397909 437.588579 
L 484.137291 397.395527 
L 485.876673 455.875929 
L 487.616055 489.076759 
L 491.094818 506.288382 
L 492.8342 500.1763 
L 494.573582 425.853382 
L 496.312964 463.259324 
L 498.052345 453.626683 
L 499.791727 459.689868 
L 501.531109 464.335051 
L 503.270491 467.464437 
L 505.009873 450.74178 
L 506.749255 458.174072 
L 508.488636 496.313464 
L 510.228018 366.590634 
L 511.9674 295.299308 
L 513.706782 324.637302 
L 515.446164 299.211041 
L 517.185545 279.016721 
L 518.924927 420.670336 
L 520.664309 409.913072 
L 522.403691 435.339333 
L 524.143073 352.948466 
L 525.882455 452.697646 
L 527.621836 453.137716 
L 529.361218 407.174859 
L 531.1006 411.379971 
L 532.839982 360.429655 
L 534.579364 348.498871 
L 536.318745 342.484582 
L 538.058127 312.266448 
L 539.797509 422.577306 
L 541.536891 457.685105 
L 543.276273 373.582856 
L 545.015655 440.131206 
L 546.755036 423.848619 
L 548.494418 408.886242 
L 550.2338 443.505075 
L 551.973182 291.778749 
L 553.712564 455.386962 
L 555.451945 460.178835 
L 557.191327 433.432364 
L 558.930709 381.455217 
L 560.670091 426.684625 
L 562.409473 384.48681 
L 564.148855 377.690175 
L 565.888236 412.113421 
L 567.627618 436.70844 
L 569.367 292.218819 
L 571.106382 378.912591 
L 572.845764 438.077546 
L 574.585145 430.205184 
L 576.324527 358.669375 
L 578.063909 402.823056 
L 579.803291 400.378224 
L 581.542673 406.294719 
L 583.282055 367.51967 
L 585.021436 353.095156 
L 586.760818 359.011652 
L 588.5002 419.985783 
L 590.239582 388.985303 
L 591.978964 418.910056 
L 593.718345 297.597451 
L 595.457727 353.388536 
L 598.936491 409.913072 
L 600.675873 392.163585 
L 602.415255 315.346937 
L 605.894018 315.151351 
L 609.372782 422.919582 
L 612.851545 420.32806 
L 614.590927 442.673832 
L 616.330309 405.170096 
L 618.069691 362.678901 
L 619.809073 383.264394 
L 621.548455 372.751612 
L 623.287836 406.979272 
L 625.027218 338.866229 
L 626.7666 386.051503 
L 628.505982 450.937367 
L 630.245364 392.359172 
L 631.984745 382.628737 
L 633.724127 343.755895 
L 635.463509 412.162318 
L 637.202891 328.011171 
L 638.942273 395.537455 
L 640.681655 362.630004 
L 642.421036 464.677327 
L 644.160418 319.454257 
L 645.8998 266.156901 
L 647.639182 396.613181 
L 649.378564 220.438526 
L 651.117945 334.9056 
L 652.857327 395.928628 
L 654.596709 388.545233 
L 656.336091 451.964196 
L 658.075473 424.484275 
L 659.814855 448.83481 
L 661.554236 369.42664 
L 663.293618 430.889737 
L 665.033 430.938634 
L 666.772382 270.802083 
L 668.511764 382.530944 
L 670.251145 389.963236 
L 671.990527 447.367911 
L 673.729909 393.288208 
L 675.469291 403.36092 
L 677.208673 427.222488 
L 678.948055 420.083576 
L 680.687436 476.852595 
L 682.426818 362.581108 
L 684.1662 341.653339 
L 685.905582 448.83481 
L 687.644964 435.730506 
L 689.384345 435.290437 
L 691.123727 466.09533 
L 692.863109 305.029743 
L 694.602491 447.514601 
L 696.341873 452.35537 
L 698.081255 396.710974 
L 699.820636 460.570008 
L 701.560018 466.633194 
L 703.2994 422.235029 
L 705.038782 449.470467 
L 706.778164 453.528889 
L 708.517545 484.871647 
L 710.256927 463.406014 
L 711.996309 392.359172 
L 713.735691 459.249798 
L 715.475073 462.428081 
L 717.214455 475.434592 
L 718.953836 472.402999 
L 720.693218 375.929895 
L 722.4326 462.232494 
L 724.171982 473.723209 
L 725.911364 477.781631 
L 727.650745 464.481741 
L 729.390127 471.620653 
L 731.129509 487.609859 
L 732.868891 432.112154 
L 734.608273 450.643987 
L 736.347655 324.735095 
L 738.087036 434.165813 
L 739.826418 485.947373 
L 741.5658 381.015147 
L 743.305182 485.898476 
L 745.044564 394.266141 
L 746.783945 488.049929 
L 748.523327 460.081042 
L 750.262709 479.884188 
L 752.002091 493.673045 
L 753.741473 257.502192 
L 755.480855 460.374421 
L 757.220236 383.704464 
L 758.959618 476.216938 
L 760.699 425.217725 
L 762.438382 309.626029 
L 764.177764 480.128671 
L 765.917145 330.847178 
L 767.656527 479.493014 
L 769.395909 489.419036 
L 771.135291 478.515081 
L 772.874673 291.387576 
L 774.614055 463.063738 
L 776.353436 446.194391 
L 778.092818 431.476497 
L 779.8322 326.593168 
L 781.571582 411.722248 
L 783.310964 464.824017 
L 785.050345 458.222969 
L 786.789727 471.914032 
L 788.529109 468.051197 
L 790.268491 354.024193 
L 792.007873 362.092141 
L 793.747255 412.700181 
L 795.486636 451.377437 
L 797.226018 362.678901 
L 798.9654 401.16057 
L 800.704782 322.583643 
L 802.444164 448.394741 
L 804.183545 435.045953 
L 805.922927 277.011958 
L 807.662309 426.489038 
L 809.401691 269.286287 
L 811.141073 385.415847 
L 812.880455 458.663038 
L 814.619836 426.537935 
L 816.359218 432.698914 
L 818.0986 378.961488 
L 819.837982 347.863214 
L 821.577364 456.462689 
L 823.316745 299.94449 
L 825.056127 414.264874 
L 826.795509 454.457926 
L 828.534891 403.605403 
L 830.274273 416.269637 
L 832.013655 421.012613 
L 833.753036 358.327099 
L 835.492418 337.497123 
L 837.2318 331.580627 
L 838.971182 369.13326 
L 840.710564 182.250238 
L 842.449945 266.694764 
L 844.189327 183.277067 
L 845.928709 228.213095 
L 847.668091 318.182943 
L 849.407473 161.224675 
L 851.146855 286.05784 
L 852.886236 340.528716 
L 854.625618 241.415192 
L 856.365 337.69271 
L 858.104382 243.908922 
L 859.843764 419.643506 
L 861.583145 266.939247 
L 863.322527 216.575691 
L 865.061909 426.537935 
L 866.801291 159.366602 
L 868.540673 234.12959 
L 870.280055 344.880518 
L 872.019436 208.214362 
L 873.758818 389.474269 
L 875.4982 426.293452 
L 877.237582 402.77416 
L 878.976964 218.531557 
L 880.716345 262.734135 
L 882.455727 351.628257 
L 884.195109 220.780803 
L 885.934491 371.382506 
L 887.673873 339.697472 
L 889.413255 399.204704 
L 891.152636 422.137236 
L 892.892018 310.946238 
L 894.6314 419.7413 
L 896.370782 387.225023 
L 898.110164 276.425199 
L 899.849545 440.815759 
L 901.588927 357.495856 
L 903.328309 409.375208 
L 905.067691 360.136275 
L 906.807073 316.960527 
L 908.546455 426.586832 
L 910.285836 273.198019 
L 912.025218 306.105469 
L 913.7646 464.237257 
L 915.503982 354.953229 
L 917.243364 413.873701 
L 918.982745 432.74781 
L 920.722127 490.592555 
L 922.461509 405.121199 
L 924.200891 385.318053 
L 925.940273 410.793211 
L 927.679655 153.303417 
L 929.419036 274.175952 
L 931.158418 302.14484 
L 932.8978 217.16245 
L 934.637182 410.108658 
L 936.376564 175.355809 
L 938.115945 334.61222 
L 939.855327 401.60064 
L 941.594709 226.795092 
L 943.334091 408.495069 
L 945.073473 282.292797 
L 946.812855 430.400771 
L 948.552236 233.640624 
L 950.291618 383.215497 
L 952.031 421.990546 
L 953.770382 240.437259 
L 955.509764 252.661423 
L 957.249145 409.179622 
L 958.988527 317.3517 
L 960.727909 433.432364 
L 960.727909 433.432364 
" style="fill:none;stroke:#1f77b4;stroke-linecap:square;stroke-width:1.5;"/>
   </g>
   <g id="line2d_14">
    <path clip-path="url(#p4ef8126e84)" d="M 178.006091 512.968593 
L 179.745473 512.807968 
L 181.484855 518.3352 
L 183.224236 363.550464 
L 184.963618 368.40398 
L 186.703 275.106897 
L 188.442382 435.68517 
L 190.181764 343.626731 
L 191.921145 357.486424 
L 193.660527 348.560895 
L 195.399909 299.214245 
L 197.139291 293.832295 
L 198.878673 373.437015 
L 200.618055 402.264891 
L 202.357436 400.839891 
L 204.096818 423.639523 
L 205.8362 465.642715 
L 207.575582 351.933419 
L 209.314964 398.970482 
L 211.054345 413.041661 
L 212.793727 423.515139 
L 214.533109 415.931207 
L 218.011873 393.913822 
L 219.751255 359.062493 
L 221.490636 465.994992 
L 223.230018 327.066707 
L 224.9694 490.247694 
L 226.708782 395.970637 
L 228.448164 394.605093 
L 230.187545 467.337908 
L 231.926927 484.045709 
L 233.666309 447.505019 
L 235.405691 479.336311 
L 237.145073 369.298273 
L 238.884455 431.218462 
L 240.623836 93.9672 
L 242.363218 179.45992 
L 244.1026 140.944808 
L 245.841982 238.529725 
L 247.581364 214.14133 
L 249.320745 217.364009 
L 251.060127 288.359642 
L 252.799509 157.667651 
L 254.538891 163.312008 
L 256.278273 247.93789 
L 258.017655 199.837227 
L 259.757036 202.594721 
L 261.496418 451.109032 
L 263.2358 354.420864 
L 264.975182 308.266745 
L 266.714564 316.729555 
L 268.453945 380.618969 
L 270.193327 386.889109 
L 271.932709 444.227598 
L 273.672091 412.800658 
L 275.411473 452.417308 
L 277.150855 432.214511 
L 278.890236 453.57413 
L 280.629618 365.312522 
L 282.369 423.112663 
L 284.108382 458.413376 
L 285.847764 441.792831 
L 287.587145 362.149316 
L 289.326527 494.425506 
L 291.065909 416.083071 
L 292.805291 438.13091 
L 294.544673 362.538922 
L 296.284055 291.970317 
L 298.023436 360.318762 
L 299.762818 438.60148 
L 301.5022 466.691386 
L 303.241582 422.777371 
L 304.980964 422.08909 
L 306.720345 349.620141 
L 308.459727 432.936401 
L 310.199109 424.336879 
L 311.938491 404.524676 
L 313.677873 413.268814 
L 315.417255 464.555521 
L 317.156636 315.616345 
L 318.896018 361.963082 
L 320.6354 425.244235 
L 322.374782 418.306973 
L 324.114164 370.812018 
L 325.853545 340.710403 
L 327.592927 342.57016 
L 329.332309 306.796839 
L 331.071691 435.394417 
L 332.811073 393.01757 
L 334.550455 428.097277 
L 336.289836 424.857811 
L 338.029218 323.007984 
L 339.7686 339.876352 
L 341.507982 363.520772 
L 343.247364 391.254026 
L 344.986745 334.245146 
L 346.726127 316.690822 
L 348.465509 403.715125 
L 350.204891 397.745426 
L 351.944273 299.716204 
L 353.683655 347.408043 
L 355.423036 385.531258 
L 357.162418 462.103128 
L 358.9018 316.652928 
L 360.641182 304.7445 
L 362.380564 323.839481 
L 364.119945 412.098178 
L 365.859327 337.803064 
L 367.598709 309.476273 
L 369.338091 364.899064 
L 371.077473 280.97881 
L 372.816855 390.076639 
L 374.556236 364.627791 
L 376.295618 348.313212 
L 378.035 224.713994 
L 379.774382 278.749662 
L 381.513764 308.146209 
L 383.253145 367.426223 
L 384.992527 333.988667 
L 386.731909 233.321735 
L 390.210673 443.322376 
L 391.950055 260.539216 
L 393.689436 371.495717 
L 395.428818 270.286397 
L 397.1682 357.673673 
L 398.907582 348.846752 
L 400.646964 355.841545 
L 402.386345 300.765115 
L 404.125727 313.69862 
L 405.865109 289.093843 
L 407.604491 271.015037 
L 409.343873 289.112519 
L 411.083255 279.346137 
L 412.822636 265.184236 
L 414.562018 244.745726 
L 416.3014 347.748511 
L 418.040782 272.968786 
L 419.780164 343.694177 
L 421.519545 295.545985 
L 423.258927 314.853186 
L 424.998309 289.991895 
L 426.737691 292.410985 
L 428.477073 343.456654 
L 431.955836 274.181443 
L 433.695218 324.115825 
L 435.4346 339.956407 
L 437.173982 301.577534 
L 438.913364 368.916781 
L 440.652745 189.188076 
L 442.392127 239.691409 
L 444.131509 273.744133 
L 445.870891 301.297518 
L 447.610273 280.016931 
L 449.349655 144.073478 
L 451.089036 120.872122 
L 452.828418 163.720955 
L 454.5678 190.074972 
L 456.307182 177.709911 
L 458.046564 262.000203 
L 459.785945 333.661122 
L 461.525327 303.524393 
L 463.264709 290.556387 
L 465.004091 310.349616 
L 466.743473 276.409577 
L 468.482855 383.243669 
L 470.222236 311.988025 
L 471.961618 162.016201 
L 473.701 296.576203 
L 475.440382 475.330315 
L 477.179764 399.718917 
L 478.919145 455.010147 
L 480.658527 457.771934 
L 482.397909 444.880266 
L 484.137291 397.801629 
L 485.876673 459.669397 
L 487.616055 503.856668 
L 489.355436 497.956965 
L 491.094818 466.683198 
L 492.8342 498.554428 
L 494.573582 397.914506 
L 496.312964 464.722372 
L 498.052345 466.947271 
L 499.791727 441.2316 
L 501.531109 439.500809 
L 503.270491 469.069623 
L 505.009873 460.766825 
L 506.749255 459.755406 
L 508.488636 498.906544 
L 510.228018 369.381807 
L 511.9674 295.08136 
L 513.706782 328.956296 
L 515.446164 303.670635 
L 517.185545 276.037843 
L 518.924927 423.05451 
L 520.664309 420.143429 
L 522.403691 433.255885 
L 524.143073 357.118712 
L 525.882455 452.349704 
L 527.621836 459.145182 
L 529.361218 416.473176 
L 531.1006 414.275775 
L 532.839982 364.359596 
L 534.579364 346.629163 
L 536.318745 350.486105 
L 538.058127 312.680835 
L 539.797509 422.638665 
L 541.536891 463.081287 
L 543.276273 373.506473 
L 545.015655 440.555814 
L 546.755036 433.633478 
L 548.494418 416.976402 
L 550.2338 440.123706 
L 551.973182 291.216234 
L 553.712564 457.2769 
L 555.451945 462.899857 
L 557.191327 439.678746 
L 558.930709 383.33899 
L 560.670091 416.469626 
L 562.409473 391.521224 
L 564.148855 382.02935 
L 565.888236 411.797142 
L 567.627618 434.844562 
L 569.367 292.885455 
L 571.106382 376.770211 
L 572.845764 443.78053 
L 574.585145 414.079765 
L 576.324527 376.114088 
L 578.063909 414.608636 
L 579.803291 407.779811 
L 581.542673 410.317251 
L 583.282055 371.193301 
L 585.021436 357.082531 
L 586.760818 362.860697 
L 588.5002 423.414721 
L 590.239582 389.07092 
L 591.978964 417.002099 
L 593.718345 302.182928 
L 595.457727 354.909463 
L 597.197109 387.763152 
L 598.936491 414.854168 
L 600.675873 395.256319 
L 602.415255 318.309261 
L 604.154636 316.097337 
L 605.894018 314.979056 
L 609.372782 423.558366 
L 611.112164 424.102171 
L 612.851545 421.579682 
L 614.590927 450.415934 
L 616.330309 402.570631 
L 618.069691 361.62702 
L 619.809073 385.27443 
L 621.548455 380.873595 
L 623.287836 400.290648 
L 625.027218 338.052601 
L 626.7666 387.857651 
L 628.505982 447.769183 
L 630.245364 388.617365 
L 631.984745 381.529333 
L 633.724127 389.848156 
L 635.463509 408.921402 
L 637.202891 330.655174 
L 638.942273 385.23435 
L 640.681655 364.020632 
L 642.421036 415.282105 
L 644.160418 314.92789 
L 645.8998 262.678394 
L 647.639182 390.835601 
L 649.378564 226.9792 
L 651.117945 335.415783 
L 652.857327 392.783754 
L 654.596709 416.342208 
L 656.336091 456.212723 
L 658.075473 413.004012 
L 659.814855 357.231676 
L 661.554236 397.340117 
L 663.293618 431.840013 
L 665.033 428.266812 
L 666.772382 383.678479 
L 668.511764 387.639853 
L 670.251145 397.075576 
L 671.990527 455.004874 
L 673.729909 406.000703 
L 675.469291 407.321883 
L 677.208673 438.270629 
L 678.948055 428.07743 
L 680.687436 489.425486 
L 682.426818 361.694712 
L 684.1662 357.047453 
L 685.905582 454.329997 
L 687.644964 438.260784 
L 689.384345 433.027892 
L 691.123727 459.106457 
L 692.863109 308.022874 
L 694.602491 446.103521 
L 696.341873 456.43825 
L 698.081255 402.95235 
L 699.820636 461.321122 
L 701.560018 476.923673 
L 703.2994 420.308408 
L 705.038782 451.453199 
L 706.778164 461.555952 
L 708.517545 485.107381 
L 710.256927 474.186463 
L 711.996309 394.455545 
L 713.735691 472.214022 
L 715.475073 468.277492 
L 717.214455 486.235158 
L 718.953836 477.002858 
L 720.693218 423.939456 
L 722.4326 471.079495 
L 724.171982 483.712607 
L 725.911364 479.944629 
L 727.650745 466.571221 
L 729.390127 477.705063 
L 731.129509 496.575714 
L 732.868891 437.938502 
L 734.608273 423.499366 
L 736.347655 326.566059 
L 738.087036 433.787921 
L 739.826418 483.072852 
L 741.5658 376.420509 
L 743.305182 492.867641 
L 745.044564 390.684306 
L 746.783945 492.787102 
L 748.523327 465.711845 
L 750.262709 481.961588 
L 752.002091 499.597052 
L 753.741473 320.250209 
L 755.480855 458.153942 
L 757.220236 383.855095 
L 758.959618 487.414407 
L 760.699 430.406314 
L 762.438382 392.214454 
L 764.177764 442.856772 
L 765.917145 334.911603 
L 767.656527 473.408799 
L 769.395909 497.014618 
L 771.135291 480.155052 
L 772.874673 289.158229 
L 774.614055 477.271547 
L 776.353436 463.608619 
L 778.092818 439.694667 
L 779.8322 323.449718 
L 781.571582 427.19647 
L 783.310964 467.778178 
L 785.050345 466.785347 
L 786.789727 478.731752 
L 788.529109 471.44834 
L 790.268491 355.975249 
L 792.007873 360.426271 
L 793.747255 420.891838 
L 795.486636 467.17456 
L 797.226018 314.185785 
L 798.9654 397.562304 
L 800.704782 315.253879 
L 802.444164 462.382471 
L 804.183545 439.60858 
L 805.922927 269.501012 
L 807.662309 430.748163 
L 809.401691 263.376432 
L 811.141073 384.70693 
L 812.880455 462.606809 
L 814.619836 433.633863 
L 816.359218 429.87579 
L 818.0986 375.250082 
L 819.837982 344.197587 
L 821.577364 458.631253 
L 823.316745 289.134587 
L 825.056127 413.710636 
L 826.795509 458.492732 
L 828.534891 404.092997 
L 830.274273 414.089357 
L 832.013655 425.300227 
L 833.753036 336.338946 
L 835.492418 339.523521 
L 837.2318 336.242402 
L 838.971182 367.196778 
L 840.710564 184.727541 
L 842.449945 272.996502 
L 844.189327 177.589287 
L 845.928709 188.335909 
L 847.668091 316.093578 
L 849.407473 158.124722 
L 851.146855 291.669859 
L 852.886236 343.225845 
L 854.625618 253.877879 
L 856.365 336.357954 
L 858.104382 239.485502 
L 859.843764 422.106594 
L 861.583145 272.710243 
L 863.322527 216.342884 
L 865.061909 430.560888 
L 866.801291 159.037078 
L 868.540673 235.662659 
L 870.280055 344.242843 
L 872.019436 208.273282 
L 873.758818 388.494748 
L 875.4982 432.122408 
L 877.237582 394.956315 
L 878.976964 222.658105 
L 880.716345 255.454157 
L 882.455727 351.289589 
L 884.195109 222.160605 
L 885.934491 371.654043 
L 887.673873 340.636172 
L 889.413255 399.737488 
L 891.152636 424.214786 
L 892.892018 305.269664 
L 894.6314 419.847666 
L 896.370782 388.701879 
L 898.110164 282.362489 
L 899.849545 434.184583 
L 901.588927 342.681184 
L 903.328309 401.625084 
L 905.067691 361.638457 
L 906.807073 318.142979 
L 908.546455 428.510779 
L 910.285836 269.836706 
L 912.025218 307.435527 
L 913.7646 466.580113 
L 915.503982 357.419467 
L 917.243364 411.190254 
L 918.982745 435.176321 
L 920.722127 497.263619 
L 922.461509 404.498971 
L 924.200891 380.829633 
L 925.940273 483.701722 
L 927.679655 148.45749 
L 929.419036 271.305948 
L 931.158418 304.420609 
L 932.8978 226.413012 
L 934.637182 408.59425 
L 936.376564 269.901949 
L 938.115945 332.695273 
L 939.855327 405.359094 
L 941.594709 227.120283 
L 943.334091 404.851854 
L 945.073473 277.519185 
L 946.812855 426.400882 
L 948.552236 238.906129 
L 950.291618 386.531539 
L 952.031 440.998047 
L 953.770382 237.015963 
L 955.509764 254.790358 
L 957.249145 275.145421 
L 958.988527 317.63086 
L 960.727909 444.750138 
L 960.727909 444.750138 
" style="fill:none;stroke:#ff7f0e;stroke-linecap:square;stroke-width:1.5;"/>
   </g>
   <g id="patch_3">
    <path d="M 138.87 539.5536 
L 138.87 72.7488 
" style="fill:none;stroke:#000000;stroke-linecap:square;stroke-linejoin:miter;stroke-width:0.8;"/>
   </g>
   <g id="patch_4">
    <path d="M 999.864 539.5536 
L 999.864 72.7488 
" style="fill:none;stroke:#000000;stroke-linecap:square;stroke-linejoin:miter;stroke-width:0.8;"/>
   </g>
   <g id="patch_5">
    <path d="M 138.87 539.5536 
L 999.864 539.5536 
" style="fill:none;stroke:#000000;stroke-linecap:square;stroke-linejoin:miter;stroke-width:0.8;"/>
   </g>
   <g id="patch_6">
    <path d="M 138.87 72.7488 
L 999.864 72.7488 
" style="fill:none;stroke:#000000;stroke-linecap:square;stroke-linejoin:miter;stroke-width:0.8;"/>
   </g>
   <g id="legend_1">
    <g id="patch_7">
     <path d="M 814.081188 110.10505 
L 992.864 110.10505 
Q 994.864 110.10505 994.864 108.10505 
L 994.864 79.7488 
Q 994.864 77.7488 992.864 77.7488 
L 814.081188 77.7488 
Q 812.081188 77.7488 812.081188 79.7488 
L 812.081188 108.10505 
Q 812.081188 110.10505 814.081188 110.10505 
z
" style="fill:#ffffff;opacity:0.8;stroke:#cccccc;stroke-linejoin:miter;"/>
    </g>
    <g id="line2d_15">
     <path d="M 816.081188 85.847237 
L 836.081188 85.847237 
" style="fill:none;stroke:#1f77b4;stroke-linecap:square;stroke-width:1.5;"/>
    </g>
    <g id="line2d_16"/>
    <g id="text_15">
     <!-- Real Surface Roughness -->
     <defs>
      <path d="M 9.421875 75.984375 
L 18.40625 75.984375 
L 18.40625 0 
L 9.421875 0 
z
" id="DejaVuSans-6c"/>
     </defs>
     <g transform="translate(844.081188 89.347237)scale(0.1 -0.1)">
      <use xlink:href="#DejaVuSans-52"/>
      <use x="69.419922" xlink:href="#DejaVuSans-65"/>
      <use x="130.943359" xlink:href="#DejaVuSans-61"/>
      <use x="192.222656" xlink:href="#DejaVuSans-6c"/>
      <use x="220.005859" xlink:href="#DejaVuSans-20"/>
      <use x="251.792969" xlink:href="#DejaVuSans-53"/>
      <use x="315.269531" xlink:href="#DejaVuSans-75"/>
      <use x="378.648438" xlink:href="#DejaVuSans-72"/>
      <use x="419.761719" xlink:href="#DejaVuSans-66"/>
      <use x="454.966797" xlink:href="#DejaVuSans-61"/>
      <use x="516.246094" xlink:href="#DejaVuSans-63"/>
      <use x="571.226562" xlink:href="#DejaVuSans-65"/>
      <use x="632.75" xlink:href="#DejaVuSans-20"/>
      <use x="664.537109" xlink:href="#DejaVuSans-52"/>
      <use x="733.957031" xlink:href="#DejaVuSans-6f"/>
      <use x="795.138672" xlink:href="#DejaVuSans-75"/>
      <use x="858.517578" xlink:href="#DejaVuSans-67"/>
      <use x="921.994141" xlink:href="#DejaVuSans-68"/>
      <use x="985.373047" xlink:href="#DejaVuSans-6e"/>
      <use x="1048.751953" xlink:href="#DejaVuSans-65"/>
      <use x="1110.275391" xlink:href="#DejaVuSans-73"/>
      <use x="1162.375" xlink:href="#DejaVuSans-73"/>
     </g>
    </g>
    <g id="line2d_17">
     <path d="M 816.081188 100.525362 
L 836.081188 100.525362 
" style="fill:none;stroke:#ff7f0e;stroke-linecap:square;stroke-width:1.5;"/>
    </g>
    <g id="line2d_18"/>
    <g id="text_16">
     <!-- Predicted Surface Roughness -->
     <defs>
      <path d="M 19.671875 64.796875 
L 19.671875 37.40625 
L 32.078125 37.40625 
Q 38.96875 37.40625 42.71875 40.96875 
Q 46.484375 44.53125 46.484375 51.125 
Q 46.484375 57.671875 42.71875 61.234375 
Q 38.96875 64.796875 32.078125 64.796875 
z
M 9.8125 72.90625 
L 32.078125 72.90625 
Q 44.34375 72.90625 50.609375 67.359375 
Q 56.890625 61.8125 56.890625 51.125 
Q 56.890625 40.328125 50.609375 34.8125 
Q 44.34375 29.296875 32.078125 29.296875 
L 19.671875 29.296875 
L 19.671875 0 
L 9.8125 0 
z
" id="DejaVuSans-50"/>
      <path d="M 45.40625 46.390625 
L 45.40625 75.984375 
L 54.390625 75.984375 
L 54.390625 0 
L 45.40625 0 
L 45.40625 8.203125 
Q 42.578125 3.328125 38.25 0.953125 
Q 33.9375 -1.421875 27.875 -1.421875 
Q 17.96875 -1.421875 11.734375 6.484375 
Q 5.515625 14.40625 5.515625 27.296875 
Q 5.515625 40.1875 11.734375 48.09375 
Q 17.96875 56 27.875 56 
Q 33.9375 56 38.25 53.625 
Q 42.578125 51.265625 45.40625 46.390625 
z
M 14.796875 27.296875 
Q 14.796875 17.390625 18.875 11.75 
Q 22.953125 6.109375 30.078125 6.109375 
Q 37.203125 6.109375 41.296875 11.75 
Q 45.40625 17.390625 45.40625 27.296875 
Q 45.40625 37.203125 41.296875 42.84375 
Q 37.203125 48.484375 30.078125 48.484375 
Q 22.953125 48.484375 18.875 42.84375 
Q 14.796875 37.203125 14.796875 27.296875 
z
" id="DejaVuSans-64"/>
      <path d="M 9.421875 54.6875 
L 18.40625 54.6875 
L 18.40625 0 
L 9.421875 0 
z
M 9.421875 75.984375 
L 18.40625 75.984375 
L 18.40625 64.59375 
L 9.421875 64.59375 
z
" id="DejaVuSans-69"/>
      <path d="M 18.3125 70.21875 
L 18.3125 54.6875 
L 36.8125 54.6875 
L 36.8125 47.703125 
L 18.3125 47.703125 
L 18.3125 18.015625 
Q 18.3125 11.328125 20.140625 9.421875 
Q 21.96875 7.515625 27.59375 7.515625 
L 36.8125 7.515625 
L 36.8125 0 
L 27.59375 0 
Q 17.1875 0 13.234375 3.875 
Q 9.28125 7.765625 9.28125 18.015625 
L 9.28125 47.703125 
L 2.6875 47.703125 
L 2.6875 54.6875 
L 9.28125 54.6875 
L 9.28125 70.21875 
z
" id="DejaVuSans-74"/>
     </defs>
     <g transform="translate(844.081188 104.025362)scale(0.1 -0.1)">
      <use xlink:href="#DejaVuSans-50"/>
      <use x="60.287109" xlink:href="#DejaVuSans-72"/>
      <use x="101.369141" xlink:href="#DejaVuSans-65"/>
      <use x="162.892578" xlink:href="#DejaVuSans-64"/>
      <use x="226.369141" xlink:href="#DejaVuSans-69"/>
      <use x="254.152344" xlink:href="#DejaVuSans-63"/>
      <use x="309.132812" xlink:href="#DejaVuSans-74"/>
      <use x="348.341797" xlink:href="#DejaVuSans-65"/>
      <use x="409.865234" xlink:href="#DejaVuSans-64"/>
      <use x="473.341797" xlink:href="#DejaVuSans-20"/>
      <use x="505.128906" xlink:href="#DejaVuSans-53"/>
      <use x="568.605469" xlink:href="#DejaVuSans-75"/>
      <use x="631.984375" xlink:href="#DejaVuSans-72"/>
      <use x="673.097656" xlink:href="#DejaVuSans-66"/>
      <use x="708.302734" xlink:href="#DejaVuSans-61"/>
      <use x="769.582031" xlink:href="#DejaVuSans-63"/>
      <use x="824.5625" xlink:href="#DejaVuSans-65"/>
      <use x="886.085938" xlink:href="#DejaVuSans-20"/>
      <use x="917.873047" xlink:href="#DejaVuSans-52"/>
      <use x="987.292969" xlink:href="#DejaVuSans-6f"/>
      <use x="1048.474609" xlink:href="#DejaVuSans-75"/>
      <use x="1111.853516" xlink:href="#DejaVuSans-67"/>
      <use x="1175.330078" xlink:href="#DejaVuSans-68"/>
      <use x="1238.708984" xlink:href="#DejaVuSans-6e"/>
      <use x="1302.087891" xlink:href="#DejaVuSans-65"/>
      <use x="1363.611328" xlink:href="#DejaVuSans-73"/>
      <use x="1415.710938" xlink:href="#DejaVuSans-73"/>
     </g>
    </g>
   </g>
  </g>
 </g>
 <defs>
  <clipPath id="p4ef8126e84">
   <rect height="466.8048" width="860.994" x="138.87" y="72.7488"/>
  </clipPath>
 </defs>
</svg>
